Playpen-Rg00ShortFast.ufo
<glyph name="exclam" format="2">
	<unicode hex="0021"/>
	<advance width="272"/>
	<outline>
		<contour>
			<point x="136" y="173" type="curve" smooth="yes"/>
			<point x="159" y="173"/>
			<point x="171" y="180"/>
			<point x="171" y="195" type="curve" smooth="yes"/>
			<point x="171" y="690" type="line" smooth="yes"/>
			<point x="171" y="705"/>
			<point x="159" y="712"/>
			<point x="136" y="712" type="curve" smooth="yes"/>
			<point x="113" y="712"/>
			<point x="101" y="705"/>
			<point x="101" y="690" type="curve" smooth="yes"/>
			<point x="101" y="195" type="line" smooth="yes"/>
			<point x="101" y="180"/>
			<point x="113" y="173"/>
		</contour>
		<contour>
			<point x="136" y="-11" type="curve" smooth="yes"/>
			<point x="165" y="-11"/>
			<point x="181" y="5"/>
			<point x="180" y="39" type="curve" smooth="yes"/>
			<point x="180" y="73"/>
			<point x="165" y="90"/>
			<point x="136" y="90" type="curve" smooth="yes"/>
			<point x="106" y="90"/>
			<point x="91" y="73"/>
			<point x="91" y="39" type="curve" smooth="yes"/>
			<point x="91" y="5"/>
			<point x="106" y="-11"/>
		</contour>
	</outline>
</glyph>
<glyph name="dollar" format="2">
  <advance width="534"/>
  <unicode hex="0024"/>
  <outline>
    <contour>
      <point x="260" y="-15" type="curve" smooth="yes"/>
      <point x="393" y="-15"/>
      <point x="481" y="53"/>
      <point x="481" y="181" type="curve" smooth="yes"/>
      <point x="481" y="309"/>
      <point x="372" y="356"/>
      <point x="282" y="390" type="curve" smooth="yes"/>
      <point x="195" y="423"/>
      <point x="136" y="455"/>
      <point x="136" y="542" type="curve" smooth="yes"/>
      <point x="136" y="609"/>
      <point x="185" y="644"/>
      <point x="270" y="644" type="curve" smooth="yes"/>
      <point x="337" y="644"/>
      <point x="371" y="622"/>
      <point x="411" y="585" type="curve" smooth="yes"/>
      <point x="422" y="575"/>
      <point x="435" y="583"/>
      <point x="448" y="597" type="curve" smooth="yes"/>
      <point x="459" y="609"/>
      <point x="462" y="619"/>
      <point x="451" y="630" type="curve" smooth="yes"/>
      <point x="400" y="681"/>
      <point x="350" y="712"/>
      <point x="270" y="712" type="curve" smooth="yes"/>
      <point x="149" y="712"/>
      <point x="62" y="648"/>
      <point x="62" y="542" type="curve" smooth="yes"/>
      <point x="62" y="408"/>
      <point x="171" y="354"/>
      <point x="265" y="317" type="curve" smooth="yes"/>
      <point x="351" y="283"/>
      <point x="407" y="254"/>
      <point x="407" y="181" type="curve" smooth="yes"/>
      <point x="407" y="93"/>
      <point x="355" y="53"/>
      <point x="260" y="53" type="curve" smooth="yes"/>
      <point x="177" y="53"/>
      <point x="125" y="94"/>
      <point x="92" y="124" type="curve" smooth="yes"/>
      <point x="72" y="142"/>
      <point x="68" y="139"/>
      <point x="50" y="123" type="curve" smooth="yes"/>
      <point x="34" y="109"/>
      <point x="36" y="100"/>
      <point x="44" y="89" type="curve" smooth="yes"/>
      <point x="91" y="27"/>
      <point x="175" y="-15"/>
    </contour>
    <contour>
      <point x="269" y="-120" type="curve" smooth="yes"/>
      <point x="290" y="-120"/>
      <point x="301" y="-113"/>
      <point x="301" y="-98" type="curve" smooth="yes"/>
      <point x="301" y="807" type="line" smooth="yes"/>
      <point x="301" y="822"/>
      <point x="290" y="829"/>
      <point x="269" y="829" type="curve" smooth="yes"/>
      <point x="248" y="829"/>
      <point x="237" y="822"/>
      <point x="237" y="807" type="curve" smooth="yes"/>
      <point x="237" y="-98" type="line" smooth="yes"/>
      <point x="237" y="-113"/>
      <point x="248" y="-120"/>
    </contour>
  </outline>
</glyph>
<glyph name="percent" format="2">
  <advance width="825"/>
  <unicode hex="0025"/>
  <outline>
    <contour>
      <point x="214" y="505" type="curve" smooth="yes"/>
      <point x="306" y="505"/>
      <point x="380" y="585"/>
      <point x="380" y="698" type="curve" smooth="yes"/>
      <point x="380" y="810"/>
      <point x="309" y="890"/>
      <point x="214" y="890" type="curve" smooth="yes"/>
      <point x="115" y="890"/>
      <point x="45" y="809"/>
      <point x="45" y="698" type="curve" smooth="yes"/>
      <point x="45" y="585"/>
      <point x="120" y="505"/>
    </contour>
    <contour>
      <point x="214" y="581" type="curve" smooth="yes"/>
      <point x="161" y="581"/>
      <point x="129" y="621"/>
      <point x="129" y="698" type="curve" smooth="yes"/>
      <point x="129" y="774"/>
      <point x="161" y="814"/>
      <point x="214" y="814" type="curve" smooth="yes"/>
      <point x="265" y="814"/>
      <point x="296" y="775"/>
      <point x="296" y="698" type="curve" smooth="yes"/>
      <point x="296" y="620"/>
      <point x="265" y="581"/>
    </contour>
    <contour>
      <point x="179" y="-9" type="curve" smooth="yes"/>
      <point x="700" y="840" type="line" smooth="yes"/>
      <point x="710" y="856"/>
      <point x="705" y="865"/>
      <point x="680" y="880" type="curve" smooth="yes"/>
      <point x="656" y="895"/>
      <point x="644" y="895"/>
      <point x="634" y="880" type="curve" smooth="yes"/>
      <point x="113" y="31" type="line" smooth="yes"/>
      <point x="103" y="15"/>
      <point x="108" y="6"/>
      <point x="133" y="-9" type="curve" smooth="yes"/>
      <point x="156" y="-24"/>
      <point x="169" y="-24"/>
    </contour>
    <contour>
      <point x="606" y="-19" type="curve" smooth="yes"/>
      <point x="699" y="-19"/>
      <point x="773" y="61"/>
      <point x="773" y="174" type="curve" smooth="yes"/>
      <point x="773" y="286"/>
      <point x="701" y="366"/>
      <point x="606" y="366" type="curve" smooth="yes"/>
      <point x="508" y="366"/>
      <point x="438" y="285"/>
      <point x="438" y="174" type="curve" smooth="yes"/>
      <point x="438" y="61"/>
      <point x="513" y="-19"/>
    </contour>
    <contour>
      <point x="606" y="58" type="curve" smooth="yes"/>
      <point x="554" y="58"/>
      <point x="521" y="98"/>
      <point x="521" y="174" type="curve" smooth="yes"/>
      <point x="521" y="250"/>
      <point x="554" y="290"/>
      <point x="606" y="290" type="curve" smooth="yes"/>
      <point x="658" y="290"/>
      <point x="689" y="251"/>
      <point x="689" y="174" type="curve" smooth="yes"/>
      <point x="689" y="96"/>
      <point x="658" y="58"/>
    </contour>
  </outline>
</glyph>
<glyph name="quotesingle" format="2">
	<unicode hex="0027"/>
	<advance width="135"/>
	<outline>
		<contour>
			<point x="71" y="518" type="curve" smooth="yes"/>
			<point x="91" y="518"/>
			<point x="95" y="530"/>
			<point x="96" y="543" type="curve" smooth="yes"/>
			<point x="108" y="704" type="line" smooth="yes"/>
			<point x="109" y="721"/>
			<point x="99" y="736"/>
			<point x="71" y="736" type="curve" smooth="yes"/>
			<point x="43" y="736"/>
			<point x="33" y="721"/>
			<point x="34" y="704" type="curve" smooth="yes"/>
			<point x="46" y="543" type="line" smooth="yes"/>
			<point x="47" y="530"/>
			<point x="50" y="518"/>
		</contour>
	</outline>
</glyph>
<glyph name="parenright" format="2">
	<unicode hex="0029"/>
	<advance width="229"/>
	<outline>
		<contour>
			<point x="38" y="-17" type="curve" smooth="yes"/>
			<point x="26" y="-43"/>
			<point x="32" y="-50"/>
			<point x="54" y="-59" type="curve" smooth="yes"/>
			<point x="78" y="-69"/>
			<point x="86" y="-66"/>
			<point x="95" y="-47" type="curve" smooth="yes"/>
			<point x="159" y="88"/>
			<point x="184" y="219"/>
			<point x="184" y="350" type="curve" smooth="yes"/>
			<point x="184" y="481"/>
			<point x="159" y="612"/>
			<point x="95" y="747" type="curve" smooth="yes"/>
			<point x="86" y="766"/>
			<point x="78" y="769"/>
			<point x="54" y="759" type="curve" smooth="yes"/>
			<point x="32" y="750"/>
			<point x="26" y="743"/>
			<point x="38" y="717" type="curve" smooth="yes"/>
			<point x="87" y="612"/>
			<point x="114" y="481"/>
			<point x="114" y="350" type="curve" smooth="yes"/>
			<point x="114" y="219"/>
			<point x="87" y="88"/>
		</contour>
	</outline>
</glyph>
<glyph name="asterisk" format="2">
  <advance width="358"/>
  <unicode hex="002A"/>
  <outline>
    <contour>
      <point x="179" y="504" type="curve" smooth="yes"/>
      <point x="198" y="504"/>
      <point x="206" y="513"/>
      <point x="206" y="525" type="curve" smooth="yes"/>
      <point x="206" y="651" type="line"/>
      <point x="315" y="588" type="line" smooth="yes"/>
      <point x="326" y="581"/>
      <point x="339" y="585"/>
      <point x="348" y="601" type="curve" smooth="yes"/>
      <point x="358" y="618"/>
      <point x="354" y="630"/>
      <point x="343" y="636" type="curve" smooth="yes"/>
      <point x="235" y="699" type="line"/>
      <point x="343" y="761" type="line" smooth="yes"/>
      <point x="354" y="768"/>
      <point x="358" y="780"/>
      <point x="348" y="796" type="curve" smooth="yes"/>
      <point x="339" y="813"/>
      <point x="326" y="816"/>
      <point x="315" y="810" type="curve" smooth="yes"/>
      <point x="206" y="747" type="line"/>
      <point x="206" y="873" type="line" smooth="yes"/>
      <point x="206" y="885"/>
      <point x="198" y="894"/>
      <point x="179" y="894" type="curve" smooth="yes"/>
      <point x="160" y="894"/>
      <point x="151" y="885"/>
      <point x="151" y="873" type="curve" smooth="yes"/>
      <point x="151" y="747" type="line"/>
      <point x="43" y="810" type="line" smooth="yes"/>
      <point x="31" y="816"/>
      <point x="19" y="813"/>
      <point x="10" y="796" type="curve" smooth="yes"/>
      <point x="0" y="780"/>
      <point x="4" y="768"/>
      <point x="15" y="761" type="curve" smooth="yes"/>
      <point x="123" y="699" type="line"/>
      <point x="15" y="636" type="line" smooth="yes"/>
      <point x="4" y="630"/>
      <point x="0" y="618"/>
      <point x="10" y="601" type="curve" smooth="yes"/>
      <point x="19" y="585"/>
      <point x="31" y="581"/>
      <point x="43" y="588" type="curve" smooth="yes"/>
      <point x="151" y="650" type="line"/>
      <point x="151" y="525" type="line" smooth="yes"/>
      <point x="151" y="513"/>
      <point x="160" y="504"/>
    </contour>
  </outline>
</glyph>
<glyph name="hyphen" format="2">
  <advance width="460"/>
  <unicode hex="002D"/>
  <outline>
    <contour>
      <point x="100" y="241" type="curve" smooth="yes"/>
      <point x="360" y="241" type="line" smooth="yes"/>
      <point x="376" y="241"/>
      <point x="382" y="249"/>
      <point x="382" y="273" type="curve" smooth="yes"/>
      <point x="382" y="297"/>
      <point x="376" y="305"/>
      <point x="360" y="305" type="curve" smooth="yes"/>
      <point x="100" y="305" type="line" smooth="yes"/>
      <point x="84" y="305"/>
      <point x="78" y="297"/>
      <point x="78" y="273" type="curve" smooth="yes"/>
      <point x="78" y="249"/>
      <point x="84" y="241"/>
    </contour>
  </outline>
</glyph>
<glyph name="slash" format="2">
  <advance width="258"/>
  <unicode hex="002F"/>
  <outline>
    <contour>
      <point x="22" y="-60" type="curve" smooth="yes"/>
      <point x="45" y="-66"/>
      <point x="58" y="-62"/>
      <point x="62" y="-47" type="curve" smooth="yes"/>
      <point x="264" y="729" type="line" smooth="yes"/>
      <point x="268" y="744"/>
      <point x="258" y="754"/>
      <point x="236" y="760" type="curve" smooth="yes"/>
      <point x="213" y="766"/>
      <point x="200" y="762"/>
      <point x="196" y="747" type="curve" smooth="yes"/>
      <point x="-6" y="-29" type="line" smooth="yes"/>
      <point x="-10" y="-44"/>
      <point x="0" y="-54"/>
    </contour>
  </outline>
</glyph>
<glyph name="zero" format="2">
	<unicode hex="0030"/>
	<advance width="610"/>
	<outline>
		<contour>
			<point x="307" y="-15" type="curve" smooth="yes"/>
			<point x="455" y="-15"/>
			<point x="566" y="97"/>
			<point x="566" y="349" type="curve" smooth="yes"/>
			<point x="566" y="600"/>
			<point x="455" y="712"/>
			<point x="307" y="712" type="curve" smooth="yes"/>
			<point x="155" y="712"/>
			<point x="44" y="600"/>
			<point x="44" y="349" type="curve" smooth="yes"/>
			<point x="44" y="97"/>
			<point x="155" y="-15"/>
		</contour>
		<contour>
			<point x="305" y="53" type="curve" smooth="yes"/>
			<point x="196" y="53"/>
			<point x="119" y="146"/>
			<point x="119" y="349" type="curve" smooth="yes"/>
			<point x="119" y="552"/>
			<point x="196" y="644"/>
			<point x="305" y="644" type="curve" smooth="yes"/>
			<point x="414" y="644"/>
			<point x="491" y="552"/>
			<point x="491" y="349" type="curve" smooth="yes"/>
			<point x="491" y="146"/>
			<point x="414" y="53"/>
		</contour>
	</outline>
</glyph>
<glyph name="one" format="2">
  <advance width="360"/>
  <unicode hex="0031"/>
  <outline>
    <contour>
      <point x="194" y="-11" type="curve" smooth="yes"/>
      <point x="219" y="-11"/>
      <point x="229" y="-3"/>
      <point x="229" y="11" type="curve" smooth="yes"/>
      <point x="229" y="690" type="line" smooth="yes"/>
      <point x="229" y="701"/>
      <point x="222" y="712"/>
      <point x="197" y="712" type="curve" smooth="yes"/>
      <point x="173" y="712"/>
      <point x="166" y="708"/>
      <point x="152" y="694" type="curve" smooth="yes"/>
      <point x="100" y="643"/>
      <point x="66" y="620"/>
      <point x="22" y="591" type="curve" smooth="yes"/>
      <point x="-1" y="576"/>
      <point x="-2" y="566"/>
      <point x="12" y="545" type="curve" smooth="yes"/>
      <point x="26" y="525"/>
      <point x="39" y="528"/>
      <point x="54" y="536" type="curve" smooth="yes"/>
      <point x="85" y="554"/>
      <point x="124" y="583"/>
      <point x="159" y="613" type="curve"/>
      <point x="159" y="11" type="line" smooth="yes"/>
      <point x="159" y="-3"/>
      <point x="169" y="-11"/>
    </contour>
  </outline>
</glyph>
<glyph name="three" format="2">
	<unicode hex="0033"/>
	<advance width="530"/>
	<outline>
		<contour>
			<point x="250" y="-15" type="curve" smooth="yes"/>
			<point x="399" y="-15"/>
			<point x="484" y="66"/>
			<point x="484" y="196" type="curve" smooth="yes"/>
			<point x="484" y="278"/>
			<point x="436" y="354"/>
			<point x="334" y="378" type="curve"/>
			<point x="419" y="405"/>
			<point x="454" y="469"/>
			<point x="454" y="535" type="curve" smooth="yes"/>
			<point x="454" y="651"/>
			<point x="365" y="712"/>
			<point x="253" y="712" type="curve" smooth="yes"/>
			<point x="157" y="712"/>
			<point x="81" y="657"/>
			<point x="51" y="617" type="curve" smooth="yes"/>
			<point x="42" y="605"/>
			<point x="33" y="591"/>
			<point x="53" y="575" type="curve" smooth="yes"/>
			<point x="69" y="562"/>
			<point x="83" y="559"/>
			<point x="98" y="575" type="curve" smooth="yes"/>
			<point x="132" y="612"/>
			<point x="176" y="648"/>
			<point x="252" y="648" type="curve" smooth="yes"/>
			<point x="312" y="648"/>
			<point x="382" y="613"/>
			<point x="382" y="533" type="curve" smooth="yes"/>
			<point x="382" y="470"/>
			<point x="338" y="409"/>
			<point x="239" y="409" type="curve" smooth="yes"/>
			<point x="193" y="409" type="line" smooth="yes"/>
			<point x="178" y="409"/>
			<point x="171" y="402"/>
			<point x="171" y="379" type="curve" smooth="yes"/>
			<point x="171" y="357"/>
			<point x="175" y="345"/>
			<point x="193" y="345" type="curve" smooth="yes"/>
			<point x="237" y="345" type="line" smooth="yes"/>
			<point x="343" y="345"/>
			<point x="411" y="281"/>
			<point x="411" y="198" type="curve" smooth="yes"/>
			<point x="411" y="100"/>
			<point x="345" y="49"/>
			<point x="249" y="49" type="curve" smooth="yes"/>
			<point x="176" y="49"/>
			<point x="116" y="87"/>
			<point x="75" y="170" type="curve" smooth="yes"/>
			<point x="67" y="186"/>
			<point x="55" y="186"/>
			<point x="36" y="176" type="curve" smooth="yes"/>
			<point x="13" y="164"/>
			<point x="15" y="151"/>
			<point x="26" y="128" type="curve" smooth="yes"/>
			<point x="74" y="28"/>
			<point x="160" y="-15"/>
		</contour>
	</outline>
</glyph>
<glyph name="four" format="2">
  <advance width="675"/>
  <unicode hex="0034"/>
  <outline>
    <contour>
      <point x="499" y="-14" type="curve" smooth="yes"/>
      <point x="528" y="-14"/>
      <point x="543" y="-5"/>
      <point x="543" y="14" type="curve" smooth="yes"/>
      <point x="543" y="223" type="line"/>
      <point x="630" y="223" type="line" smooth="yes"/>
      <point x="653" y="223"/>
      <point x="658" y="238"/>
      <point x="658" y="265" type="curve" smooth="yes"/>
      <point x="658" y="294"/>
      <point x="649" y="303"/>
      <point x="630" y="303" type="curve" smooth="yes"/>
      <point x="543" y="303" type="line"/>
      <point x="543" y="588" type="line" smooth="yes"/>
      <point x="543" y="606"/>
      <point x="528" y="615"/>
      <point x="499" y="615" type="curve" smooth="yes"/>
      <point x="470" y="615"/>
      <point x="455" y="606"/>
      <point x="455" y="588" type="curve" smooth="yes"/>
      <point x="455" y="303" type="line"/>
      <point x="136" y="303" type="line"/>
      <point x="389" y="846" type="line" smooth="yes"/>
      <point x="404" y="878"/>
      <point x="386" y="890"/>
      <point x="356" y="890" type="curve" smooth="yes"/>
      <point x="324" y="890"/>
      <point x="314" y="883"/>
      <point x="304" y="860" type="curve" smooth="yes"/>
      <point x="36" y="276" type="line" smooth="yes"/>
      <point x="24" y="249"/>
      <point x="43" y="223"/>
      <point x="68" y="223" type="curve" smooth="yes"/>
      <point x="455" y="223" type="line"/>
      <point x="455" y="14" type="line" smooth="yes"/>
      <point x="455" y="-5"/>
      <point x="470" y="-14"/>
    </contour>
  </outline>
</glyph>
<glyph name="six" format="2">
	<unicode hex="0036"/>
	<advance width="570"/>
	<outline>
		<contour>
			<point x="304" y="-15" type="curve" smooth="yes"/>
			<point x="446" y="-15"/>
			<point x="530" y="78"/>
			<point x="530" y="220" type="curve" smooth="yes"/>
			<point x="530" y="357"/>
			<point x="442" y="442"/>
			<point x="315" y="442" type="curve" smooth="yes"/>
			<point x="226" y="442"/>
			<point x="125" y="386"/>
			<point x="94" y="198" type="curve"/>
			<point x="133" y="144" type="line"/>
			<point x="152" y="315"/>
			<point x="238" y="378"/>
			<point x="314" y="378" type="curve" smooth="yes"/>
			<point x="398" y="378"/>
			<point x="457" y="316"/>
			<point x="457" y="219" type="curve" smooth="yes"/>
			<point x="457" y="116"/>
			<point x="401" y="49"/>
			<point x="303" y="49" type="curve" smooth="yes"/>
			<point x="209" y="49"/>
			<point x="134" y="130"/>
			<point x="134" y="266" type="curve" smooth="yes"/>
			<point x="134" y="458"/>
			<point x="207" y="595"/>
			<point x="430" y="645" type="curve" smooth="yes"/>
			<point x="455" y="651"/>
			<point x="455" y="658"/>
			<point x="453" y="680" type="curve" smooth="yes"/>
			<point x="450" y="710"/>
			<point x="438" y="711"/>
			<point x="404" y="704" type="curve" smooth="yes"/>
			<point x="176" y="654"/>
			<point x="60" y="498"/>
			<point x="60" y="280" type="curve" smooth="yes"/>
			<point x="60" y="104"/>
			<point x="149" y="-15"/>
		</contour>
	</outline>
</glyph>
<glyph name="seven" format="2">
	<unicode hex="0037"/>
	<advance width="430"/>
	<outline>
		<contour>
			<point x="116" y="-8" type="curve" smooth="yes"/>
			<point x="146" y="-19"/>
			<point x="154" y="-7"/>
			<point x="165" y="20" type="curve" smooth="yes"/>
			<point x="413" y="660" type="line" smooth="yes"/>
			<point x="420" y="679"/>
			<point x="406" y="700"/>
			<point x="387" y="700" type="curve" smooth="yes"/>
			<point x="18" y="700" type="line" smooth="yes"/>
			<point x="0" y="700"/>
			<point x="-4" y="688"/>
			<point x="-4" y="666" type="curve" smooth="yes"/>
			<point x="-4" y="643"/>
			<point x="3" y="636"/>
			<point x="18" y="636" type="curve" smooth="yes"/>
			<point x="331" y="636" type="line"/>
			<point x="96" y="31" type="line" smooth="yes"/>
			<point x="87" y="9"/>
			<point x="91" y="1"/>
		</contour>
	</outline>
</glyph>
<glyph name="greater" format="2">
  <advance width="610"/>
  <unicode hex="003E"/>
  <outline>
    <contour>
      <point x="115" y="160" type="curve" smooth="yes"/>
      <point x="505" y="324" type="line" smooth="yes"/>
      <point x="523" y="332"/>
      <point x="530" y="341"/>
      <point x="530" y="359" type="curve" smooth="yes"/>
      <point x="530" y="377"/>
      <point x="523" y="386"/>
      <point x="505" y="394" type="curve" smooth="yes"/>
      <point x="115" y="558" type="line" smooth="yes"/>
      <point x="91" y="568"/>
      <point x="83" y="563"/>
      <point x="74" y="541" type="curve" smooth="yes"/>
      <point x="64" y="518"/>
      <point x="69" y="507"/>
      <point x="86" y="500" type="curve" smooth="yes"/>
      <point x="425" y="359" type="line"/>
      <point x="86" y="218" type="line" smooth="yes"/>
      <point x="70" y="211"/>
      <point x="65" y="200"/>
      <point x="74" y="177" type="curve" smooth="yes"/>
      <point x="83" y="154"/>
      <point x="92" y="150"/>
    </contour>
  </outline>
</glyph>
<glyph name="question" format="2">
	<unicode hex="003F"/>
	<advance width="398"/>
	<outline>
		<contour>
			<point x="156" y="172" type="curve" smooth="yes"/>
			<point x="179" y="172"/>
			<point x="191" y="179"/>
			<point x="191" y="194" type="curve" smooth="yes"/>
			<point x="191" y="314" type="line"/>
			<point x="288" y="345"/>
			<point x="388" y="413"/>
			<point x="388" y="534" type="curve" smooth="yes"/>
			<point x="388" y="661"/>
			<point x="300" y="712"/>
			<point x="194" y="712" type="curve" smooth="yes"/>
			<point x="134" y="712"/>
			<point x="67" y="681"/>
			<point x="23" y="633" type="curve" smooth="yes"/>
			<point x="10" y="619"/>
			<point x="10" y="605"/>
			<point x="23" y="594" type="curve" smooth="yes"/>
			<point x="38" y="581"/>
			<point x="49" y="578"/>
			<point x="65" y="592" type="curve" smooth="yes"/>
			<point x="90" y="614"/>
			<point x="134" y="648"/>
			<point x="194" y="648" type="curve" smooth="yes"/>
			<point x="275" y="648"/>
			<point x="316" y="608"/>
			<point x="316" y="536" type="curve" smooth="yes"/>
			<point x="316" y="440"/>
			<point x="243" y="388"/>
			<point x="148" y="368" type="curve" smooth="yes"/>
			<point x="130" y="364"/>
			<point x="121" y="359"/>
			<point x="121" y="346" type="curve" smooth="yes"/>
			<point x="121" y="194" type="line" smooth="yes"/>
			<point x="121" y="179"/>
			<point x="133" y="172"/>
		</contour>
		<contour>
			<point x="156" y="-11" type="curve" smooth="yes"/>
			<point x="185" y="-11"/>
			<point x="200" y="5"/>
			<point x="200" y="39" type="curve" smooth="yes"/>
			<point x="200" y="73"/>
			<point x="185" y="90"/>
			<point x="156" y="90" type="curve" smooth="yes"/>
			<point x="126" y="90"/>
			<point x="111" y="73"/>
			<point x="111" y="39" type="curve" smooth="yes"/>
			<point x="111" y="5"/>
			<point x="126" y="-11"/>
		</contour>
	</outline>
</glyph>
<glyph name="at" format="2">
  <advance width="702"/>
  <unicode hex="0040"/>
  <outline>
    <contour>
      <point x="211" y="191" type="curve" smooth="yes"/>
      <point x="211" y="98"/>
      <point x="251" y="43"/>
      <point x="314" y="43" type="curve" smooth="yes"/>
      <point x="357" y="43"/>
      <point x="399" y="80"/>
      <point x="422" y="141" type="curve"/>
      <point x="422" y="133"/>
      <point x="422" y="124"/>
      <point x="422" y="116" type="curve" smooth="yes"/>
      <point x="422" y="72"/>
      <point x="445" y="43"/>
      <point x="488" y="43" type="curve" smooth="yes"/>
      <point x="587" y="43"/>
      <point x="666" y="131"/>
      <point x="666" y="249" type="curve"/>
      <point x="666" y="416"/>
      <point x="549" y="526"/>
      <point x="363" y="526" type="curve" smooth="yes"/>
      <point x="166" y="526"/>
      <point x="48" y="377"/>
      <point x="48" y="204" type="curve" smooth="yes"/>
      <point x="48" y="31"/>
      <point x="156" y="-118"/>
      <point x="355" y="-118" type="curve" smooth="yes"/>
      <point x="420" y="-118"/>
      <point x="485" y="-103"/>
      <point x="536" y="-77" type="curve" smooth="yes"/>
      <point x="546" y="-72"/>
      <point x="549" y="-62"/>
      <point x="541" y="-46" type="curve" smooth="yes"/>
      <point x="534" y="-31"/>
      <point x="524" y="-25"/>
      <point x="514" y="-30" type="curve" smooth="yes"/>
      <point x="467" y="-53"/>
      <point x="412" y="-68"/>
      <point x="355" y="-68" type="curve" smooth="yes"/>
      <point x="182" y="-68"/>
      <point x="101" y="47"/>
      <point x="101" y="204" type="curve" smooth="yes"/>
      <point x="101" y="357"/>
      <point x="190" y="476"/>
      <point x="363" y="476" type="curve" smooth="yes"/>
      <point x="527" y="476"/>
      <point x="613" y="390"/>
      <point x="613" y="245" type="curve" smooth="yes"/>
      <point x="613" y="163"/>
      <point x="569" y="94"/>
      <point x="503" y="94" type="curve" smooth="yes"/>
      <point x="490" y="94"/>
      <point x="485" y="104"/>
      <point x="485" y="123" type="curve" smooth="yes"/>
      <point x="485" y="353" type="line" smooth="yes"/>
      <point x="485" y="365"/>
      <point x="473" y="371"/>
      <point x="453" y="371" type="curve" smooth="yes"/>
      <point x="434" y="371"/>
      <point x="422" y="365"/>
      <point x="422" y="355" type="curve"/>
      <point x="422" y="357" type="line"/>
      <point x="399" y="369"/>
      <point x="376" y="374"/>
      <point x="349" y="374" type="curve" smooth="yes"/>
      <point x="262" y="374"/>
      <point x="211" y="299"/>
    </contour>
    <contour>
      <point x="275" y="192" type="curve" smooth="yes"/>
      <point x="275" y="272"/>
      <point x="305" y="317"/>
      <point x="361" y="317" type="curve" smooth="yes"/>
      <point x="376" y="317"/>
      <point x="399" y="313"/>
      <point x="422" y="302" type="curve"/>
      <point x="422" y="274" type="line"/>
      <point x="405" y="178"/>
      <point x="366" y="102"/>
      <point x="325" y="102" type="curve" smooth="yes"/>
      <point x="287" y="102"/>
      <point x="275" y="139"/>
    </contour>
  </outline>
</glyph>
<glyph name="A" format="2">
	<unicode hex="0041"/>
	<advance width="600"/>
	<outline>
		<contour>
			<point x="49" y="-11" type="curve" smooth="yes"/>
			<point x="72" y="-11"/>
			<point x="79" y="-3"/>
			<point x="87" y="18" type="curve" smooth="yes"/>
			<point x="144" y="175" type="line"/>
			<point x="456" y="175" type="line"/>
			<point x="512" y="18" type="line" smooth="yes"/>
			<point x="520" y="-3"/>
			<point x="527" y="-11"/>
			<point x="551" y="-11" type="curve" smooth="yes"/>
			<point x="579" y="-11"/>
			<point x="591" y="3"/>
			<point x="583" y="25" type="curve" smooth="yes"/>
			<point x="345" y="680" type="line" smooth="yes"/>
			<point x="336" y="705"/>
			<point x="326" y="712"/>
			<point x="301" y="712" type="curve" smooth="yes"/>
			<point x="275" y="712"/>
			<point x="265" y="705"/>
			<point x="256" y="680" type="curve" smooth="yes"/>
			<point x="18" y="25" type="line" smooth="yes"/>
			<point x="10" y="3"/>
			<point x="21" y="-11"/>
		</contour>
		<contour>
			<point x="167" y="239" type="line"/>
			<point x="300" y="607" type="line"/>
			<point x="432" y="239" type="line"/>
		</contour>
	</outline>
	<anchor name="bottom" x="300" y="0"/>
	<anchor name="ogonek" x="574" y="-2"/>
	<anchor name="top" x="300" y="670"/>
</glyph>
<glyph name="B" format="2">
	<unicode hex="0042"/>
	<advance width="580"/>
	<outline>
		<contour>
			<point x="135" y="0" type="curve" smooth="yes"/>
			<point x="277" y="0" type="line" smooth="yes"/>
			<point x="436" y="0"/>
			<point x="540" y="88"/>
			<point x="540" y="217" type="curve" smooth="yes"/>
			<point x="540" y="328"/>
			<point x="448" y="368"/>
			<point x="348" y="370" type="curve"/>
			<point x="348" y="373" type="line"/>
			<point x="416" y="396"/>
			<point x="510" y="451"/>
			<point x="510" y="549" type="curve" smooth="yes"/>
			<point x="510" y="669"/>
			<point x="428" y="700"/>
			<point x="297" y="700" type="curve" smooth="yes"/>
			<point x="136" y="700" type="line" smooth="yes"/>
			<point x="112" y="700"/>
			<point x="100" y="693"/>
			<point x="100" y="678" type="curve" smooth="yes"/>
			<point x="100" y="22" type="line" smooth="yes"/>
			<point x="100" y="7"/>
			<point x="112" y="0"/>
		</contour>
		<contour>
			<point x="170" y="64" type="line"/>
			<point x="170" y="338" type="line"/>
			<point x="287" y="338" type="line" smooth="yes"/>
			<point x="406" y="338"/>
			<point x="468" y="303"/>
			<point x="468" y="216" type="curve" smooth="yes"/>
			<point x="468" y="140"/>
			<point x="414" y="64"/>
			<point x="277" y="64" type="curve" smooth="yes"/>
		</contour>
		<contour>
			<point x="170" y="402" type="line"/>
			<point x="170" y="636" type="line"/>
			<point x="297" y="636" type="line" smooth="yes"/>
			<point x="379" y="636"/>
			<point x="438" y="623"/>
			<point x="438" y="549" type="curve" smooth="yes"/>
			<point x="438" y="463"/>
			<point x="368" y="402"/>
			<point x="277" y="402" type="curve" smooth="yes"/>
		</contour>
	</outline>
	<anchor name="bottom" x="290" y="0"/>
	<anchor name="center" x="136" y="206"/>
	<anchor name="top" x="290" y="670"/>
</glyph>
<glyph name="C" format="2">
	<unicode hex="0043"/>
	<advance width="620"/>
	<outline>
		<contour>
			<point x="341" y="-15" type="curve" smooth="yes"/>
			<point x="440" y="-15"/>
			<point x="531" y="51"/>
			<point x="584" y="144" type="curve" smooth="yes"/>
			<point x="592" y="157"/>
			<point x="590" y="166"/>
			<point x="573" y="177" type="curve" smooth="yes"/>
			<point x="556" y="188"/>
			<point x="545" y="191"/>
			<point x="535" y="177" type="curve" smooth="yes"/>
			<point x="497" y="124"/>
			<point x="434" y="53"/>
			<point x="341" y="53" type="curve" smooth="yes"/>
			<point x="227" y="53"/>
			<point x="140" y="151"/>
			<point x="140" y="339" type="curve" smooth="yes"/>
			<point x="140" y="526"/>
			<point x="237" y="644"/>
			<point x="371" y="644" type="curve" smooth="yes"/>
			<point x="435" y="644"/>
			<point x="484" y="621"/>
			<point x="525" y="580" type="curve" smooth="yes"/>
			<point x="535" y="570"/>
			<point x="547" y="574"/>
			<point x="562" y="587" type="curve" smooth="yes"/>
			<point x="573" y="597"/>
			<point x="580" y="605"/>
			<point x="571" y="618" type="curve" smooth="yes"/>
			<point x="518" y="694"/>
			<point x="444" y="712"/>
			<point x="371" y="712" type="curve" smooth="yes"/>
			<point x="184" y="712"/>
			<point x="65" y="550"/>
			<point x="65" y="339" type="curve" smooth="yes"/>
			<point x="65" y="128"/>
			<point x="174" y="-15"/>
		</contour>
	</outline>
	<anchor name="bottom" x="352" y="0"/>
	<anchor name="top" x="365" y="670"/>
</glyph>
<glyph name="D" format="2">
	<unicode hex="0044"/>
	<advance width="695"/>
	<outline>
		<contour>
			<point x="135" y="0" type="curve" smooth="yes"/>
			<point x="235" y="0" type="line" smooth="yes"/>
			<point x="512" y="0"/>
			<point x="630" y="153"/>
			<point x="630" y="386" type="curve" smooth="yes"/>
			<point x="630" y="548"/>
			<point x="522" y="700"/>
			<point x="280" y="700" type="curve" smooth="yes"/>
			<point x="135" y="700" type="line" smooth="yes"/>
			<point x="112" y="700"/>
			<point x="100" y="693"/>
			<point x="100" y="678" type="curve" smooth="yes"/>
			<point x="100" y="22" type="line" smooth="yes"/>
			<point x="100" y="7"/>
			<point x="112" y="0"/>
		</contour>
		<contour>
			<point x="170" y="68" type="line"/>
			<point x="170" y="632" type="line"/>
			<point x="280" y="632" type="line" smooth="yes"/>
			<point x="459" y="632"/>
			<point x="555" y="524"/>
			<point x="555" y="386" type="curve" smooth="yes"/>
			<point x="555" y="176"/>
			<point x="459" y="68"/>
			<point x="235" y="68" type="curve" smooth="yes"/>
		</contour>
	</outline>
	<anchor name="bottom" x="317" y="0"/>
	<anchor name="center" x="186" y="355"/>
	<anchor name="top" x="326" y="670"/>
</glyph>
<glyph name="E" format="2">
	<unicode hex="0045"/>
	<advance width="530"/>
	<outline>
		<contour>
			<point x="135" y="0" type="curve" smooth="yes"/>
			<point x="478" y="0" type="line" smooth="yes"/>
			<point x="494" y="0"/>
			<point x="500" y="8"/>
			<point x="500" y="32" type="curve" smooth="yes"/>
			<point x="500" y="56"/>
			<point x="494" y="64"/>
			<point x="478" y="64" type="curve" smooth="yes"/>
			<point x="170" y="64" type="line"/>
			<point x="170" y="338" type="line"/>
			<point x="428" y="338" type="line" smooth="yes"/>
			<point x="444" y="338"/>
			<point x="450" y="346"/>
			<point x="450" y="370" type="curve" smooth="yes"/>
			<point x="450" y="394"/>
			<point x="444" y="402"/>
			<point x="428" y="402" type="curve" smooth="yes"/>
			<point x="170" y="402" type="line"/>
			<point x="170" y="636" type="line"/>
			<point x="478" y="636" type="line" smooth="yes"/>
			<point x="494" y="636"/>
			<point x="500" y="644"/>
			<point x="500" y="668" type="curve" smooth="yes"/>
			<point x="500" y="692"/>
			<point x="494" y="700"/>
			<point x="478" y="700" type="curve" smooth="yes"/>
			<point x="135" y="700" type="line" smooth="yes"/>
			<point x="112" y="700"/>
			<point x="100" y="693"/>
			<point x="100" y="678" type="curve" smooth="yes"/>
			<point x="100" y="32" type="line" smooth="yes"/>
			<point x="100" y="10"/>
			<point x="112" y="0"/>
		</contour>
	</outline>
	<anchor name="bottom" x="294" y="0"/>
	<anchor name="ogonek" x="487" y="10"/>
	<anchor name="top" x="309" y="670"/>
</glyph>
<glyph name="F" format="2">
	<unicode hex="0046"/>
	<advance width="500"/>
	<outline>
		<contour>
			<point x="135" y="-11" type="curve"/>
			<point x="158" y="-11"/>
			<point x="170" y="-4"/>
			<point x="170" y="11" type="curve" smooth="yes"/>
			<point x="170" y="318" type="line"/>
			<point x="418" y="318" type="line" smooth="yes"/>
			<point x="434" y="318"/>
			<point x="440" y="326"/>
			<point x="440" y="350" type="curve" smooth="yes"/>
			<point x="440" y="374"/>
			<point x="434" y="382"/>
			<point x="418" y="382" type="curve" smooth="yes"/>
			<point x="170" y="382" type="line"/>
			<point x="170" y="636" type="line"/>
			<point x="468" y="636" type="line" smooth="yes"/>
			<point x="484" y="636"/>
			<point x="490" y="644"/>
			<point x="490" y="668" type="curve" smooth="yes"/>
			<point x="490" y="692"/>
			<point x="484" y="700"/>
			<point x="468" y="700" type="curve" smooth="yes"/>
			<point x="135" y="700" type="line" smooth="yes"/>
			<point x="112" y="700"/>
			<point x="100" y="693"/>
			<point x="100" y="678" type="curve" smooth="yes"/>
			<point x="100" y="11" type="line" smooth="yes"/>
			<point x="100" y="-4"/>
			<point x="112" y="-11"/>
		</contour>
	</outline>
</glyph>
<glyph name="G" format="2">
	<unicode hex="0047"/>
	<advance width="700"/>
	<outline>
		<contour>
			<point x="341" y="-15" type="curve" smooth="yes"/>
			<point x="500" y="-16"/>
			<point x="631" y="85"/>
			<point x="631" y="342" type="curve" smooth="yes"/>
			<point x="631" y="366"/>
			<point x="625" y="374"/>
			<point x="609" y="374" type="curve" smooth="yes"/>
			<point x="378" y="374" type="line" smooth="yes"/>
			<point x="362" y="374"/>
			<point x="356" y="366"/>
			<point x="356" y="342" type="curve" smooth="yes"/>
			<point x="356" y="318"/>
			<point x="362" y="310"/>
			<point x="378" y="310" type="curve" smooth="yes"/>
			<point x="559" y="310" type="line"/>
			<point x="556" y="129"/>
			<point x="482" y="53"/>
			<point x="341" y="53" type="curve" smooth="yes"/>
			<point x="227" y="53"/>
			<point x="140" y="151"/>
			<point x="140" y="339" type="curve" smooth="yes"/>
			<point x="140" y="526"/>
			<point x="237" y="644"/>
			<point x="371" y="644" type="curve" smooth="yes"/>
			<point x="435" y="644"/>
			<point x="484" y="621"/>
			<point x="525" y="580" type="curve" smooth="yes"/>
			<point x="535" y="570"/>
			<point x="547" y="574"/>
			<point x="562" y="587" type="curve" smooth="yes"/>
			<point x="573" y="597"/>
			<point x="580" y="605"/>
			<point x="571" y="618" type="curve" smooth="yes"/>
			<point x="518" y="694"/>
			<point x="444" y="712"/>
			<point x="371" y="712" type="curve" smooth="yes"/>
			<point x="184" y="712"/>
			<point x="65" y="550"/>
			<point x="65" y="339" type="curve" smooth="yes"/>
			<point x="65" y="128"/>
			<point x="174" y="-14"/>
		</contour>
	</outline>
	<anchor name="bottom" x="350" y="0"/>
	<anchor name="top" x="360" y="670"/>
</glyph>
<glyph name="H" format="2">
  <advance width="888"/>
  <unicode hex="0048"/>
  <anchor x="444" y="0" name="bottom"/>
  <anchor x="444" y="676" name="center"/>
  <anchor x="444" y="838" name="top"/>
  <outline>
    <contour>
      <point x="169" y="-14" type="curve" smooth="yes"/>
      <point x="198" y="-14"/>
      <point x="213" y="-5"/>
      <point x="213" y="14" type="curve" smooth="yes"/>
      <point x="213" y="419" type="line"/>
      <point x="675" y="419" type="line"/>
      <point x="675" y="14" type="line" smooth="yes"/>
      <point x="675" y="-5"/>
      <point x="690" y="-14"/>
      <point x="719" y="-14" type="curve" smooth="yes"/>
      <point x="748" y="-14"/>
      <point x="763" y="-5"/>
      <point x="763" y="14" type="curve" smooth="yes"/>
      <point x="763" y="863" type="line" smooth="yes"/>
      <point x="763" y="881"/>
      <point x="748" y="890"/>
      <point x="719" y="890" type="curve" smooth="yes"/>
      <point x="690" y="890"/>
      <point x="675" y="881"/>
      <point x="675" y="863" type="curve" smooth="yes"/>
      <point x="675" y="499" type="line"/>
      <point x="213" y="499" type="line"/>
      <point x="213" y="863" type="line" smooth="yes"/>
      <point x="213" y="881"/>
      <point x="198" y="890"/>
      <point x="169" y="890" type="curve" smooth="yes"/>
      <point x="140" y="890"/>
      <point x="125" y="881"/>
      <point x="125" y="863" type="curve" smooth="yes"/>
      <point x="125" y="14" type="line" smooth="yes"/>
      <point x="125" y="-5"/>
      <point x="140" y="-14"/>
    </contour>
  </outline>
</glyph>
<glyph name="I" format="2">
	<unicode hex="0049"/>
	<advance width="270"/>
	<outline>
		<contour>
			<point x="135" y="-11" type="curve" smooth="yes"/>
			<point x="158" y="-11"/>
			<point x="170" y="-4"/>
			<point x="170" y="11" type="curve" smooth="yes"/>
			<point x="170" y="690" type="line" smooth="yes"/>
			<point x="170" y="705"/>
			<point x="158" y="712"/>
			<point x="135" y="712" type="curve" smooth="yes"/>
			<point x="112" y="712"/>
			<point x="100" y="705"/>
			<point x="100" y="690" type="curve" smooth="yes"/>
			<point x="100" y="11" type="line" smooth="yes"/>
			<point x="100" y="-4"/>
			<point x="112" y="-11"/>
		</contour>
	</outline>
	<anchor name="bottom" x="135" y="0"/>
	<anchor name="ogonek" x="150" y="-4"/>
	<anchor name="top" x="135" y="670"/>
</glyph>
<glyph name="J" format="2">
	<unicode hex="004A"/>
	<advance width="520"/>
	<outline>
		<contour>
			<point x="246" y="-15" type="curve" smooth="yes"/>
			<point x="362" y="-15"/>
			<point x="435" y="47"/>
			<point x="435" y="198" type="curve" smooth="yes"/>
			<point x="435" y="690" type="line" smooth="yes"/>
			<point x="435" y="705"/>
			<point x="423" y="712"/>
			<point x="400" y="712" type="curve" smooth="yes"/>
			<point x="377" y="712"/>
			<point x="365" y="705"/>
			<point x="365" y="690" type="curve" smooth="yes"/>
			<point x="365" y="198" type="line" smooth="yes"/>
			<point x="365" y="79"/>
			<point x="319" y="53"/>
			<point x="246" y="53" type="curve" smooth="yes"/>
			<point x="158" y="53"/>
			<point x="118" y="85"/>
			<point x="86" y="148" type="curve" smooth="yes"/>
			<point x="79" y="162"/>
			<point x="68" y="163"/>
			<point x="49" y="154" type="curve" smooth="yes"/>
			<point x="36" y="148"/>
			<point x="25" y="142"/>
			<point x="31" y="125" type="curve" smooth="yes"/>
			<point x="66" y="34"/>
			<point x="148" y="-15"/>
		</contour>
	</outline>
	<anchor name="bottom" x="247" y="0"/>
	<anchor name="top" x="400" y="670"/>
</glyph>
<glyph name="K" format="2">
	<unicode hex="004B"/>
	<advance width="550"/>
	<outline>
		<contour>
			<point x="135" y="-11" type="curve" smooth="yes"/>
			<point x="158" y="-11"/>
			<point x="170" y="-4"/>
			<point x="170" y="11" type="curve" smooth="yes"/>
			<point x="170" y="335" type="line"/>
			<point x="256" y="216"/>
			<point x="366" y="90"/>
			<point x="482" y="-4" type="curve" smooth="yes"/>
			<point x="498" y="-17"/>
			<point x="513" y="-16"/>
			<point x="527" y="-3" type="curve" smooth="yes"/>
			<point x="547" y="17"/>
			<point x="541" y="34"/>
			<point x="529" y="43" type="curve" smooth="yes"/>
			<point x="427" y="125"/>
			<point x="332" y="229"/>
			<point x="222" y="369" type="curve"/>
			<point x="523" y="661" type="line" smooth="yes"/>
			<point x="533" y="671"/>
			<point x="533" y="681"/>
			<point x="518" y="698" type="curve" smooth="yes"/>
			<point x="504" y="713"/>
			<point x="493" y="718"/>
			<point x="480" y="705" type="curve" smooth="yes"/>
			<point x="170" y="406" type="line"/>
			<point x="170" y="690" type="line" smooth="yes"/>
			<point x="170" y="705"/>
			<point x="158" y="712"/>
			<point x="135" y="712" type="curve" smooth="yes"/>
			<point x="112" y="712"/>
			<point x="100" y="705"/>
			<point x="100" y="690" type="curve" smooth="yes"/>
			<point x="100" y="11" type="line" smooth="yes"/>
			<point x="100" y="-4"/>
			<point x="112" y="-11"/>
		</contour>
	</outline>
	<anchor name="bottom" x="305" y="0"/>
	<anchor name="top" x="305" y="670"/>
</glyph>
<glyph name="L" format="2">
  <advance width="625"/>
  <unicode hex="004C"/>
  <anchor x="311" y="450" name="CAT"/>
  <anchor x="375" y="0" name="bottom"/>
  <anchor x="169" y="450" name="center"/>
  <anchor x="169" y="838" name="top"/>
  <anchor x="213" y="875" name="topright"/>
  <outline>
    <contour>
      <point x="169" y="0" type="curve" smooth="yes"/>
      <point x="573" y="0" type="line" smooth="yes"/>
      <point x="593" y="0"/>
      <point x="600" y="10"/>
      <point x="600" y="40" type="curve" smooth="yes"/>
      <point x="600" y="70"/>
      <point x="593" y="80"/>
      <point x="573" y="80" type="curve" smooth="yes"/>
      <point x="213" y="80" type="line"/>
      <point x="213" y="863" type="line" smooth="yes"/>
      <point x="213" y="881"/>
      <point x="198" y="890"/>
      <point x="169" y="890" type="curve" smooth="yes"/>
      <point x="140" y="890"/>
      <point x="125" y="881"/>
      <point x="125" y="863" type="curve" smooth="yes"/>
      <point x="125" y="40" type="line" smooth="yes"/>
      <point x="125" y="13"/>
      <point x="140" y="0"/>
    </contour>
  </outline>
</glyph>
<glyph name="M" format="2">
  <advance width="1050"/>
  <unicode hex="004D"/>
  <anchor x="525" y="0" name="bottom"/>
  <anchor x="525" y="838" name="top"/>
  <outline>
    <contour>
      <point x="169" y="-14" type="curve" smooth="yes"/>
      <point x="198" y="-14"/>
      <point x="213" y="-5"/>
      <point x="213" y="14" type="curve" smooth="yes"/>
      <point x="213" y="694" type="line"/>
      <point x="479" y="229" type="line" smooth="yes"/>
      <point x="489" y="211"/>
      <point x="500" y="209"/>
      <point x="526" y="209" type="curve" smooth="yes"/>
      <point x="551" y="209"/>
      <point x="561" y="214"/>
      <point x="571" y="230" type="curve" smooth="yes"/>
      <point x="838" y="694" type="line"/>
      <point x="838" y="14" type="line" smooth="yes"/>
      <point x="838" y="-5"/>
      <point x="853" y="-14"/>
      <point x="881" y="-14" type="curve" smooth="yes"/>
      <point x="910" y="-14"/>
      <point x="925" y="-5"/>
      <point x="925" y="14" type="curve" smooth="yes"/>
      <point x="925" y="863" type="line" smooth="yes"/>
      <point x="925" y="881"/>
      <point x="910" y="890"/>
      <point x="881" y="890" type="curve" smooth="yes"/>
      <point x="855" y="890"/>
      <point x="846" y="879"/>
      <point x="838" y="863" type="curve" smooth="yes"/>
      <point x="525" y="316" type="line"/>
      <point x="213" y="863" type="line" smooth="yes"/>
      <point x="204" y="879"/>
      <point x="195" y="890"/>
      <point x="169" y="890" type="curve" smooth="yes"/>
      <point x="140" y="890"/>
      <point x="125" y="881"/>
      <point x="125" y="863" type="curve" smooth="yes"/>
      <point x="125" y="14" type="line" smooth="yes"/>
      <point x="125" y="-5"/>
      <point x="140" y="-14"/>
    </contour>
  </outline>
</glyph>
<glyph name="N" format="2">
	<unicode hex="004E"/>
	<advance width="710"/>
	<outline>
		<contour>
			<point x="135" y="-11" type="curve" smooth="yes"/>
			<point x="158" y="-11"/>
			<point x="170" y="-4"/>
			<point x="170" y="11" type="curve" smooth="yes"/>
			<point x="170" y="573" type="line"/>
			<point x="540" y="11" type="line" smooth="yes"/>
			<point x="552" y="-8"/>
			<point x="559" y="-11"/>
			<point x="576" y="-11" type="curve" smooth="yes"/>
			<point x="598" y="-11"/>
			<point x="610" y="-4"/>
			<point x="610" y="11" type="curve" smooth="yes"/>
			<point x="610" y="690" type="line" smooth="yes"/>
			<point x="610" y="705"/>
			<point x="598" y="712"/>
			<point x="575" y="712" type="curve" smooth="yes"/>
			<point x="552" y="712"/>
			<point x="540" y="705"/>
			<point x="540" y="690" type="curve" smooth="yes"/>
			<point x="540" y="137" type="line"/>
			<point x="175" y="690" type="line" smooth="yes"/>
			<point x="165" y="705"/>
			<point x="154" y="712"/>
			<point x="135" y="712" type="curve" smooth="yes"/>
			<point x="112" y="712"/>
			<point x="100" y="705"/>
			<point x="100" y="690" type="curve" smooth="yes"/>
			<point x="100" y="11" type="line" smooth="yes"/>
			<point x="100" y="-4"/>
			<point x="112" y="-11"/>
		</contour>
	</outline>
	<anchor name="bottom" x="355" y="0"/>
	<anchor name="top" x="355" y="670"/>
</glyph>
<glyph name="O" format="2">
  <advance width="740"/>
  <unicode hex="004F"/>
  <anchor x="370" y="0" name="bottom"/>
  <anchor x="370" y="350" name="center"/>
  <anchor x="473" y="5" name="ogonek"/>
  <anchor x="370" y="670" name="top"/>
  <anchor x="454" y="700" name="topright"/>
  <outline>
    <contour>
      <point x="371" y="-15" type="curve" smooth="yes"/>
      <point x="557" y="-15"/>
      <point x="675" y="138"/>
      <point x="675" y="349" type="curve" smooth="yes"/>
      <point x="675" y="560"/>
      <point x="557" y="712"/>
      <point x="371" y="712" type="curve" smooth="yes"/>
      <point x="184" y="712"/>
      <point x="65" y="560"/>
      <point x="65" y="349" type="curve" smooth="yes"/>
      <point x="65" y="138"/>
      <point x="184" y="-15"/>
    </contour>
    <contour>
      <point x="371" y="53" type="curve" smooth="yes"/>
      <point x="237" y="53"/>
      <point x="140" y="161"/>
      <point x="140" y="349" type="curve" smooth="yes"/>
      <point x="140" y="536"/>
      <point x="237" y="644"/>
      <point x="371" y="644" type="curve" smooth="yes"/>
      <point x="504" y="644"/>
      <point x="600" y="536"/>
      <point x="600" y="349" type="curve" smooth="yes"/>
      <point x="600" y="161"/>
      <point x="504" y="53"/>
    </contour>
  </outline>
</glyph>
<glyph name="Q" format="2">
	<unicode hex="0051"/>
	<advance width="740"/>
	<outline>
		<contour>
			<point x="567" y="-139" type="curve" smooth="yes"/>
			<point x="583" y="-126"/>
			<point x="584" y="-111"/>
			<point x="575" y="-97" type="curve" smooth="yes"/>
			<point x="409" y="137" type="line" smooth="yes"/>
			<point x="397" y="153"/>
			<point x="379" y="155"/>
			<point x="365" y="142" type="curve" smooth="yes"/>
			<point x="347" y="128"/>
			<point x="346" y="113"/>
			<point x="355" y="99" type="curve" smooth="yes"/>
			<point x="523" y="-136" type="line" smooth="yes"/>
			<point x="534" y="-150"/>
			<point x="549" y="-151"/>
		</contour>
		<component base="O"/>
	</outline>
	<anchor name="bottom" x="370" y="0"/>
	<anchor name="center" x="370" y="350"/>
	<anchor name="ogonek" x="473" y="5"/>
	<anchor name="top" x="370" y="670"/>
	<anchor name="topright" x="454" y="700"/>
</glyph>
<glyph name="R" format="2">
	<unicode hex="0052"/>
	<advance width="555"/>
	<outline>
		<contour>
			<point x="135" y="-11" type="curve" smooth="yes"/>
			<point x="158" y="-11"/>
			<point x="170" y="-4"/>
			<point x="170" y="11" type="curve" smooth="yes"/>
			<point x="170" y="303" type="line"/>
			<point x="259" y="199"/>
			<point x="366" y="90"/>
			<point x="482" y="-4" type="curve" smooth="yes"/>
			<point x="498" y="-17"/>
			<point x="513" y="-16"/>
			<point x="527" y="-3" type="curve" smooth="yes"/>
			<point x="547" y="17"/>
			<point x="541" y="34"/>
			<point x="529" y="43" type="curve" smooth="yes"/>
			<point x="423" y="127"/>
			<point x="329" y="220"/>
			<point x="247" y="314" type="curve"/>
			<point x="413" y="326"/>
			<point x="510" y="411"/>
			<point x="510" y="530" type="curve" smooth="yes"/>
			<point x="510" y="655"/>
			<point x="434" y="700"/>
			<point x="267" y="700" type="curve" smooth="yes"/>
			<point x="136" y="700" type="line" smooth="yes"/>
			<point x="112" y="700"/>
			<point x="100" y="693"/>
			<point x="100" y="678" type="curve" smooth="yes"/>
			<point x="100" y="11" type="line" smooth="yes"/>
			<point x="100" y="-4"/>
			<point x="112" y="-11"/>
		</contour>
		<contour>
			<point x="170" y="370" type="curve"/>
			<point x="170" y="636" type="line"/>
			<point x="278" y="636" type="line" smooth="yes"/>
			<point x="387" y="636"/>
			<point x="438" y="609"/>
			<point x="438" y="530" type="curve" smooth="yes"/>
			<point x="438" y="424"/>
			<point x="348" y="370"/>
		</contour>
	</outline>
	<anchor name="bottom" x="308" y="0"/>
	<anchor name="top" x="278" y="670"/>
</glyph>
<glyph name="S" format="2">
  <advance width="688"/>
  <unicode hex="0053"/>
  <anchor x="344" y="0" name="bottom"/>
  <anchor x="361" y="838" name="top"/>
  <outline>
    <contour>
      <point x="344" y="-19" type="curve" smooth="yes"/>
      <point x="510" y="-19"/>
      <point x="620" y="66"/>
      <point x="620" y="226" type="curve" smooth="yes"/>
      <point x="620" y="386"/>
      <point x="484" y="445"/>
      <point x="371" y="488" type="curve" smooth="yes"/>
      <point x="263" y="529"/>
      <point x="189" y="569"/>
      <point x="189" y="678" type="curve" smooth="yes"/>
      <point x="189" y="761"/>
      <point x="250" y="805"/>
      <point x="356" y="805" type="curve" smooth="yes"/>
      <point x="440" y="805"/>
      <point x="483" y="778"/>
      <point x="533" y="731" type="curve" smooth="yes"/>
      <point x="546" y="719"/>
      <point x="563" y="729"/>
      <point x="579" y="746" type="curve" smooth="yes"/>
      <point x="593" y="761"/>
      <point x="596" y="774"/>
      <point x="583" y="788" type="curve" smooth="yes"/>
      <point x="519" y="851"/>
      <point x="456" y="890"/>
      <point x="356" y="890" type="curve" smooth="yes"/>
      <point x="205" y="890"/>
      <point x="96" y="810"/>
      <point x="96" y="678" type="curve" smooth="yes"/>
      <point x="96" y="510"/>
      <point x="233" y="443"/>
      <point x="350" y="396" type="curve" smooth="yes"/>
      <point x="458" y="354"/>
      <point x="528" y="318"/>
      <point x="528" y="226" type="curve" smooth="yes"/>
      <point x="528" y="116"/>
      <point x="463" y="66"/>
      <point x="344" y="66" type="curve" smooth="yes"/>
      <point x="240" y="66"/>
      <point x="175" y="118"/>
      <point x="134" y="155" type="curve" smooth="yes"/>
      <point x="109" y="178"/>
      <point x="104" y="174"/>
      <point x="81" y="154" type="curve" smooth="yes"/>
      <point x="61" y="136"/>
      <point x="64" y="125"/>
      <point x="74" y="111" type="curve" smooth="yes"/>
      <point x="133" y="34"/>
      <point x="238" y="-19"/>
    </contour>
  </outline>
</glyph>
<glyph name="T" format="2">
	<unicode hex="0054"/>
	<advance width="552"/>
	<outline>
		<contour>
			<point x="276" y="-12" type="curve" smooth="yes"/>
			<point x="299" y="-12"/>
			<point x="311" y="-5"/>
			<point x="311" y="10" type="curve" smooth="yes"/>
			<point x="311" y="636" type="line"/>
			<point x="518" y="636" type="line" smooth="yes"/>
			<point x="534" y="636"/>
			<point x="540" y="644"/>
			<point x="540" y="668" type="curve" smooth="yes"/>
			<point x="540" y="692"/>
			<point x="534" y="700"/>
			<point x="518" y="700" type="curve" smooth="yes"/>
			<point x="34" y="700" type="line" smooth="yes"/>
			<point x="18" y="700"/>
			<point x="12" y="692"/>
			<point x="12" y="668" type="curve" smooth="yes"/>
			<point x="12" y="644"/>
			<point x="18" y="636"/>
			<point x="34" y="636" type="curve" smooth="yes"/>
			<point x="241" y="636" type="line"/>
			<point x="241" y="10" type="line" smooth="yes"/>
			<point x="241" y="-5"/>
			<point x="253" y="-12"/>
		</contour>
	</outline>
	<anchor name="bottom" x="276" y="0"/>
	<anchor name="center" x="276" y="350"/>
	<anchor name="top" x="276" y="670"/>
</glyph>
<glyph name="U" format="2">
  <advance width="690"/>
  <unicode hex="0055"/>
  <anchor x="345" y="0" name="bottom"/>
  <anchor x="470" y="10" name="ogonek"/>
  <anchor x="345" y="670" name="top"/>
  <anchor x="566" y="710" name="topright"/>
  <outline>
    <contour>
      <point x="347" y="-15" type="curve" smooth="yes"/>
      <point x="498" y="-15"/>
      <point x="590" y="73"/>
      <point x="590" y="218" type="curve" smooth="yes"/>
      <point x="590" y="690" type="line" smooth="yes"/>
      <point x="590" y="705"/>
      <point x="578" y="712"/>
      <point x="555" y="712" type="curve" smooth="yes"/>
      <point x="532" y="712"/>
      <point x="520" y="705"/>
      <point x="520" y="690" type="curve" smooth="yes"/>
      <point x="520" y="218" type="line" smooth="yes"/>
      <point x="520" y="115"/>
      <point x="455" y="53"/>
      <point x="347" y="53" type="curve" smooth="yes"/>
      <point x="237" y="53"/>
      <point x="170" y="115"/>
      <point x="170" y="218" type="curve" smooth="yes"/>
      <point x="170" y="690" type="line" smooth="yes"/>
      <point x="170" y="705"/>
      <point x="158" y="712"/>
      <point x="135" y="712" type="curve" smooth="yes"/>
      <point x="112" y="712"/>
      <point x="100" y="705"/>
      <point x="100" y="690" type="curve" smooth="yes"/>
      <point x="100" y="218" type="line" smooth="yes"/>
      <point x="100" y="73"/>
      <point x="194" y="-15"/>
    </contour>
  </outline>
</glyph>
<glyph name="V" format="2">
  <advance width="725"/>
  <unicode hex="0056"/>
  <outline>
    <contour>
      <point x="361" y="-14" type="curve" smooth="yes"/>
      <point x="394" y="-14"/>
      <point x="406" y="-5"/>
      <point x="418" y="26" type="curve" smooth="yes"/>
      <point x="710" y="845" type="line" smooth="yes"/>
      <point x="716" y="863"/>
      <point x="708" y="876"/>
      <point x="679" y="886" type="curve" smooth="yes"/>
      <point x="653" y="895"/>
      <point x="635" y="893"/>
      <point x="629" y="875" type="curve" smooth="yes"/>
      <point x="363" y="119" type="line"/>
      <point x="96" y="875" type="line" smooth="yes"/>
      <point x="90" y="893"/>
      <point x="73" y="895"/>
      <point x="46" y="886" type="curve" smooth="yes"/>
      <point x="18" y="876"/>
      <point x="9" y="863"/>
      <point x="15" y="845" type="curve" smooth="yes"/>
      <point x="306" y="26" type="line" smooth="yes"/>
      <point x="318" y="-5"/>
      <point x="330" y="-14"/>
    </contour>
  </outline>
</glyph>
<glyph name="X" format="2">
  <advance width="550"/>
  <unicode hex="0058"/>
  <outline>
    <contour>
      <point x="499" y="-1" type="curve" smooth="yes"/>
      <point x="518" y="11"/>
      <point x="521" y="24"/>
      <point x="514" y="36" type="curve" smooth="yes"/>
      <point x="319" y="355" type="line"/>
      <point x="509" y="666" type="line" smooth="yes"/>
      <point x="516" y="678"/>
      <point x="513" y="691"/>
      <point x="494" y="703" type="curve" smooth="yes"/>
      <point x="476" y="714"/>
      <point x="462" y="715"/>
      <point x="453" y="700" type="curve" smooth="yes"/>
      <point x="280" y="418" type="line"/>
      <point x="107" y="700" type="line" smooth="yes"/>
      <point x="97" y="717"/>
      <point x="83" y="716"/>
      <point x="62" y="703" type="curve" smooth="yes"/>
      <point x="43" y="691"/>
      <point x="40" y="678"/>
      <point x="47" y="666" type="curve" smooth="yes"/>
      <point x="236" y="358" type="line"/>
      <point x="38" y="36" type="line" smooth="yes"/>
      <point x="31" y="24"/>
      <point x="30" y="11"/>
      <point x="49" y="-1" type="curve" smooth="yes"/>
      <point x="70" y="-14"/>
      <point x="84" y="-15"/>
      <point x="93" y="0" type="curve" smooth="yes"/>
      <point x="274" y="295" type="line"/>
      <point x="455" y="0" type="line" smooth="yes"/>
      <point x="464" y="-15"/>
      <point x="478" y="-14"/>
    </contour>
  </outline>
</glyph>
<glyph name="Y" format="2">
  <advance width="612"/>
  <unicode hex="0059"/>
  <anchor x="300" y="0" name="bottom"/>
  <anchor x="306" y="838" name="top"/>
  <outline>
    <contour>
      <point x="306" y="-14" type="curve" smooth="yes"/>
      <point x="335" y="-14"/>
      <point x="350" y="-5"/>
      <point x="350" y="14" type="curve" smooth="yes"/>
      <point x="350" y="368" type="line"/>
      <point x="603" y="836" type="line" smooth="yes"/>
      <point x="611" y="853"/>
      <point x="605" y="868"/>
      <point x="578" y="881" type="curve" smooth="yes"/>
      <point x="553" y="894"/>
      <point x="538" y="898"/>
      <point x="525" y="875" type="curve" smooth="yes"/>
      <point x="306" y="464" type="line"/>
      <point x="88" y="875" type="line" smooth="yes"/>
      <point x="76" y="898"/>
      <point x="60" y="894"/>
      <point x="35" y="881" type="curve" smooth="yes"/>
      <point x="8" y="868"/>
      <point x="1" y="853"/>
      <point x="10" y="836" type="curve" smooth="yes"/>
      <point x="263" y="369" type="line"/>
      <point x="263" y="14" type="line" smooth="yes"/>
      <point x="263" y="-5"/>
      <point x="278" y="-14"/>
    </contour>
  </outline>
</glyph>
<glyph name="Z" format="2">
  <advance width="490"/>
  <unicode hex="005A"/>
  <anchor x="245" y="0" name="bottom"/>
  <anchor x="245" y="370" name="center"/>
  <anchor x="245" y="670" name="top"/>
  <outline>
    <contour>
      <point x="36" y="0" type="curve" smooth="yes"/>
      <point x="460" y="0" type="line" smooth="yes"/>
      <point x="476" y="0"/>
      <point x="482" y="8"/>
      <point x="482" y="32" type="curve" smooth="yes"/>
      <point x="482" y="56"/>
      <point x="476" y="64"/>
      <point x="460" y="64" type="curve" smooth="yes"/>
      <point x="106" y="64" type="line"/>
      <point x="470" y="654" type="line" smooth="yes"/>
      <point x="481" y="672"/>
      <point x="466" y="700"/>
      <point x="446" y="700" type="curve" smooth="yes"/>
      <point x="58" y="700" type="line" smooth="yes"/>
      <point x="42" y="700"/>
      <point x="36" y="692"/>
      <point x="36" y="668" type="curve" smooth="yes"/>
      <point x="36" y="644"/>
      <point x="42" y="636"/>
      <point x="58" y="636" type="curve" smooth="yes"/>
      <point x="376" y="636" type="line"/>
      <point x="12" y="46" type="line" smooth="yes"/>
      <point x="1" y="28"/>
      <point x="16" y="0"/>
    </contour>
  </outline>
</glyph>
<glyph name="backslash" format="2">
	<unicode hex="005C"/>
	<advance width="258"/>
	<outline>
		<contour>
			<point x="235" y="-60" type="curve" smooth="yes"/>
			<point x="258" y="-55"/>
			<point x="268" y="-45"/>
			<point x="264" y="-30" type="curve" smooth="yes"/>
			<point x="62" y="747" type="line" smooth="yes"/>
			<point x="58" y="762"/>
			<point x="45" y="766"/>
			<point x="23" y="760" type="curve" smooth="yes"/>
			<point x="0" y="755"/>
			<point x="-10" y="745"/>
			<point x="-6" y="730" type="curve" smooth="yes"/>
			<point x="196" y="-47" type="line" smooth="yes"/>
			<point x="200" y="-62"/>
			<point x="213" y="-66"/>
		</contour>
	</outline>
</glyph>
<glyph name="bracketright" format="2">
  <advance width="300"/>
  <unicode hex="005D"/>
  <outline>
    <contour>
      <point x="27" y="-28" type="curve" smooth="yes"/>
      <point x="27" y="-52"/>
      <point x="33" y="-60"/>
      <point x="49" y="-60" type="curve" smooth="yes"/>
      <point x="165" y="-60" type="line" smooth="yes"/>
      <point x="188" y="-60"/>
      <point x="200" y="-53"/>
      <point x="200" y="-38" type="curve" smooth="yes"/>
      <point x="200" y="738" type="line" smooth="yes"/>
      <point x="200" y="753"/>
      <point x="188" y="760"/>
      <point x="165" y="760" type="curve" smooth="yes"/>
      <point x="49" y="760" type="line" smooth="yes"/>
      <point x="33" y="760"/>
      <point x="27" y="752"/>
      <point x="27" y="728" type="curve" smooth="yes"/>
      <point x="27" y="704"/>
      <point x="33" y="696"/>
      <point x="49" y="696" type="curve" smooth="yes"/>
      <point x="130" y="696" type="line"/>
      <point x="130" y="4" type="line"/>
      <point x="49" y="4" type="line" smooth="yes"/>
      <point x="33" y="4"/>
      <point x="27" y="-4"/>
    </contour>
  </outline>
</glyph>
<glyph name="asciicircum" format="2">
  <advance width="610"/>
  <unicode hex="005E"/>
  <outline>
    <contour>
      <point x="99" y="419" type="line" smooth="yes"/>
      <point x="86" y="398"/>
      <point x="88" y="387"/>
      <point x="107" y="374" type="curve" smooth="yes"/>
      <point x="129" y="359"/>
      <point x="142" y="365"/>
      <point x="153" y="383" type="curve" smooth="yes"/>
      <point x="305" y="629" type="line"/>
      <point x="457" y="383" type="line" smooth="yes"/>
      <point x="467" y="366"/>
      <point x="479" y="359"/>
      <point x="501" y="374" type="curve" smooth="yes"/>
      <point x="520" y="387"/>
      <point x="524" y="398"/>
      <point x="511" y="419" type="curve" smooth="yes"/>
      <point x="343" y="687" type="line" smooth="yes"/>
      <point x="332" y="704"/>
      <point x="323" y="712"/>
      <point x="305" y="712" type="curve" smooth="yes"/>
      <point x="287" y="712"/>
      <point x="278" y="704"/>
      <point x="267" y="687" type="curve" smooth="yes"/>
    </contour>
  </outline>
</glyph>
<glyph name="a" format="2">
	<unicode hex="0061"/>
	<advance width="499"/>
	<outline>
		<contour>
			<point x="181" y="-14" type="curve" smooth="yes"/>
			<point x="244" y="-14"/>
			<point x="299" y="39"/>
			<point x="329" y="132" type="curve"/>
			<point x="329" y="113"/>
			<point x="329" y="93"/>
			<point x="329" y="74" type="curve" smooth="yes"/>
			<point x="329" y="20"/>
			<point x="355" y="-14"/>
			<point x="406" y="-14" type="curve" smooth="yes"/>
			<point x="451" y="-14"/>
			<point x="479" y="25"/>
			<point x="494" y="68" type="curve" smooth="yes"/>
			<point x="499" y="81"/>
			<point x="492" y="90"/>
			<point x="477" y="96" type="curve" smooth="yes"/>
			<point x="462" y="102"/>
			<point x="453" y="98"/>
			<point x="449" y="89" type="curve" smooth="yes"/>
			<point x="435" y="60"/>
			<point x="427" y="49"/>
			<point x="415" y="49" type="curve" smooth="yes"/>
			<point x="402" y="49"/>
			<point x="398" y="57"/>
			<point x="398" y="85" type="curve" smooth="yes"/>
			<point x="398" y="391" type="line" smooth="yes"/>
			<point x="398" y="405"/>
			<point x="386" y="412"/>
			<point x="363" y="412" type="curve" smooth="yes"/>
			<point x="341" y="412"/>
			<point x="329" y="405"/>
			<point x="329" y="393" type="curve"/>
			<point x="329" y="391" type="line"/>
			<point x="297" y="408"/>
			<point x="267" y="415"/>
			<point x="231" y="415" type="curve" smooth="yes"/>
			<point x="114" y="415"/>
			<point x="50" y="318"/>
			<point x="50" y="178" type="curve" smooth="yes"/>
			<point x="50" y="57"/>
			<point x="100" y="-14"/>
		</contour>
		<contour>
			<point x="121" y="179" type="curve" smooth="yes"/>
			<point x="121" y="291"/>
			<point x="164" y="353"/>
			<point x="242" y="353" type="curve" smooth="yes"/>
			<point x="266" y="353"/>
			<point x="296" y="347"/>
			<point x="329" y="329" type="curve"/>
			<point x="329" y="295" type="line"/>
			<point x="306" y="146"/>
			<point x="252" y="50"/>
			<point x="193" y="50" type="curve" smooth="yes"/>
			<point x="139" y="50"/>
			<point x="121" y="105"/>
		</contour>
	</outline>
	<anchor name="bottom" x="225" y="0"/>
	<anchor name="ogonek" x="457" y="10"/>
	<anchor name="top" x="238" y="400"/>
</glyph>
<glyph name="b" format="2">
	<unicode hex="0062"/>
	<advance width="478"/>
	<outline>
		<contour>
			<point x="114" y="-12" type="curve" smooth="yes"/>
			<point x="137" y="-12"/>
			<point x="149" y="-5"/>
			<point x="149" y="9" type="curve" smooth="yes"/>
			<point x="149" y="10" type="line"/>
			<point x="178" y="-6"/>
			<point x="212" y="-14"/>
			<point x="243" y="-14" type="curve" smooth="yes"/>
			<point x="364" y="-14"/>
			<point x="428" y="83"/>
			<point x="428" y="223" type="curve" smooth="yes"/>
			<point x="428" y="344"/>
			<point x="378" y="415"/>
			<point x="295" y="415" type="curve" smooth="yes"/>
			<point x="235" y="415"/>
			<point x="182" y="377"/>
			<point x="149" y="285" type="curve"/>
			<point x="149" y="691" type="line" smooth="yes"/>
			<point x="149" y="705"/>
			<point x="137" y="712"/>
			<point x="114" y="712" type="curve" smooth="yes"/>
			<point x="91" y="712"/>
			<point x="80" y="705"/>
			<point x="80" y="691" type="curve" smooth="yes"/>
			<point x="80" y="9" type="line" smooth="yes"/>
			<point x="80" y="-5"/>
			<point x="91" y="-12"/>
		</contour>
		<contour>
			<point x="149" y="72" type="curve"/>
			<point x="149" y="120" type="line"/>
			<point x="171" y="292"/>
			<point x="227" y="351"/>
			<point x="284" y="351" type="curve" smooth="yes"/>
			<point x="339" y="351"/>
			<point x="357" y="290"/>
			<point x="357" y="222" type="curve" smooth="yes"/>
			<point x="357" y="110"/>
			<point x="313" y="46"/>
			<point x="237" y="46" type="curve" smooth="yes"/>
			<point x="212" y="46"/>
			<point x="182" y="53"/>
		</contour>
	</outline>
	<anchor name="bottom" x="268" y="0"/>
	<anchor name="center" x="268" y="200"/>
	<anchor name="top" x="268" y="400"/>
</glyph>
<glyph name="c" format="2">
	<unicode hex="0063"/>
	<advance width="418"/>
	<outline>
		<contour>
			<point x="222" y="-15" type="curve" smooth="yes"/>
			<point x="294" y="-15"/>
			<point x="348" y="20"/>
			<point x="394" y="89" type="curve" smooth="yes"/>
			<point x="403" y="103"/>
			<point x="399" y="113"/>
			<point x="384" y="125" type="curve" smooth="yes"/>
			<point x="369" y="137"/>
			<point x="355" y="140"/>
			<point x="343" y="124" type="curve" smooth="yes"/>
			<point x="316" y="88"/>
			<point x="289" y="48"/>
			<point x="228" y="49" type="curve" smooth="yes"/>
			<point x="159" y="50"/>
			<point x="121" y="97"/>
			<point x="121" y="190" type="curve" smooth="yes"/>
			<point x="121" y="283"/>
			<point x="165" y="351"/>
			<point x="239" y="351" type="curve" smooth="yes"/>
			<point x="283" y="351"/>
			<point x="307" y="329"/>
			<point x="336" y="305" type="curve" smooth="yes"/>
			<point x="349" y="294"/>
			<point x="361" y="297"/>
			<point x="375" y="311" type="curve" smooth="yes"/>
			<point x="387" y="324"/>
			<point x="391" y="334"/>
			<point x="379" y="349" type="curve" smooth="yes"/>
			<point x="340" y="396"/>
			<point x="285" y="415"/>
			<point x="241" y="415" type="curve" smooth="yes"/>
			<point x="128" y="415"/>
			<point x="50" y="317"/>
			<point x="50" y="187" type="curve" smooth="yes"/>
			<point x="50" y="62"/>
			<point x="118" y="-15"/>
		</contour>
	</outline>
	<anchor name="bottom" x="229" y="0"/>
	<anchor name="top" x="236" y="400"/>
</glyph>
<glyph name="d" format="2">
	<unicode hex="0064"/>
	<advance width="506"/>
	<outline>
		<contour>
			<point x="183" y="-14" type="curve" smooth="yes"/>
			<point x="247" y="-14"/>
			<point x="299" y="32"/>
			<point x="334" y="136" type="curve"/>
			<point x="334" y="118"/>
			<point x="334" y="101"/>
			<point x="334" y="83" type="curve" smooth="yes"/>
			<point x="334" y="18"/>
			<point x="362" y="-14"/>
			<point x="410" y="-14" type="curve" smooth="yes"/>
			<point x="454" y="-14"/>
			<point x="482" y="20"/>
			<point x="500" y="70" type="curve" smooth="yes"/>
			<point x="504" y="80"/>
			<point x="497" y="90"/>
			<point x="482" y="96" type="curve" smooth="yes"/>
			<point x="467" y="102"/>
			<point x="458" y="98"/>
			<point x="455" y="91" type="curve" smooth="yes"/>
			<point x="440" y="60"/>
			<point x="432" y="49"/>
			<point x="421" y="49" type="curve" smooth="yes"/>
			<point x="407" y="49"/>
			<point x="403" y="57"/>
			<point x="403" y="85" type="curve" smooth="yes"/>
			<point x="403" y="691" type="line" smooth="yes"/>
			<point x="403" y="705"/>
			<point x="391" y="712"/>
			<point x="368" y="712" type="curve" smooth="yes"/>
			<point x="345" y="712"/>
			<point x="334" y="705"/>
			<point x="334" y="691" type="curve" smooth="yes"/>
			<point x="334" y="389" type="line"/>
			<point x="302" y="406"/>
			<point x="268" y="415"/>
			<point x="231" y="415" type="curve" smooth="yes"/>
			<point x="114" y="415"/>
			<point x="50" y="318"/>
			<point x="50" y="178" type="curve" smooth="yes"/>
			<point x="50" y="57"/>
			<point x="100" y="-14"/>
		</contour>
		<contour>
			<point x="121" y="179" type="curve" smooth="yes"/>
			<point x="121" y="291"/>
			<point x="164" y="353"/>
			<point x="242" y="353" type="curve" smooth="yes"/>
			<point x="267" y="353"/>
			<point x="299" y="347"/>
			<point x="334" y="327" type="curve"/>
			<point x="334" y="307" type="line"/>
			<point x="306" y="125"/>
			<point x="254" y="50"/>
			<point x="194" y="50" type="curve" smooth="yes"/>
			<point x="139" y="50"/>
			<point x="121" y="111"/>
		</contour>
	</outline>
	<anchor name="bottom" x="222" y="0"/>
	<anchor name="center" x="350" y="558"/>
	<anchor name="top" x="205" y="400"/>
	<anchor name="topright" x="383" y="700"/>
</glyph>
<glyph name="f" format="2">
  <advance width="366"/>
  <unicode hex="0066"/>
  <outline>
    <contour>
      <point x="75" y="-394" type="curve" smooth="yes"/>
      <point x="151" y="-394"/>
      <point x="214" y="-359"/>
      <point x="214" y="-251" type="curve" smooth="yes"/>
      <point x="214" y="420" type="line"/>
      <point x="343" y="420" type="line" smooth="yes"/>
      <point x="358" y="420"/>
      <point x="366" y="433"/>
      <point x="366" y="460" type="curve" smooth="yes"/>
      <point x="366" y="486"/>
      <point x="358" y="500"/>
      <point x="343" y="500" type="curve" smooth="yes"/>
      <point x="214" y="500" type="line"/>
      <point x="214" y="720" type="line" smooth="yes"/>
      <point x="214" y="794"/>
      <point x="245" y="814"/>
      <point x="286" y="814" type="curve" smooth="yes"/>
      <point x="319" y="814"/>
      <point x="339" y="801"/>
      <point x="369" y="780" type="curve" smooth="yes"/>
      <point x="385" y="769"/>
      <point x="399" y="771"/>
      <point x="416" y="789" type="curve" smooth="yes"/>
      <point x="431" y="805"/>
      <point x="438" y="820"/>
      <point x="423" y="835" type="curve" smooth="yes"/>
      <point x="393" y="866"/>
      <point x="349" y="894"/>
      <point x="284" y="894" type="curve" smooth="yes"/>
      <point x="205" y="894"/>
      <point x="128" y="846"/>
      <point x="128" y="726" type="curve" smooth="yes"/>
      <point x="128" y="500" type="line"/>
      <point x="41" y="500" type="line" smooth="yes"/>
      <point x="25" y="500"/>
      <point x="16" y="486"/>
      <point x="16" y="460" type="curve" smooth="yes"/>
      <point x="16" y="433"/>
      <point x="26" y="420"/>
      <point x="43" y="420" type="curve" smooth="yes"/>
      <point x="128" y="420" type="line"/>
      <point x="128" y="-251" type="line" smooth="yes"/>
      <point x="128" y="-290"/>
      <point x="118" y="-319"/>
      <point x="84" y="-319" type="curve" smooth="yes"/>
      <point x="58" y="-319"/>
      <point x="38" y="-304"/>
      <point x="16" y="-281" type="curve" smooth="yes"/>
      <point x="1" y="-265"/>
      <point x="-10" y="-265"/>
      <point x="-30" y="-277" type="curve" smooth="yes"/>
      <point x="-51" y="-291"/>
      <point x="-59" y="-306"/>
      <point x="-50" y="-325" type="curve" smooth="yes"/>
      <point x="-29" y="-367"/>
      <point x="21" y="-394"/>
    </contour>
  </outline>
</glyph>
<glyph name="g" format="2">
	<unicode hex="0067"/>
	<advance width="478"/>
	<outline>
		<contour>
			<point x="243" y="-315" type="curve" smooth="yes"/>
			<point x="349" y="-315"/>
			<point x="403" y="-252"/>
			<point x="403" y="-132" type="curve" smooth="yes"/>
			<point x="403" y="391" type="line" smooth="yes"/>
			<point x="403" y="405"/>
			<point x="391" y="412"/>
			<point x="368" y="412" type="curve" smooth="yes"/>
			<point x="345" y="412"/>
			<point x="334" y="405"/>
			<point x="334" y="391" type="curve" smooth="yes"/>
			<point x="334" y="-127" type="line" smooth="yes"/>
			<point x="334" y="-217"/>
			<point x="310" y="-253"/>
			<point x="247" y="-253" type="curve" smooth="yes"/>
			<point x="201" y="-253"/>
			<point x="164" y="-234"/>
			<point x="128" y="-204" type="curve" smooth="yes"/>
			<point x="111" y="-189"/>
			<point x="101" y="-191"/>
			<point x="85" y="-207" type="curve" smooth="yes"/>
			<point x="67" y="-225"/>
			<point x="71" y="-239"/>
			<point x="84" y="-252" type="curve" smooth="yes"/>
			<point x="117" y="-287"/>
			<point x="181" y="-315"/>
		</contour>
		<contour>
			<point x="183" y="-14" type="curve" smooth="yes"/>
			<point x="272" y="-14"/>
			<point x="335" y="65"/>
			<point x="367" y="280" type="curve"/>
			<point x="342" y="359" type="line"/>
			<point x="318" y="141"/>
			<point x="259" y="50"/>
			<point x="194" y="50" type="curve" smooth="yes"/>
			<point x="139" y="50"/>
			<point x="121" y="111"/>
			<point x="121" y="179" type="curve" smooth="yes"/>
			<point x="121" y="291"/>
			<point x="164" y="353"/>
			<point x="242" y="353" type="curve" smooth="yes"/>
			<point x="273" y="353"/>
			<point x="315" y="346"/>
			<point x="359" y="311" type="curve"/>
			<point x="359" y="375" type="line"/>
			<point x="320" y="400"/>
			<point x="278" y="415"/>
			<point x="231" y="415" type="curve" smooth="yes"/>
			<point x="114" y="415"/>
			<point x="50" y="318"/>
			<point x="50" y="178" type="curve" smooth="yes"/>
			<point x="50" y="57"/>
			<point x="100" y="-14"/>
		</contour>
	</outline>
	<anchor name="top" x="237" y="400"/>
</glyph>
<glyph name="i" format="2">
	<unicode hex="0069"/>
	<advance width="244"/>
	<outline>
		<contour>
			<point x="150" y="-14" type="curve" smooth="yes"/>
			<point x="191" y="-14"/>
			<point x="219" y="18"/>
			<point x="238" y="71" type="curve" smooth="yes"/>
			<point x="242" y="81"/>
			<point x="236" y="91"/>
			<point x="221" y="96" type="curve" smooth="yes"/>
			<point x="206" y="101"/>
			<point x="197" y="98"/>
			<point x="193" y="89" type="curve" smooth="yes"/>
			<point x="179" y="60"/>
			<point x="173" y="49"/>
			<point x="162" y="49" type="curve" smooth="yes"/>
			<point x="148" y="49"/>
			<point x="144" y="57"/>
			<point x="144" y="85" type="curve" smooth="yes"/>
			<point x="144" y="391" type="line" smooth="yes"/>
			<point x="144" y="405"/>
			<point x="132" y="412"/>
			<point x="109" y="412" type="curve" smooth="yes"/>
			<point x="86" y="412"/>
			<point x="75" y="405"/>
			<point x="75" y="391" type="curve" smooth="yes"/>
			<point x="75" y="74" type="line" smooth="yes"/>
			<point x="75" y="16"/>
			<point x="101" y="-14"/>
		</contour>
		<contour>
			<point x="105" y="535" type="curve" smooth="yes"/>
			<point x="134" y="535"/>
			<point x="150" y="551"/>
			<point x="149" y="585" type="curve" smooth="yes"/>
			<point x="149" y="619"/>
			<point x="134" y="636"/>
			<point x="105" y="636" type="curve" smooth="yes"/>
			<point x="75" y="636"/>
			<point x="60" y="619"/>
			<point x="60" y="585" type="curve" smooth="yes"/>
			<point x="60" y="551"/>
			<point x="75" y="535"/>
		</contour>
	</outline>
	<anchor name="bottom" x="153" y="0"/>
	<anchor name="ogonek" x="202" y="0"/>
</glyph>
<glyph name="j" format="2">
	<unicode hex="006A"/>
	<advance width="214"/>
	<outline>
		<contour>
			<point x="45" y="-315" type="curve" smooth="yes"/>
			<point x="93" y="-315"/>
			<point x="140" y="-287"/>
			<point x="140" y="-198" type="curve" smooth="yes"/>
			<point x="140" y="391" type="line" smooth="yes"/>
			<point x="140" y="405"/>
			<point x="128" y="412"/>
			<point x="105" y="412" type="curve" smooth="yes"/>
			<point x="82" y="412"/>
			<point x="71" y="405"/>
			<point x="71" y="391" type="curve" smooth="yes"/>
			<point x="71" y="-201" type="line" smooth="yes"/>
			<point x="71" y="-235"/>
			<point x="65" y="-255"/>
			<point x="42" y="-255" type="curve" smooth="yes"/>
			<point x="21" y="-255"/>
			<point x="4" y="-239"/>
			<point x="-11" y="-221" type="curve" smooth="yes"/>
			<point x="-22" y="-208"/>
			<point x="-34" y="-207"/>
			<point x="-52" y="-220" type="curve" smooth="yes"/>
			<point x="-65" y="-229"/>
			<point x="-74" y="-244"/>
			<point x="-63" y="-259" type="curve" smooth="yes"/>
			<point x="-41" y="-291"/>
			<point x="-1" y="-315"/>
		</contour>
		<contour>
			<point x="105" y="535" type="curve" smooth="yes"/>
			<point x="134" y="535"/>
			<point x="149" y="551"/>
			<point x="149" y="585" type="curve" smooth="yes"/>
			<point x="149" y="619"/>
			<point x="134" y="636"/>
			<point x="105" y="636" type="curve" smooth="yes"/>
			<point x="75" y="636"/>
			<point x="60" y="619"/>
			<point x="60" y="585" type="curve" smooth="yes"/>
			<point x="60" y="551"/>
			<point x="75" y="535"/>
		</contour>
	</outline>
</glyph>
<glyph name="k" format="2">
	<unicode hex="006B"/>
	<advance width="451"/>
	<outline>
		<contour>
			<point x="114" y="-12" type="curve" smooth="yes"/>
			<point x="137" y="-12"/>
			<point x="149" y="-5"/>
			<point x="149" y="9" type="curve" smooth="yes"/>
			<point x="149" y="183" type="line"/>
			<point x="266" y="20"/>
			<point x="300" y="-15"/>
			<point x="356" y="-15" type="curve" smooth="yes"/>
			<point x="386" y="-15"/>
			<point x="427" y="5"/>
			<point x="456" y="64" type="curve" smooth="yes"/>
			<point x="462" y="77"/>
			<point x="460" y="88"/>
			<point x="445" y="96" type="curve" smooth="yes"/>
			<point x="430" y="104"/>
			<point x="421" y="103"/>
			<point x="412" y="89" type="curve" smooth="yes"/>
			<point x="391" y="57"/>
			<point x="380" y="45"/>
			<point x="362" y="45" type="curve" smooth="yes"/>
			<point x="340" y="45"/>
			<point x="315" y="69"/>
			<point x="203" y="227" type="curve"/>
			<point x="377" y="355" type="line" smooth="yes"/>
			<point x="396" y="369"/>
			<point x="392" y="384"/>
			<point x="383" y="396" type="curve" smooth="yes"/>
			<point x="369" y="415"/>
			<point x="355" y="415"/>
			<point x="339" y="403" type="curve" smooth="yes"/>
			<point x="149" y="263" type="line"/>
			<point x="149" y="691" type="line" smooth="yes"/>
			<point x="149" y="705"/>
			<point x="137" y="712"/>
			<point x="114" y="712" type="curve" smooth="yes"/>
			<point x="91" y="712"/>
			<point x="80" y="705"/>
			<point x="80" y="691" type="curve" smooth="yes"/>
			<point x="80" y="9" type="line" smooth="yes"/>
			<point x="80" y="-5"/>
			<point x="91" y="-12"/>
		</contour>
	</outline>
	<anchor name="bottom" x="236" y="0"/>
	<anchor name="top" x="114" y="670"/>
</glyph>
<glyph name="l" format="2">
	<unicode hex="006C"/>
	<advance width="244"/>
	<outline>
		<contour>
			<point x="150" y="-14" type="curve" smooth="yes"/>
			<point x="191" y="-14"/>
			<point x="220" y="18"/>
			<point x="238" y="71" type="curve" smooth="yes"/>
			<point x="242" y="81"/>
			<point x="236" y="91"/>
			<point x="221" y="96" type="curve" smooth="yes"/>
			<point x="206" y="101"/>
			<point x="197" y="98"/>
			<point x="193" y="89" type="curve" smooth="yes"/>
			<point x="180" y="60"/>
			<point x="173" y="49"/>
			<point x="162" y="49" type="curve" smooth="yes"/>
			<point x="148" y="49"/>
			<point x="144" y="57"/>
			<point x="144" y="85" type="curve" smooth="yes"/>
			<point x="144" y="691" type="line" smooth="yes"/>
			<point x="144" y="705"/>
			<point x="132" y="712"/>
			<point x="109" y="712" type="curve" smooth="yes"/>
			<point x="86" y="712"/>
			<point x="75" y="705"/>
			<point x="75" y="691" type="curve" smooth="yes"/>
			<point x="75" y="74" type="line" smooth="yes"/>
			<point x="75" y="16"/>
			<point x="101" y="-14"/>
		</contour>
	</outline>
	<anchor name="bottom" x="158" y="0"/>
	<anchor name="center" x="110" y="350"/>
	<anchor name="top" x="104" y="670"/>
	<anchor name="topright" x="119" y="700"/>
</glyph>
<glyph name="n" format="2">
  <advance width="646"/>
  <unicode hex="006E"/>
  <anchor x="324" y="0" name="bottom"/>
  <anchor x="310" y="500" name="top"/>
  <outline>
    <contour>
      <point x="529" y="-17" type="curve" smooth="yes"/>
      <point x="580" y="-17"/>
      <point x="618" y="23"/>
      <point x="641" y="89" type="curve" smooth="yes"/>
      <point x="646" y="101"/>
      <point x="639" y="113"/>
      <point x="620" y="120" type="curve" smooth="yes"/>
      <point x="601" y="126"/>
      <point x="590" y="123"/>
      <point x="585" y="111" type="curve" smooth="yes"/>
      <point x="568" y="75"/>
      <point x="558" y="61"/>
      <point x="541" y="61" type="curve" smooth="yes"/>
      <point x="526" y="61"/>
      <point x="521" y="71"/>
      <point x="521" y="106" type="curve" smooth="yes"/>
      <point x="521" y="369" type="line" smooth="yes"/>
      <point x="521" y="484"/>
      <point x="459" y="519"/>
      <point x="381" y="519" type="curve" smooth="yes"/>
      <point x="315" y="519"/>
      <point x="231" y="474"/>
      <point x="180" y="318" type="curve"/>
      <point x="180" y="489" type="line" smooth="yes"/>
      <point x="180" y="506"/>
      <point x="165" y="515"/>
      <point x="136" y="515" type="curve" smooth="yes"/>
      <point x="108" y="515"/>
      <point x="94" y="506"/>
      <point x="94" y="489" type="curve" smooth="yes"/>
      <point x="94" y="11" type="line" smooth="yes"/>
      <point x="94" y="-6"/>
      <point x="108" y="-15"/>
      <point x="136" y="-15" type="curve" smooth="yes"/>
      <point x="165" y="-15"/>
      <point x="180" y="-6"/>
      <point x="180" y="11" type="curve" smooth="yes"/>
      <point x="180" y="85" type="line"/>
      <point x="209" y="305"/>
      <point x="276" y="440"/>
      <point x="370" y="440" type="curve" smooth="yes"/>
      <point x="419" y="440"/>
      <point x="435" y="414"/>
      <point x="435" y="359" type="curve" smooth="yes"/>
      <point x="435" y="93" type="line" smooth="yes"/>
      <point x="435" y="20"/>
      <point x="468" y="-17"/>
    </contour>
  </outline>
</glyph>
<glyph name="p" format="2">
	<unicode hex="0070"/>
	<advance width="478"/>
	<outline>
		<contour>
			<point x="114" y="-312" type="curve" smooth="yes"/>
			<point x="137" y="-312"/>
			<point x="149" y="-305"/>
			<point x="149" y="-291" type="curve" smooth="yes"/>
			<point x="149" y="10" type="line"/>
			<point x="179" y="-6"/>
			<point x="209" y="-14"/>
			<point x="238" y="-14" type="curve" smooth="yes"/>
			<point x="365" y="-14"/>
			<point x="428" y="83"/>
			<point x="428" y="223" type="curve" smooth="yes"/>
			<point x="428" y="344"/>
			<point x="378" y="415"/>
			<point x="295" y="415" type="curve" smooth="yes"/>
			<point x="235" y="415"/>
			<point x="184" y="378"/>
			<point x="149" y="283" type="curve"/>
			<point x="149" y="391" type="line" smooth="yes"/>
			<point x="149" y="405"/>
			<point x="137" y="412"/>
			<point x="114" y="412" type="curve" smooth="yes"/>
			<point x="91" y="412"/>
			<point x="80" y="405"/>
			<point x="80" y="391" type="curve" smooth="yes"/>
			<point x="80" y="-291" type="line" smooth="yes"/>
			<point x="80" y="-305"/>
			<point x="91" y="-312"/>
		</contour>
		<contour>
			<point x="149" y="72" type="curve"/>
			<point x="149" y="133" type="line"/>
			<point x="177" y="295"/>
			<point x="227" y="351"/>
			<point x="283" y="351" type="curve" smooth="yes"/>
			<point x="339" y="351"/>
			<point x="357" y="290"/>
			<point x="357" y="222" type="curve" smooth="yes"/>
			<point x="357" y="110"/>
			<point x="313" y="46"/>
			<point x="235" y="46" type="curve" smooth="yes"/>
			<point x="213" y="46"/>
			<point x="181" y="53"/>
		</contour>
	</outline>
</glyph>
<glyph name="q" format="2">
	<unicode hex="0071"/>
	<advance width="478"/>
	<outline>
		<contour>
			<point x="183" y="-14" type="curve" smooth="yes"/>
			<point x="246" y="-14"/>
			<point x="299" y="30"/>
			<point x="334" y="131" type="curve"/>
			<point x="334" y="-291" type="line" smooth="yes"/>
			<point x="334" y="-305"/>
			<point x="345" y="-312"/>
			<point x="368" y="-312" type="curve" smooth="yes"/>
			<point x="391" y="-312"/>
			<point x="403" y="-305"/>
			<point x="403" y="-291" type="curve" smooth="yes"/>
			<point x="403" y="391" type="line" smooth="yes"/>
			<point x="403" y="405"/>
			<point x="391" y="412"/>
			<point x="368" y="412" type="curve" smooth="yes"/>
			<point x="345" y="412"/>
			<point x="334" y="405"/>
			<point x="334" y="393" type="curve" smooth="yes"/>
			<point x="334" y="389" type="line"/>
			<point x="302" y="406"/>
			<point x="268" y="415"/>
			<point x="231" y="415" type="curve" smooth="yes"/>
			<point x="114" y="415"/>
			<point x="50" y="318"/>
			<point x="50" y="178" type="curve" smooth="yes"/>
			<point x="50" y="57"/>
			<point x="100" y="-14"/>
		</contour>
		<contour>
			<point x="121" y="179" type="curve" smooth="yes"/>
			<point x="121" y="291"/>
			<point x="164" y="353"/>
			<point x="242" y="353" type="curve" smooth="yes"/>
			<point x="267" y="353"/>
			<point x="299" y="348"/>
			<point x="334" y="328" type="curve"/>
			<point x="334" y="299" type="line"/>
			<point x="306" y="123"/>
			<point x="253" y="50"/>
			<point x="194" y="50" type="curve" smooth="yes"/>
			<point x="139" y="50"/>
			<point x="121" y="111"/>
		</contour>
	</outline>
</glyph>
<glyph name="r" format="2">
	<unicode hex="0072"/>
	<advance width="363"/>
	<outline>
		<contour>
			<point x="109" y="-12" type="curve" smooth="yes"/>
			<point x="132" y="-12"/>
			<point x="144" y="-5"/>
			<point x="144" y="9" type="curve" smooth="yes"/>
			<point x="144" y="72" type="line"/>
			<point x="161" y="233"/>
			<point x="225" y="352"/>
			<point x="278" y="352" type="curve" smooth="yes"/>
			<point x="293" y="352"/>
			<point x="304" y="346"/>
			<point x="317" y="339" type="curve" smooth="yes"/>
			<point x="328" y="333"/>
			<point x="340" y="335"/>
			<point x="351" y="350" type="curve" smooth="yes"/>
			<point x="360" y="362"/>
			<point x="361" y="375"/>
			<point x="356" y="382" type="curve" smooth="yes"/>
			<point x="343" y="401"/>
			<point x="312" y="415"/>
			<point x="285" y="415" type="curve" smooth="yes"/>
			<point x="241" y="415"/>
			<point x="182" y="372"/>
			<point x="144" y="255" type="curve"/>
			<point x="144" y="391" type="line" smooth="yes"/>
			<point x="144" y="405"/>
			<point x="132" y="412"/>
			<point x="109" y="412" type="curve" smooth="yes"/>
			<point x="86" y="412"/>
			<point x="75" y="405"/>
			<point x="75" y="391" type="curve" smooth="yes"/>
			<point x="75" y="9" type="line" smooth="yes"/>
			<point x="75" y="-5"/>
			<point x="86" y="-12"/>
		</contour>
	</outline>
	<anchor name="bottom" x="104" y="0"/>
	<anchor name="top" x="209" y="400"/>
</glyph>
<glyph name="u" format="2">
  <advance width="647"/>
  <unicode hex="0075"/>
  <anchor x="299" y="0" name="bottom"/>
  <anchor x="578" y="13" name="ogonek"/>
  <anchor x="299" y="500" name="top"/>
  <anchor x="466" y="514" name="topright"/>
  <outline>
    <contour>
      <point x="231" y="-17" type="curve" smooth="yes"/>
      <point x="296" y="-17"/>
      <point x="381" y="34"/>
      <point x="431" y="183" type="curve"/>
      <point x="431" y="98" type="line" smooth="yes"/>
      <point x="431" y="20"/>
      <point x="461" y="-17"/>
      <point x="524" y="-17" type="curve" smooth="yes"/>
      <point x="576" y="-17"/>
      <point x="615" y="23"/>
      <point x="639" y="89" type="curve" smooth="yes"/>
      <point x="644" y="101"/>
      <point x="636" y="113"/>
      <point x="618" y="120" type="curve" smooth="yes"/>
      <point x="599" y="128"/>
      <point x="588" y="123"/>
      <point x="583" y="111" type="curve" smooth="yes"/>
      <point x="565" y="75"/>
      <point x="554" y="61"/>
      <point x="539" y="61" type="curve" smooth="yes"/>
      <point x="521" y="61"/>
      <point x="518" y="71"/>
      <point x="518" y="106" type="curve" smooth="yes"/>
      <point x="518" y="489" type="line" smooth="yes"/>
      <point x="518" y="506"/>
      <point x="503" y="515"/>
      <point x="474" y="515" type="curve" smooth="yes"/>
      <point x="445" y="515"/>
      <point x="431" y="506"/>
      <point x="431" y="489" type="curve" smooth="yes"/>
      <point x="431" y="415" type="line"/>
      <point x="405" y="211"/>
      <point x="338" y="61"/>
      <point x="244" y="61" type="curve" smooth="yes"/>
      <point x="196" y="61"/>
      <point x="180" y="91"/>
      <point x="180" y="155" type="curve" smooth="yes"/>
      <point x="180" y="489" type="line" smooth="yes"/>
      <point x="180" y="506"/>
      <point x="165" y="515"/>
      <point x="136" y="515" type="curve" smooth="yes"/>
      <point x="108" y="515"/>
      <point x="94" y="506"/>
      <point x="94" y="489" type="curve" smooth="yes"/>
      <point x="94" y="145" type="line" smooth="yes"/>
      <point x="94" y="20"/>
      <point x="158" y="-17"/>
    </contour>
  </outline>
</glyph>
<glyph name="w" format="2">
	<unicode hex="0077"/>
	<advance width="643"/>
	<outline>
		<contour>
			<point x="182" y="-12" type="curve" smooth="yes"/>
			<point x="205" y="-12"/>
			<point x="215" y="-3"/>
			<point x="219" y="9" type="curve" smooth="yes"/>
			<point x="321" y="302" type="line"/>
			<point x="425" y="9" type="line" smooth="yes"/>
			<point x="429" y="-3"/>
			<point x="436" y="-12"/>
			<point x="459" y="-12" type="curve" smooth="yes"/>
			<point x="482" y="-12"/>
			<point x="491" y="-4"/>
			<point x="496" y="9" type="curve" smooth="yes"/>
			<point x="623" y="372" type="line" smooth="yes"/>
			<point x="631" y="395"/>
			<point x="619" y="412"/>
			<point x="589" y="412" type="curve" smooth="yes"/>
			<point x="573" y="412"/>
			<point x="563" y="406"/>
			<point x="558" y="391" type="curve" smooth="yes"/>
			<point x="460" y="87" type="line"/>
			<point x="352" y="391" type="line" smooth="yes"/>
			<point x="347" y="406"/>
			<point x="337" y="412"/>
			<point x="321" y="412" type="curve" smooth="yes"/>
			<point x="304" y="412"/>
			<point x="294" y="406"/>
			<point x="289" y="391" type="curve" smooth="yes"/>
			<point x="183" y="87" type="line"/>
			<point x="84" y="391" type="line" smooth="yes"/>
			<point x="79" y="406"/>
			<point x="70" y="412"/>
			<point x="54" y="412" type="curve" smooth="yes"/>
			<point x="24" y="412"/>
			<point x="12" y="393"/>
			<point x="19" y="372" type="curve" smooth="yes"/>
			<point x="145" y="9" type="line" smooth="yes"/>
			<point x="150" y="-4"/>
			<point x="159" y="-12"/>
		</contour>
	</outline>
	<anchor name="bottom" x="322" y="0"/>
	<anchor name="top" x="322" y="400"/>
</glyph>
<glyph name="x" format="2">
	<unicode hex="0078"/>
	<advance width="427"/>
	<outline>
		<contour>
			<point x="389" y="32" type="curve" smooth="yes"/>
			<point x="256" y="200" type="line"/>
			<point x="390" y="369" type="line" smooth="yes"/>
			<point x="409" y="393"/>
			<point x="389" y="412"/>
			<point x="359" y="412" type="curve" smooth="yes"/>
			<point x="347" y="412"/>
			<point x="340" y="408"/>
			<point x="328" y="393" type="curve" smooth="yes"/>
			<point x="216" y="251" type="line"/>
			<point x="106" y="390" type="line" smooth="yes"/>
			<point x="90" y="410"/>
			<point x="81" y="412"/>
			<point x="64" y="412" type="curve" smooth="yes"/>
			<point x="39" y="412"/>
			<point x="17" y="395"/>
			<point x="38" y="368" type="curve" smooth="yes"/>
			<point x="171" y="200" type="line"/>
			<point x="37" y="31" type="line" smooth="yes"/>
			<point x="18" y="7"/>
			<point x="38" y="-12"/>
			<point x="68" y="-12" type="curve" smooth="yes"/>
			<point x="80" y="-12"/>
			<point x="87" y="-8"/>
			<point x="99" y="7" type="curve" smooth="yes"/>
			<point x="211" y="149" type="line"/>
			<point x="321" y="10" type="line" smooth="yes"/>
			<point x="337" y="-10"/>
			<point x="346" y="-12"/>
			<point x="362" y="-12" type="curve" smooth="yes"/>
			<point x="387" y="-12"/>
			<point x="410" y="5"/>
		</contour>
	</outline>
</glyph>
<glyph name="y" format="2">
  <advance width="489"/>
  <unicode hex="0079"/>
  <anchor x="246" y="0" name="bottom"/>
  <anchor x="246" y="400" name="top"/>
  <outline>
    <contour>
      <point x="185" y="-14" type="curve" smooth="yes"/>
      <point x="237" y="-14"/>
      <point x="304" y="29"/>
      <point x="345" y="150" type="curve"/>
      <point x="345" y="-118" type="line" smooth="yes"/>
      <point x="345" y="-217"/>
      <point x="326" y="-253"/>
      <point x="259" y="-253" type="curve" smooth="yes"/>
      <point x="217" y="-253"/>
      <point x="185" y="-239"/>
      <point x="142" y="-208" type="curve" smooth="yes"/>
      <point x="124" y="-195"/>
      <point x="117" y="-197"/>
      <point x="101" y="-211" type="curve" smooth="yes"/>
      <point x="82" y="-228"/>
      <point x="86" y="-241"/>
      <point x="99" y="-254" type="curve" smooth="yes"/>
      <point x="131" y="-286"/>
      <point x="197" y="-315"/>
      <point x="259" y="-315" type="curve" smooth="yes"/>
      <point x="365" y="-315"/>
      <point x="414" y="-252"/>
      <point x="414" y="-120" type="curve" smooth="yes"/>
      <point x="414" y="391" type="line" smooth="yes"/>
      <point x="414" y="405"/>
      <point x="402" y="412"/>
      <point x="379" y="412" type="curve" smooth="yes"/>
      <point x="356" y="412"/>
      <point x="345" y="405"/>
      <point x="345" y="391" type="curve" smooth="yes"/>
      <point x="345" y="330" type="line"/>
      <point x="322" y="167"/>
      <point x="270" y="49"/>
      <point x="195" y="49" type="curve" smooth="yes"/>
      <point x="157" y="49"/>
      <point x="144" y="73"/>
      <point x="144" y="124" type="curve" smooth="yes"/>
      <point x="144" y="391" type="line" smooth="yes"/>
      <point x="144" y="405"/>
      <point x="132" y="412"/>
      <point x="109" y="412" type="curve" smooth="yes"/>
      <point x="86" y="412"/>
      <point x="75" y="405"/>
      <point x="75" y="391" type="curve" smooth="yes"/>
      <point x="75" y="116" type="line" smooth="yes"/>
      <point x="75" y="16"/>
      <point x="126" y="-14"/>
    </contour>
  </outline>
</glyph>
<glyph name="z" format="2">
	<unicode hex="007A"/>
	<advance width="396"/>
	<outline>
		<contour>
			<point x="66" y="0" type="curve" smooth="yes"/>
			<point x="345" y="0" type="line" smooth="yes"/>
			<point x="361" y="0"/>
			<point x="368" y="8"/>
			<point x="368" y="30" type="curve" smooth="yes"/>
			<point x="368" y="55"/>
			<point x="361" y="64"/>
			<point x="345" y="64" type="curve" smooth="yes"/>
			<point x="146" y="64" type="line"/>
			<point x="356" y="361" type="line" smooth="yes"/>
			<point x="367" y="377"/>
			<point x="358" y="400"/>
			<point x="338" y="400" type="curve" smooth="yes"/>
			<point x="75" y="400" type="line" smooth="yes"/>
			<point x="59" y="400"/>
			<point x="51" y="392"/>
			<point x="51" y="368" type="curve" smooth="yes"/>
			<point x="51" y="344"/>
			<point x="59" y="336"/>
			<point x="75" y="336" type="curve" smooth="yes"/>
			<point x="255" y="336" type="line"/>
			<point x="45" y="39" type="line" smooth="yes"/>
			<point x="35" y="25"/>
			<point x="43" y="0"/>
		</contour>
	</outline>
	<anchor name="bottom" x="208" y="0"/>
	<anchor name="center" x="208" y="200"/>
	<anchor name="top" x="200" y="400"/>
</glyph>
<glyph name="bar" format="2">
  <advance width="388"/>
  <unicode hex="007C"/>
  <outline>
    <contour>
      <point x="194" y="-77" type="curve" smooth="yes"/>
      <point x="223" y="-77"/>
      <point x="238" y="-69"/>
      <point x="238" y="-50" type="curve" smooth="yes"/>
      <point x="238" y="925" type="line" smooth="yes"/>
      <point x="238" y="944"/>
      <point x="223" y="953"/>
      <point x="194" y="953" type="curve" smooth="yes"/>
      <point x="165" y="953"/>
      <point x="150" y="944"/>
      <point x="150" y="925" type="curve" smooth="yes"/>
      <point x="150" y="-50" type="line" smooth="yes"/>
      <point x="150" y="-69"/>
      <point x="165" y="-77"/>
    </contour>
  </outline>
</glyph>
<glyph name="braceright" format="2">
  <advance width="329"/>
  <unicode hex="007D"/>
  <outline>
    <contour>
      <point x="61" y="-75" type="curve" smooth="yes"/>
      <point x="166" y="-75"/>
      <point x="254" y="-32"/>
      <point x="254" y="66" type="curve" smooth="yes"/>
      <point x="254" y="155"/>
      <point x="174" y="230"/>
      <point x="174" y="305" type="curve" smooth="yes"/>
      <point x="174" y="353"/>
      <point x="206" y="389"/>
      <point x="266" y="398" type="curve" smooth="yes"/>
      <point x="286" y="401"/>
      <point x="294" y="408"/>
      <point x="294" y="438" type="curve" smooth="yes"/>
      <point x="294" y="468"/>
      <point x="286" y="474"/>
      <point x="266" y="478" type="curve" smooth="yes"/>
      <point x="206" y="486"/>
      <point x="174" y="523"/>
      <point x="174" y="570" type="curve" smooth="yes"/>
      <point x="174" y="645"/>
      <point x="254" y="720"/>
      <point x="254" y="809" type="curve" smooth="yes"/>
      <point x="254" y="908"/>
      <point x="166" y="950"/>
      <point x="61" y="950" type="curve" smooth="yes"/>
      <point x="41" y="950"/>
      <point x="34" y="940"/>
      <point x="34" y="910" type="curve" smooth="yes"/>
      <point x="34" y="880"/>
      <point x="41" y="870"/>
      <point x="61" y="870" type="curve" smooth="yes"/>
      <point x="133" y="870"/>
      <point x="166" y="841"/>
      <point x="166" y="808" type="curve" smooth="yes"/>
      <point x="166" y="729"/>
      <point x="88" y="656"/>
      <point x="88" y="570" type="curve" smooth="yes"/>
      <point x="88" y="511"/>
      <point x="131" y="458"/>
      <point x="200" y="438" type="curve"/>
      <point x="131" y="418"/>
      <point x="88" y="364"/>
      <point x="88" y="305" type="curve" smooth="yes"/>
      <point x="88" y="219"/>
      <point x="166" y="146"/>
      <point x="166" y="68" type="curve" smooth="yes"/>
      <point x="166" y="34"/>
      <point x="133" y="5"/>
      <point x="61" y="5" type="curve" smooth="yes"/>
      <point x="41" y="5"/>
      <point x="34" y="-5"/>
      <point x="34" y="-35" type="curve" smooth="yes"/>
      <point x="34" y="-65"/>
      <point x="41" y="-75"/>
    </contour>
  </outline>
</glyph>
<glyph name="cent" format="2">
  <advance width="530"/>
  <unicode hex="00A2"/>
  <outline>
    <contour>
      <point x="268" y="-19" type="curve" smooth="yes"/>
      <point x="358" y="-19"/>
      <point x="425" y="25"/>
      <point x="483" y="111" type="curve" smooth="yes"/>
      <point x="494" y="129"/>
      <point x="489" y="141"/>
      <point x="470" y="156" type="curve" smooth="yes"/>
      <point x="451" y="171"/>
      <point x="434" y="175"/>
      <point x="419" y="155" type="curve" smooth="yes"/>
      <point x="385" y="110"/>
      <point x="351" y="60"/>
      <point x="275" y="61" type="curve" smooth="yes"/>
      <point x="189" y="63"/>
      <point x="141" y="121"/>
      <point x="141" y="238" type="curve" smooth="yes"/>
      <point x="141" y="354"/>
      <point x="196" y="439"/>
      <point x="289" y="439" type="curve" smooth="yes"/>
      <point x="344" y="439"/>
      <point x="374" y="411"/>
      <point x="410" y="381" type="curve" smooth="yes"/>
      <point x="426" y="368"/>
      <point x="441" y="371"/>
      <point x="459" y="389" type="curve" smooth="yes"/>
      <point x="474" y="405"/>
      <point x="479" y="418"/>
      <point x="464" y="436" type="curve" smooth="yes"/>
      <point x="415" y="495"/>
      <point x="346" y="519"/>
      <point x="291" y="519" type="curve" smooth="yes"/>
      <point x="150" y="519"/>
      <point x="53" y="396"/>
      <point x="53" y="234" type="curve" smooth="yes"/>
      <point x="53" y="78"/>
      <point x="138" y="-19"/>
    </contour>
    <contour>
      <point x="269" y="-150" type="curve" smooth="yes"/>
      <point x="295" y="-150"/>
      <point x="309" y="-141"/>
      <point x="309" y="-122" type="curve" smooth="yes"/>
      <point x="309" y="638" type="line" smooth="yes"/>
      <point x="309" y="656"/>
      <point x="295" y="665"/>
      <point x="269" y="665" type="curve" smooth="yes"/>
      <point x="243" y="665"/>
      <point x="229" y="656"/>
      <point x="229" y="638" type="curve" smooth="yes"/>
      <point x="229" y="-122" type="line" smooth="yes"/>
      <point x="229" y="-141"/>
      <point x="243" y="-150"/>
    </contour>
  </outline>
</glyph>
<glyph name="sterling" format="2">
  <advance width="675"/>
  <unicode hex="00A3"/>
  <outline>
    <contour>
      <point x="61" y="0" type="curve" smooth="yes"/>
      <point x="626" y="0" type="line" smooth="yes"/>
      <point x="649" y="0"/>
      <point x="654" y="15"/>
      <point x="654" y="43" type="curve" smooth="yes"/>
      <point x="654" y="71"/>
      <point x="645" y="80"/>
      <point x="626" y="80" type="curve" smooth="yes"/>
      <point x="275" y="80" type="line"/>
      <point x="275" y="339" type="line"/>
      <point x="481" y="339" type="line" smooth="yes"/>
      <point x="501" y="339"/>
      <point x="509" y="348"/>
      <point x="509" y="378" type="curve" smooth="yes"/>
      <point x="509" y="408"/>
      <point x="501" y="416"/>
      <point x="481" y="416" type="curve" smooth="yes"/>
      <point x="275" y="416" type="line"/>
      <point x="275" y="656" type="line" smooth="yes"/>
      <point x="275" y="756"/>
      <point x="310" y="809"/>
      <point x="396" y="809" type="curve" smooth="yes"/>
      <point x="456" y="809"/>
      <point x="511" y="788"/>
      <point x="561" y="754" type="curve" smooth="yes"/>
      <point x="585" y="738"/>
      <point x="599" y="739"/>
      <point x="618" y="758" type="curve" smooth="yes"/>
      <point x="636" y="778"/>
      <point x="630" y="796"/>
      <point x="616" y="810" type="curve" smooth="yes"/>
      <point x="569" y="854"/>
      <point x="486" y="890"/>
      <point x="393" y="890" type="curve" smooth="yes"/>
      <point x="256" y="890"/>
      <point x="188" y="796"/>
      <point x="188" y="663" type="curve" smooth="yes"/>
      <point x="188" y="416" type="line"/>
      <point x="86" y="416" type="line" smooth="yes"/>
      <point x="66" y="416"/>
      <point x="59" y="408"/>
      <point x="59" y="378" type="curve" smooth="yes"/>
      <point x="59" y="348"/>
      <point x="66" y="339"/>
      <point x="86" y="339" type="curve" smooth="yes"/>
      <point x="188" y="339" type="line"/>
      <point x="188" y="80" type="line"/>
      <point x="61" y="80" type="line" smooth="yes"/>
      <point x="43" y="80"/>
      <point x="34" y="71"/>
      <point x="34" y="43" type="curve" smooth="yes"/>
      <point x="34" y="15"/>
      <point x="39" y="0"/>
    </contour>
  </outline>
</glyph>
<glyph name="section" format="2">
  <advance width="533"/>
  <unicode hex="00A7"/>
  <outline>
    <contour>
      <point x="505" y="188" type="curve" smooth="yes"/>
      <point x="505" y="409"/>
      <point x="152" y="374"/>
      <point x="152" y="537" type="curve" smooth="yes"/>
      <point x="152" y="610"/>
      <point x="192" y="644"/>
      <point x="273" y="644" type="curve" smooth="yes"/>
      <point x="336" y="644"/>
      <point x="390" y="615"/>
      <point x="428" y="580" type="curve" smooth="yes"/>
      <point x="439" y="570"/>
      <point x="451" y="576"/>
      <point x="465" y="589" type="curve" smooth="yes"/>
      <point x="477" y="600"/>
      <point x="481" y="611"/>
      <point x="471" y="622" type="curve" smooth="yes"/>
      <point x="423" y="672"/>
      <point x="351" y="712"/>
      <point x="272" y="712" type="curve" smooth="yes"/>
      <point x="156" y="712"/>
      <point x="78" y="643"/>
      <point x="78" y="537" type="curve" smooth="yes"/>
      <point x="78" y="313"/>
      <point x="431" y="352"/>
      <point x="431" y="188" type="curve" smooth="yes"/>
      <point x="431" y="125"/>
      <point x="391" y="67"/>
      <point x="325" y="34" type="curve"/>
      <point x="379" y="5" type="line"/>
      <point x="451" y="43"/>
      <point x="505" y="109"/>
    </contour>
    <contour>
      <point x="43" y="237" type="curve" smooth="yes"/>
      <point x="43" y="12"/>
      <point x="405" y="49"/>
      <point x="405" y="-118" type="curve" smooth="yes"/>
      <point x="405" y="-206"/>
      <point x="335" y="-247"/>
      <point x="261" y="-247" type="curve" smooth="yes"/>
      <point x="192" y="-247"/>
      <point x="125" y="-214"/>
      <point x="91" y="-181" type="curve" smooth="yes"/>
      <point x="72" y="-162"/>
      <point x="65" y="-166"/>
      <point x="49" y="-181" type="curve" smooth="yes"/>
      <point x="33" y="-195"/>
      <point x="32" y="-205"/>
      <point x="40" y="-216" type="curve" smooth="yes"/>
      <point x="86" y="-280"/>
      <point x="172" y="-315"/>
      <point x="260" y="-315" type="curve" smooth="yes"/>
      <point x="372" y="-315"/>
      <point x="479" y="-243"/>
      <point x="479" y="-118" type="curve" smooth="yes"/>
      <point x="479" y="117"/>
      <point x="117" y="73"/>
      <point x="117" y="237" type="curve" smooth="yes"/>
      <point x="117" y="300"/>
      <point x="157" y="358"/>
      <point x="223" y="391" type="curve"/>
      <point x="169" y="420" type="line"/>
      <point x="97" y="382"/>
      <point x="43" y="316"/>
    </contour>
  </outline>
</glyph>
<glyph name="copyright" format="2">
  <advance width="905"/>
  <unicode hex="00A9"/>
  <outline>
    <contour>
      <point x="453" y="65" type="curve" smooth="yes"/>
      <point x="656" y="65"/>
      <point x="819" y="228"/>
      <point x="819" y="431" type="curve" smooth="yes"/>
      <point x="819" y="635"/>
      <point x="656" y="798"/>
      <point x="453" y="798" type="curve" smooth="yes"/>
      <point x="249" y="798"/>
      <point x="86" y="635"/>
      <point x="86" y="431" type="curve" smooth="yes"/>
      <point x="86" y="228"/>
      <point x="249" y="65"/>
    </contour>
    <contour>
      <point x="453" y="115" type="curve" smooth="yes"/>
      <point x="279" y="115"/>
      <point x="136" y="258"/>
      <point x="136" y="431" type="curve" smooth="yes"/>
      <point x="136" y="605"/>
      <point x="279" y="748"/>
      <point x="453" y="748" type="curve" smooth="yes"/>
      <point x="626" y="748"/>
      <point x="769" y="605"/>
      <point x="769" y="431" type="curve" smooth="yes"/>
      <point x="769" y="258"/>
      <point x="626" y="115"/>
    </contour>
    <contour>
      <point x="444" y="229" type="curve" smooth="yes"/>
      <point x="485" y="229"/>
      <point x="551" y="254"/>
      <point x="590" y="316" type="curve" smooth="yes"/>
      <point x="596" y="325"/>
      <point x="589" y="338"/>
      <point x="578" y="345" type="curve" smooth="yes"/>
      <point x="561" y="356"/>
      <point x="550" y="359"/>
      <point x="540" y="350" type="curve" smooth="yes"/>
      <point x="518" y="330"/>
      <point x="484" y="300"/>
      <point x="444" y="300" type="curve" smooth="yes"/>
      <point x="398" y="300"/>
      <point x="355" y="336"/>
      <point x="355" y="429" type="curve" smooth="yes"/>
      <point x="355" y="519"/>
      <point x="395" y="568"/>
      <point x="459" y="568" type="curve" smooth="yes"/>
      <point x="499" y="568"/>
      <point x="524" y="549"/>
      <point x="544" y="533" type="curve" smooth="yes"/>
      <point x="551" y="526"/>
      <point x="565" y="526"/>
      <point x="579" y="541" type="curve" smooth="yes"/>
      <point x="586" y="550"/>
      <point x="596" y="561"/>
      <point x="585" y="575" type="curve" smooth="yes"/>
      <point x="545" y="626"/>
      <point x="498" y="638"/>
      <point x="456" y="638" type="curve" smooth="yes"/>
      <point x="340" y="638"/>
      <point x="278" y="539"/>
      <point x="278" y="429" type="curve" smooth="yes"/>
      <point x="278" y="319"/>
      <point x="336" y="229"/>
    </contour>
  </outline>
</glyph>
<glyph name="registered" format="2">
  <advance width="683"/>
  <unicode hex="00AE"/>
  <outline>
    <contour>
      <point x="341" y="428" type="curve" smooth="yes"/>
      <point x="498" y="428"/>
      <point x="623" y="553"/>
      <point x="623" y="709" type="curve" smooth="yes"/>
      <point x="623" y="865"/>
      <point x="498" y="990"/>
      <point x="341" y="990" type="curve" smooth="yes"/>
      <point x="185" y="990"/>
      <point x="60" y="865"/>
      <point x="60" y="709" type="curve" smooth="yes"/>
      <point x="60" y="553"/>
      <point x="185" y="428"/>
    </contour>
    <contour>
      <point x="341" y="465" type="curve" smooth="yes"/>
      <point x="208" y="465"/>
      <point x="98" y="575"/>
      <point x="98" y="709" type="curve" smooth="yes"/>
      <point x="98" y="843"/>
      <point x="208" y="953"/>
      <point x="341" y="953" type="curve" smooth="yes"/>
      <point x="475" y="953"/>
      <point x="585" y="843"/>
      <point x="585" y="709" type="curve" smooth="yes"/>
      <point x="585" y="575"/>
      <point x="475" y="465"/>
    </contour>
    <contour>
      <point x="266" y="536" type="curve" smooth="yes"/>
      <point x="291" y="536"/>
      <point x="300" y="544"/>
      <point x="300" y="558" type="curve" smooth="yes"/>
      <point x="300" y="684" type="line"/>
      <point x="336" y="629"/>
      <point x="378" y="585"/>
      <point x="424" y="548" type="curve" smooth="yes"/>
      <point x="441" y="534"/>
      <point x="455" y="536"/>
      <point x="471" y="554" type="curve" smooth="yes"/>
      <point x="488" y="573"/>
      <point x="485" y="585"/>
      <point x="468" y="599" type="curve" smooth="yes"/>
      <point x="431" y="628"/>
      <point x="399" y="658"/>
      <point x="368" y="699" type="curve"/>
      <point x="425" y="714"/>
      <point x="465" y="746"/>
      <point x="465" y="799" type="curve" smooth="yes"/>
      <point x="465" y="868"/>
      <point x="416" y="891"/>
      <point x="333" y="891" type="curve" smooth="yes"/>
      <point x="273" y="891" type="line" smooth="yes"/>
      <point x="248" y="891"/>
      <point x="234" y="884"/>
      <point x="234" y="870" type="curve" smooth="yes"/>
      <point x="234" y="558" type="line" smooth="yes"/>
      <point x="234" y="544"/>
      <point x="243" y="536"/>
    </contour>
    <contour>
      <point x="300" y="744" type="curve"/>
      <point x="300" y="825" type="line"/>
      <point x="350" y="825" type="line" smooth="yes"/>
      <point x="375" y="825"/>
      <point x="398" y="815"/>
      <point x="398" y="793" type="curve" smooth="yes"/>
      <point x="398" y="759"/>
      <point x="358" y="744"/>
    </contour>
  </outline>
</glyph>
<glyph name="degree" format="2">
  <advance width="408"/>
  <unicode hex="00B0"/>
  <outline>
    <contour>
      <point x="204" y="606" type="curve" smooth="yes"/>
      <point x="289" y="606"/>
      <point x="349" y="661"/>
      <point x="349" y="749" type="curve" smooth="yes"/>
      <point x="349" y="835"/>
      <point x="289" y="890"/>
      <point x="204" y="890" type="curve" smooth="yes"/>
      <point x="120" y="890"/>
      <point x="59" y="835"/>
      <point x="59" y="749" type="curve" smooth="yes"/>
      <point x="59" y="661"/>
      <point x="120" y="606"/>
    </contour>
    <contour>
      <point x="204" y="671" type="curve" smooth="yes"/>
      <point x="159" y="671"/>
      <point x="129" y="703"/>
      <point x="129" y="749" type="curve" smooth="yes"/>
      <point x="129" y="794"/>
      <point x="159" y="825"/>
      <point x="204" y="825" type="curve" smooth="yes"/>
      <point x="249" y="825"/>
      <point x="279" y="794"/>
      <point x="279" y="749" type="curve" smooth="yes"/>
      <point x="279" y="703"/>
      <point x="249" y="671"/>
    </contour>
  </outline>
</glyph>
<glyph name="paragraph" format="2">
  <advance width="737"/>
  <unicode hex="00B6"/>
  <outline>
    <contour>
      <point x="345" y="-312" type="curve" smooth="yes"/>
      <point x="368" y="-312"/>
      <point x="380" y="-305"/>
      <point x="380" y="-290" type="curve" smooth="yes"/>
      <point x="380" y="636" type="line"/>
      <point x="489" y="636" type="line"/>
      <point x="489" y="-290" type="line" smooth="yes"/>
      <point x="489" y="-305"/>
      <point x="501" y="-312"/>
      <point x="524" y="-312" type="curve" smooth="yes"/>
      <point x="547" y="-312"/>
      <point x="559" y="-305"/>
      <point x="559" y="-290" type="curve" smooth="yes"/>
      <point x="559" y="636" type="line"/>
      <point x="644" y="636" type="line" smooth="yes"/>
      <point x="660" y="636"/>
      <point x="666" y="644"/>
      <point x="666" y="668" type="curve" smooth="yes"/>
      <point x="666" y="692"/>
      <point x="660" y="700"/>
      <point x="644" y="700" type="curve" smooth="yes"/>
      <point x="310" y="700" type="line"/>
      <point x="310" y="-290" type="line" smooth="yes"/>
      <point x="310" y="-305"/>
      <point x="322" y="-312"/>
    </contour>
    <contour>
      <point x="290" y="211" type="curve" smooth="yes"/>
      <point x="352" y="211" type="line"/>
      <point x="358" y="700" type="line"/>
      <point x="290" y="700" type="line" smooth="yes"/>
      <point x="157" y="700"/>
      <point x="61" y="604"/>
      <point x="61" y="456" type="curve" smooth="yes"/>
      <point x="61" y="306"/>
      <point x="157" y="211"/>
    </contour>
  </outline>
</glyph>
<glyph name="ordmasculine" format="2">
  <advance width="363"/>
  <unicode hex="00BA"/>
  <outline>
    <contour>
      <point x="182" y="388" type="curve" smooth="yes"/>
      <point x="264" y="388"/>
      <point x="327" y="459"/>
      <point x="327" y="558" type="curve" smooth="yes"/>
      <point x="327" y="649"/>
      <point x="265" y="720"/>
      <point x="182" y="720" type="curve" smooth="yes"/>
      <point x="97" y="720"/>
      <point x="36" y="649"/>
      <point x="36" y="554" type="curve" smooth="yes"/>
      <point x="36" y="445"/>
      <point x="100" y="388"/>
    </contour>
    <contour>
      <point x="182" y="447" type="curve" smooth="yes"/>
      <point x="136" y="447"/>
      <point x="101" y="492"/>
      <point x="101" y="554" type="curve" smooth="yes"/>
      <point x="101" y="616"/>
      <point x="136" y="661"/>
      <point x="182" y="661" type="curve" smooth="yes"/>
      <point x="227" y="661"/>
      <point x="262" y="616"/>
      <point x="262" y="558" type="curve" smooth="yes"/>
      <point x="262" y="492"/>
      <point x="227" y="447"/>
    </contour>
  </outline>
</glyph>
<glyph name="AE" format="2">
	<unicode hex="00C6"/>
	<advance width="771"/>
	<outline>
		<contour>
			<point x="719" y="0" type="line" smooth="yes"/>
			<point x="735" y="0"/>
			<point x="741" y="8"/>
			<point x="741" y="32" type="curve" smooth="yes"/>
			<point x="741" y="56"/>
			<point x="735" y="64"/>
			<point x="719" y="64" type="curve" smooth="yes"/>
			<point x="451" y="64" type="line"/>
			<point x="451" y="636" type="line"/>
			<point x="719" y="636" type="line" smooth="yes"/>
			<point x="735" y="636"/>
			<point x="741" y="644"/>
			<point x="741" y="668" type="curve" smooth="yes"/>
			<point x="741" y="692"/>
			<point x="735" y="700"/>
			<point x="719" y="700" type="curve" smooth="yes"/>
			<point x="375" y="700" type="line" smooth="yes"/>
			<point x="345" y="700"/>
			<point x="339" y="696"/>
			<point x="327" y="672" type="curve" smooth="yes"/>
			<point x="12" y="29" type="line" smooth="yes"/>
			<point x="5" y="14"/>
			<point x="12" y="0"/>
			<point x="29" y="-8" type="curve" smooth="yes"/>
			<point x="49" y="-17"/>
			<point x="65" y="-13"/>
			<point x="72" y="1" type="curve" smooth="yes"/>
			<point x="381" y="638" type="line"/>
			<point x="381" y="32" type="line" smooth="yes"/>
			<point x="381" y="10"/>
			<point x="393" y="0"/>
			<point x="416" y="0" type="curve" smooth="yes"/>
		</contour>
		<contour>
			<point x="669" y="318" type="line" smooth="yes"/>
			<point x="685" y="318"/>
			<point x="691" y="326"/>
			<point x="691" y="350" type="curve" smooth="yes"/>
			<point x="691" y="374"/>
			<point x="685" y="382"/>
			<point x="669" y="382" type="curve" smooth="yes"/>
			<point x="224" y="382" type="line"/>
			<point x="209" y="318" type="line"/>
		</contour>
	</outline>
	<anchor name="top" x="515" y="670"/>
</glyph>
<glyph name="multiply" format="2">
	<unicode hex="00D7"/>
	<advance width="610"/>
	<outline>
		<contour>
			<point x="480" y="175" type="curve" smooth="yes"/>
			<point x="491" y="186"/>
			<point x="499" y="205"/>
			<point x="486" y="218" type="curve" smooth="yes"/>
			<point x="173" y="529" type="line" smooth="yes"/>
			<point x="160" y="542"/>
			<point x="142" y="534"/>
			<point x="131" y="523" type="curve" smooth="yes"/>
			<point x="120" y="512"/>
			<point x="113" y="495"/>
			<point x="126" y="482" type="curve" smooth="yes"/>
			<point x="438" y="170" type="line" smooth="yes"/>
			<point x="451" y="157"/>
			<point x="469" y="165"/>
		</contour>
		<contour>
			<point x="131" y="176" type="curve" smooth="yes"/>
			<point x="142" y="165"/>
			<point x="160" y="157"/>
			<point x="173" y="170" type="curve" smooth="yes"/>
			<point x="485" y="482" type="line" smooth="yes"/>
			<point x="498" y="495"/>
			<point x="491" y="512"/>
			<point x="480" y="523" type="curve" smooth="yes"/>
			<point x="469" y="534"/>
			<point x="451" y="542"/>
			<point x="438" y="529" type="curve" smooth="yes"/>
			<point x="126" y="217" type="line" smooth="yes"/>
			<point x="113" y="204"/>
			<point x="120" y="186"/>
		</contour>
	</outline>
</glyph>
<glyph name="germandbls" format="2">
  <advance width="700"/>
  <unicode hex="00DF"/>
  <outline>
    <contour>
      <point x="174" y="-390" type="curve" smooth="yes"/>
      <point x="203" y="-390"/>
      <point x="218" y="-381"/>
      <point x="218" y="-364" type="curve" smooth="yes"/>
      <point x="218" y="561" type="line" smooth="yes"/>
      <point x="218" y="719"/>
      <point x="289" y="814"/>
      <point x="395" y="814" type="curve" smooth="yes"/>
      <point x="483" y="814"/>
      <point x="531" y="769"/>
      <point x="531" y="694" type="curve" smooth="yes"/>
      <point x="531" y="595"/>
      <point x="455" y="523"/>
      <point x="349" y="523" type="curve" smooth="yes"/>
      <point x="335" y="523" type="line" smooth="yes"/>
      <point x="315" y="523"/>
      <point x="308" y="513"/>
      <point x="308" y="483" type="curve" smooth="yes"/>
      <point x="308" y="453"/>
      <point x="315" y="443"/>
      <point x="335" y="443" type="curve" smooth="yes"/>
      <point x="345" y="443" type="line" smooth="yes"/>
      <point x="500" y="443"/>
      <point x="556" y="365"/>
      <point x="556" y="253" type="curve" smooth="yes"/>
      <point x="556" y="134"/>
      <point x="494" y="61"/>
      <point x="393" y="61" type="curve" smooth="yes"/>
      <point x="350" y="61"/>
      <point x="324" y="73"/>
      <point x="306" y="80" type="curve" smooth="yes"/>
      <point x="289" y="88"/>
      <point x="275" y="83"/>
      <point x="264" y="59" type="curve" smooth="yes"/>
      <point x="255" y="39"/>
      <point x="258" y="23"/>
      <point x="271" y="14" type="curve" smooth="yes"/>
      <point x="296" y="-2"/>
      <point x="336" y="-19"/>
      <point x="393" y="-19" type="curve" smooth="yes"/>
      <point x="549" y="-19"/>
      <point x="644" y="84"/>
      <point x="644" y="253" type="curve" smooth="yes"/>
      <point x="644" y="372"/>
      <point x="585" y="463"/>
      <point x="443" y="488" type="curve"/>
      <point x="546" y="513"/>
      <point x="615" y="591"/>
      <point x="615" y="693" type="curve" smooth="yes"/>
      <point x="615" y="818"/>
      <point x="535" y="894"/>
      <point x="395" y="894" type="curve" smooth="yes"/>
      <point x="235" y="894"/>
      <point x="131" y="768"/>
      <point x="131" y="561" type="curve" smooth="yes"/>
      <point x="131" y="-364" type="line" smooth="yes"/>
      <point x="131" y="-381"/>
      <point x="145" y="-390"/>
    </contour>
  </outline>
</glyph>
<glyph name="ae" format="2">
  <advance width="893"/>
  <unicode hex="00E6"/>
  <anchor x="494" y="500" name="top"/>
  <outline>
    <contour>
      <point x="63" y="214" type="curve" smooth="yes"/>
      <point x="63" y="70"/>
      <point x="129" y="-17"/>
      <point x="230" y="-17" type="curve" smooth="yes"/>
      <point x="329" y="-17"/>
      <point x="409" y="66"/>
      <point x="533" y="423" type="curve"/>
      <point x="471" y="438" type="line"/>
      <point x="354" y="133"/>
      <point x="295" y="63"/>
      <point x="238" y="63" type="curve" smooth="yes"/>
      <point x="178" y="63"/>
      <point x="151" y="126"/>
      <point x="151" y="218" type="curve" smooth="yes"/>
      <point x="151" y="345"/>
      <point x="206" y="439"/>
      <point x="323" y="439" type="curve" smooth="yes"/>
      <point x="391" y="439"/>
      <point x="443" y="420"/>
      <point x="504" y="393" type="curve"/>
      <point x="481" y="461" type="line"/>
      <point x="458" y="406"/>
      <point x="431" y="330"/>
      <point x="431" y="229" type="curve" smooth="yes"/>
      <point x="431" y="75"/>
      <point x="514" y="-19"/>
      <point x="639" y="-19" type="curve" smooth="yes"/>
      <point x="726" y="-19"/>
      <point x="794" y="21"/>
      <point x="851" y="108" type="curve" smooth="yes"/>
      <point x="863" y="125"/>
      <point x="858" y="138"/>
      <point x="839" y="153" type="curve" smooth="yes"/>
      <point x="820" y="168"/>
      <point x="803" y="171"/>
      <point x="788" y="151" type="curve" smooth="yes"/>
      <point x="754" y="106"/>
      <point x="723" y="61"/>
      <point x="649" y="61" type="curve" smooth="yes"/>
      <point x="568" y="61"/>
      <point x="520" y="121"/>
      <point x="520" y="238" type="curve" smooth="yes"/>
      <point x="520" y="315"/>
      <point x="539" y="391"/>
      <point x="574" y="466" type="curve"/>
      <point x="494" y="496"/>
      <point x="423" y="519"/>
      <point x="326" y="519" type="curve" smooth="yes"/>
      <point x="141" y="519"/>
      <point x="63" y="376"/>
    </contour>
    <contour>
      <point x="840" y="391" type="curve" smooth="yes"/>
      <point x="840" y="478"/>
      <point x="773" y="519"/>
      <point x="690" y="519" type="curve" smooth="yes"/>
      <point x="628" y="519"/>
      <point x="554" y="499"/>
      <point x="498" y="463" type="curve"/>
      <point x="516" y="384" type="line"/>
      <point x="563" y="423"/>
      <point x="615" y="440"/>
      <point x="675" y="440" type="curve" smooth="yes"/>
      <point x="716" y="440"/>
      <point x="750" y="424"/>
      <point x="750" y="381" type="curve" smooth="yes"/>
      <point x="750" y="300"/>
      <point x="616" y="249"/>
      <point x="475" y="219" type="curve"/>
      <point x="475" y="150" type="line"/>
      <point x="675" y="184"/>
      <point x="840" y="265"/>
    </contour>
  </outline>
</glyph>
<glyph name="eth" format="2">
  <advance width="603"/>
  <unicode hex="00F0"/>
  <outline>
    <contour>
      <point x="294" y="-19" type="curve" smooth="yes"/>
      <point x="426" y="-19"/>
      <point x="539" y="90"/>
      <point x="539" y="296" type="curve" smooth="yes"/>
      <point x="539" y="549"/>
      <point x="435" y="713"/>
      <point x="249" y="886" type="curve" smooth="yes"/>
      <point x="234" y="901"/>
      <point x="218" y="901"/>
      <point x="200" y="885" type="curve" smooth="yes"/>
      <point x="181" y="868"/>
      <point x="179" y="848"/>
      <point x="194" y="834" type="curve" smooth="yes"/>
      <point x="303" y="730"/>
      <point x="382" y="625"/>
      <point x="421" y="496" type="curve"/>
      <point x="381" y="511"/>
      <point x="342" y="519"/>
      <point x="304" y="519" type="curve" smooth="yes"/>
      <point x="170" y="519"/>
      <point x="75" y="408"/>
      <point x="75" y="250" type="curve" smooth="yes"/>
      <point x="75" y="90"/>
      <point x="150" y="-19"/>
    </contour>
    <contour>
      <point x="294" y="61" type="curve" smooth="yes"/>
      <point x="209" y="61"/>
      <point x="164" y="139"/>
      <point x="164" y="250" type="curve" smooth="yes"/>
      <point x="164" y="359"/>
      <point x="216" y="439"/>
      <point x="304" y="439" type="curve" smooth="yes"/>
      <point x="346" y="439"/>
      <point x="392" y="429"/>
      <point x="441" y="410" type="curve"/>
      <point x="447" y="374"/>
      <point x="450" y="336"/>
      <point x="450" y="296" type="curve" smooth="yes"/>
      <point x="450" y="136"/>
      <point x="376" y="61"/>
    </contour>
    <contour>
      <point x="235" y="611" type="curve" smooth="yes"/>
      <point x="510" y="738" type="line" smooth="yes"/>
      <point x="525" y="745"/>
      <point x="529" y="758"/>
      <point x="521" y="776" type="curve" smooth="yes"/>
      <point x="513" y="799"/>
      <point x="499" y="805"/>
      <point x="480" y="796" type="curve" smooth="yes"/>
      <point x="209" y="671" type="line" smooth="yes"/>
      <point x="191" y="664"/>
      <point x="186" y="651"/>
      <point x="194" y="633" type="curve" smooth="yes"/>
      <point x="204" y="610"/>
      <point x="218" y="603"/>
    </contour>
  </outline>
</glyph>
<glyph name="idotless" format="2">
  <advance width="306"/>
  <unicode hex="0131"/>
  <anchor x="191" y="0" name="bottom"/>
  <anchor x="253" y="0" name="ogonek"/>
  <anchor x="130" y="500" name="top"/>
  <outline>
    <contour>
      <point x="186" y="-17" type="curve" smooth="yes"/>
      <point x="245" y="-17"/>
      <point x="275" y="23"/>
      <point x="298" y="89" type="curve" smooth="yes"/>
      <point x="303" y="101"/>
      <point x="295" y="114"/>
      <point x="276" y="120" type="curve" smooth="yes"/>
      <point x="258" y="126"/>
      <point x="246" y="123"/>
      <point x="243" y="114" type="curve" smooth="yes"/>
      <point x="225" y="75"/>
      <point x="216" y="61"/>
      <point x="203" y="61" type="curve" smooth="yes"/>
      <point x="185" y="61"/>
      <point x="180" y="71"/>
      <point x="180" y="106" type="curve" smooth="yes"/>
      <point x="180" y="489" type="line" smooth="yes"/>
      <point x="180" y="506"/>
      <point x="165" y="515"/>
      <point x="136" y="515" type="curve" smooth="yes"/>
      <point x="108" y="515"/>
      <point x="94" y="506"/>
      <point x="94" y="489" type="curve" smooth="yes"/>
      <point x="94" y="93" type="line" smooth="yes"/>
      <point x="94" y="11"/>
      <point x="124" y="-17"/>
    </contour>
  </outline>
</glyph>
<glyph name="Eng" format="2">
  <advance width="710"/>
  <unicode hex="014A"/>
  <outline>
    <contour>
      <point x="610" y="-87" type="curve" smooth="yes"/>
      <point x="610" y="690" type="line" smooth="yes"/>
      <point x="610" y="705"/>
      <point x="598" y="712"/>
      <point x="575" y="712" type="curve" smooth="yes"/>
      <point x="552" y="712"/>
      <point x="540" y="705"/>
      <point x="540" y="690" type="curve" smooth="yes"/>
      <point x="540" y="137" type="line"/>
      <point x="175" y="690" type="line" smooth="yes"/>
      <point x="165" y="705"/>
      <point x="154" y="712"/>
      <point x="135" y="712" type="curve" smooth="yes"/>
      <point x="112" y="712"/>
      <point x="100" y="705"/>
      <point x="100" y="690" type="curve" smooth="yes"/>
      <point x="100" y="11" type="line" smooth="yes"/>
      <point x="100" y="-4"/>
      <point x="112" y="-11"/>
      <point x="135" y="-11" type="curve" smooth="yes"/>
      <point x="158" y="-11"/>
      <point x="170" y="-4"/>
      <point x="170" y="11" type="curve" smooth="yes"/>
      <point x="170" y="573" type="line"/>
      <point x="541" y="9" type="line"/>
      <point x="541" y="-90" type="line" smooth="yes"/>
      <point x="541" y="-124"/>
      <point x="535" y="-144"/>
      <point x="512" y="-144" type="curve" smooth="yes"/>
      <point x="491" y="-144"/>
      <point x="474" y="-128"/>
      <point x="459" y="-110" type="curve" smooth="yes"/>
      <point x="448" y="-97"/>
      <point x="436" y="-96"/>
      <point x="418" y="-109" type="curve" smooth="yes"/>
      <point x="405" y="-118"/>
      <point x="396" y="-133"/>
      <point x="407" y="-148" type="curve" smooth="yes"/>
      <point x="429" y="-180"/>
      <point x="469" y="-204"/>
      <point x="515" y="-204" type="curve" smooth="yes"/>
      <point x="563" y="-204"/>
      <point x="610" y="-176"/>
    </contour>
  </outline>
</glyph>
<glyph name="eng" format="2">
  <advance width="490"/>
  <unicode hex="014B"/>
  <outline>
    <contour>
      <point x="417" y="-87" type="curve" smooth="yes"/>
      <point x="417" y="295" type="line" smooth="yes"/>
      <point x="417" y="387"/>
      <point x="367" y="415"/>
      <point x="305" y="415" type="curve" smooth="yes"/>
      <point x="252" y="415"/>
      <point x="185" y="379"/>
      <point x="144" y="254" type="curve"/>
      <point x="144" y="391" type="line" smooth="yes"/>
      <point x="144" y="405"/>
      <point x="132" y="412"/>
      <point x="109" y="412" type="curve" smooth="yes"/>
      <point x="86" y="412"/>
      <point x="75" y="405"/>
      <point x="75" y="391" type="curve" smooth="yes"/>
      <point x="75" y="9" type="line" smooth="yes"/>
      <point x="75" y="-5"/>
      <point x="86" y="-12"/>
      <point x="109" y="-12" type="curve" smooth="yes"/>
      <point x="132" y="-12"/>
      <point x="144" y="-5"/>
      <point x="144" y="9" type="curve" smooth="yes"/>
      <point x="144" y="68" type="line"/>
      <point x="167" y="244"/>
      <point x="221" y="352"/>
      <point x="296" y="352" type="curve" smooth="yes"/>
      <point x="335" y="352"/>
      <point x="348" y="331"/>
      <point x="348" y="287" type="curve" smooth="yes"/>
      <point x="348" y="-90" type="line" smooth="yes"/>
      <point x="348" y="-124"/>
      <point x="342" y="-144"/>
      <point x="319" y="-144" type="curve" smooth="yes"/>
      <point x="298" y="-144"/>
      <point x="281" y="-128"/>
      <point x="266" y="-110" type="curve" smooth="yes"/>
      <point x="255" y="-97"/>
      <point x="243" y="-96"/>
      <point x="225" y="-109" type="curve" smooth="yes"/>
      <point x="212" y="-118"/>
      <point x="203" y="-133"/>
      <point x="214" y="-148" type="curve" smooth="yes"/>
      <point x="236" y="-180"/>
      <point x="276" y="-204"/>
      <point x="322" y="-204" type="curve" smooth="yes"/>
      <point x="370" y="-204"/>
      <point x="417" y="-176"/>
    </contour>
  </outline>
</glyph>
<glyph name="OE" format="2">
	<unicode hex="0152"/>
	<advance width="1002"/>
	<outline>
		<contour>
			<point x="346" y="-15" type="curve" smooth="yes"/>
			<point x="520" y="-15"/>
			<point x="627" y="127"/>
			<point x="627" y="349" type="curve" smooth="yes"/>
			<point x="627" y="570"/>
			<point x="528" y="712"/>
			<point x="350" y="712" type="curve" smooth="yes"/>
			<point x="180" y="712"/>
			<point x="65" y="570"/>
			<point x="65" y="349" type="curve" smooth="yes"/>
			<point x="65" y="127"/>
			<point x="176" y="-15"/>
		</contour>
		<contour>
			<point x="346" y="15" type="curve" smooth="yes"/>
			<point x="195" y="15"/>
			<point x="98" y="145"/>
			<point x="98" y="349" type="curve" smooth="yes"/>
			<point x="98" y="553"/>
			<point x="199" y="682"/>
			<point x="350" y="682" type="curve" smooth="yes"/>
			<point x="505" y="682"/>
			<point x="602" y="553"/>
			<point x="602" y="349" type="curve" smooth="yes"/>
			<point x="602" y="145"/>
			<point x="497" y="15"/>
		</contour>
		<contour>
			<point x="617" y="0" type="curve" smooth="yes"/>
			<point x="963" y="0" type="line" smooth="yes"/>
			<point x="968" y="0"/>
			<point x="972" y="4"/>
			<point x="972" y="14" type="curve" smooth="yes"/>
			<point x="972" y="24"/>
			<point x="968" y="28"/>
			<point x="963" y="28" type="curve" smooth="yes"/>
			<point x="632" y="28" type="line"/>
			<point x="632" y="356" type="line"/>
			<point x="913" y="356" type="line" smooth="yes"/>
			<point x="918" y="356"/>
			<point x="922" y="360"/>
			<point x="922" y="370" type="curve" smooth="yes"/>
			<point x="922" y="380"/>
			<point x="918" y="384"/>
			<point x="913" y="384" type="curve" smooth="yes"/>
			<point x="632" y="384" type="line"/>
			<point x="632" y="672" type="line"/>
			<point x="963" y="672" type="line" smooth="yes"/>
			<point x="968" y="672"/>
			<point x="972" y="676"/>
			<point x="972" y="686" type="curve" smooth="yes"/>
			<point x="972" y="696"/>
			<point x="968" y="700"/>
			<point x="963" y="700" type="curve" smooth="yes"/>
			<point x="618" y="700" type="line" smooth="yes"/>
			<point x="607" y="700"/>
			<point x="602" y="697"/>
			<point x="602" y="688" type="curve" smooth="yes"/>
			<point x="602" y="12" type="line" smooth="yes"/>
			<point x="602" y="3"/>
			<point x="606" y="0"/>
		</contour>
	</outline>
	<anchor name="top" x="550" y="670"/>
</glyph>
<glyph name="oe" format="2">
  <advance width="721"/>
  <unicode hex="0153"/>
  <anchor x="386" y="400" name="top"/>
  <outline>
    <contour>
      <point x="236" y="-15" type="curve" smooth="yes"/>
      <point x="337" y="-15"/>
      <point x="411" y="75"/>
      <point x="411" y="204" type="curve" smooth="yes"/>
      <point x="411" y="325"/>
      <point x="337" y="415"/>
      <point x="236" y="415" type="curve" smooth="yes"/>
      <point x="128" y="415"/>
      <point x="50" y="325"/>
      <point x="50" y="200" type="curve" smooth="yes"/>
      <point x="50" y="62"/>
      <point x="128" y="-15"/>
    </contour>
    <contour>
      <point x="236" y="49" type="curve" smooth="yes"/>
      <point x="169" y="49"/>
      <point x="121" y="112"/>
      <point x="121" y="200" type="curve" smooth="yes"/>
      <point x="121" y="288"/>
      <point x="169" y="351"/>
      <point x="236" y="351" type="curve" smooth="yes"/>
      <point x="302" y="351"/>
      <point x="350" y="288"/>
      <point x="350" y="204" type="curve" smooth="yes"/>
      <point x="350" y="112"/>
      <point x="302" y="49"/>
    </contour>
    <contour>
      <point x="517" y="-15" type="curve" smooth="yes"/>
      <point x="587" y="-15"/>
      <point x="641" y="17"/>
      <point x="687" y="86" type="curve" smooth="yes"/>
      <point x="696" y="100"/>
      <point x="692" y="110"/>
      <point x="677" y="122" type="curve" smooth="yes"/>
      <point x="662" y="134"/>
      <point x="648" y="137"/>
      <point x="636" y="121" type="curve" smooth="yes"/>
      <point x="609" y="85"/>
      <point x="584" y="49"/>
      <point x="525" y="49" type="curve" smooth="yes"/>
      <point x="459" y="49"/>
      <point x="421" y="97"/>
      <point x="421" y="190" type="curve" smooth="yes"/>
      <point x="421" y="283"/>
      <point x="475" y="352"/>
      <point x="546" y="352" type="curve" smooth="yes"/>
      <point x="579" y="352"/>
      <point x="606" y="339"/>
      <point x="606" y="305" type="curve" smooth="yes"/>
      <point x="606" y="240"/>
      <point x="499" y="201"/>
      <point x="405" y="180" type="curve"/>
      <point x="409" y="125" type="line"/>
      <point x="546" y="150"/>
      <point x="678" y="212"/>
      <point x="678" y="313" type="curve" smooth="yes"/>
      <point x="678" y="382"/>
      <point x="624" y="415"/>
      <point x="558" y="415" type="curve" smooth="yes"/>
      <point x="432" y="415"/>
      <point x="360" y="305"/>
      <point x="360" y="178" type="curve" smooth="yes"/>
      <point x="360" y="60"/>
      <point x="422" y="-15"/>
    </contour>
  </outline>
</glyph>
<glyph name="Ohorn" format="2">
  <advance width="925"/>
  <unicode hex="01A0"/>
  <anchor x="463" y="0" name="bottom"/>
  <anchor x="463" y="438" name="center"/>
  <anchor x="591" y="6" name="ogonek"/>
  <anchor x="463" y="838" name="top"/>
  <outline>
    <contour>
      <point x="464" y="-19" type="curve" smooth="yes"/>
      <point x="696" y="-19"/>
      <point x="844" y="173"/>
      <point x="844" y="436" type="curve" smooth="yes"/>
      <point x="844" y="608"/>
      <point x="781" y="749"/>
      <point x="673" y="826" type="curve"/>
      <point x="787" y="862"/>
      <point x="808" y="961"/>
      <point x="790" y="1056" type="curve" smooth="yes"/>
      <point x="781" y="1101"/>
      <point x="696" y="1094"/>
      <point x="702" y="1049" type="curve" smooth="yes"/>
      <point x="717" y="948"/>
      <point x="719" y="887"/>
      <point x="571" y="875" type="curve"/>
      <point x="538" y="885"/>
      <point x="501.994" y="890"/>
      <point x="464" y="890" type="curve" smooth="yes"/>
      <point x="230" y="890"/>
      <point x="81" y="700"/>
      <point x="81" y="436" type="curve" smooth="yes"/>
      <point x="81" y="173"/>
      <point x="230" y="-19"/>
    </contour>
    <contour>
      <point x="464" y="66" type="curve" smooth="yes"/>
      <point x="296" y="66"/>
      <point x="175" y="201"/>
      <point x="175" y="436" type="curve" smooth="yes"/>
      <point x="175" y="670"/>
      <point x="296" y="805"/>
      <point x="464" y="805" type="curve" smooth="yes"/>
      <point x="630" y="805"/>
      <point x="750" y="670"/>
      <point x="750" y="436" type="curve" smooth="yes"/>
      <point x="750" y="201"/>
      <point x="630" y="66"/>
    </contour>
  </outline>
</glyph>
<glyph name="uhorn" format="2">
  <advance width="647"/>
  <unicode hex="01B0"/>
  <guideline x="545" y="713" angle="0"/>
  <anchor x="299" y="0" name="bottom"/>
  <anchor x="578" y="13" name="ogonek"/>
  <anchor x="299" y="500" name="top"/>
  <outline>
    <contour>
      <point x="231" y="-17" type="curve" smooth="yes"/>
      <point x="318" y="-17"/>
      <point x="440" y="75"/>
      <point x="468" y="369" type="curve"/>
      <point x="436" y="461" type="line"/>
      <point x="415" y="234"/>
      <point x="345" y="61"/>
      <point x="244" y="61" type="curve" smooth="yes"/>
      <point x="196" y="61"/>
      <point x="180" y="91"/>
      <point x="180" y="155" type="curve" smooth="yes"/>
      <point x="180" y="489" type="line" smooth="yes"/>
      <point x="180" y="506"/>
      <point x="165" y="515"/>
      <point x="136" y="515" type="curve" smooth="yes"/>
      <point x="108" y="515"/>
      <point x="94" y="506"/>
      <point x="94" y="489" type="curve" smooth="yes"/>
      <point x="94" y="145" type="line" smooth="yes"/>
      <point x="94" y="20"/>
      <point x="158" y="-17"/>
    </contour>
    <contour>
      <point x="524" y="-17" type="curve" smooth="yes"/>
      <point x="576" y="-17"/>
      <point x="615" y="23"/>
      <point x="639" y="89" type="curve" smooth="yes"/>
      <point x="644" y="101"/>
      <point x="636" y="113"/>
      <point x="618" y="120" type="curve" smooth="yes"/>
      <point x="599" y="128"/>
      <point x="588" y="123"/>
      <point x="583" y="111" type="curve" smooth="yes"/>
      <point x="565" y="75"/>
      <point x="554" y="61"/>
      <point x="539" y="61" type="curve" smooth="yes"/>
      <point x="521" y="61"/>
      <point x="518" y="71"/>
      <point x="518" y="106" type="curve" smooth="yes"/>
      <point x="518" y="454" type="line"/>
      <point x="667" y="473"/>
      <point x="695" y="579"/>
      <point x="675" y="680" type="curve" smooth="yes"/>
      <point x="665" y="730"/>
      <point x="580" y="723"/>
      <point x="587" y="673" type="curve" smooth="yes"/>
      <point x="599" y="580"/>
      <point x="602" y="524"/>
      <point x="474" y="515" type="curve"/>
      <point x="445" y="515"/>
      <point x="431" y="506"/>
      <point x="431" y="489" type="curve" smooth="yes"/>
      <point x="431" y="98" type="line" smooth="yes"/>
      <point x="431" y="20"/>
      <point x="461" y="-17"/>
    </contour>
  </outline>
</glyph>
<glyph name="jdotless" format="2">
  <advance width="268"/>
  <unicode hex="0237"/>
  <anchor x="130" y="500" name="top"/>
  <outline>
    <contour>
      <point x="54" y="-394" type="curve" smooth="yes"/>
      <point x="116" y="-394"/>
      <point x="175" y="-359"/>
      <point x="175" y="-247" type="curve" smooth="yes"/>
      <point x="175" y="489" type="line" smooth="yes"/>
      <point x="175" y="506"/>
      <point x="160" y="515"/>
      <point x="131" y="515" type="curve" smooth="yes"/>
      <point x="103" y="515"/>
      <point x="89" y="506"/>
      <point x="89" y="489" type="curve" smooth="yes"/>
      <point x="89" y="-251" type="line" smooth="yes"/>
      <point x="89" y="-290"/>
      <point x="85" y="-319"/>
      <point x="56" y="-319" type="curve" smooth="yes"/>
      <point x="23" y="-319"/>
      <point x="5" y="-300"/>
      <point x="-14" y="-280" type="curve" smooth="yes"/>
      <point x="-27" y="-264"/>
      <point x="-42" y="-262"/>
      <point x="-65" y="-279" type="curve" smooth="yes"/>
      <point x="-81" y="-290"/>
      <point x="-94" y="-307"/>
      <point x="-79" y="-326" type="curve" smooth="yes"/>
      <point x="-42" y="-370"/>
      <point x="-1" y="-394"/>
    </contour>
  </outline>
</glyph>
<glyph name="gravecomb" format="2">
	<unicode hex="0300"/>
	<outline>
		<contour>
			<point x="24" y="488" type="curve" smooth="yes"/>
			<point x="36" y="488"/>
			<point x="57" y="504"/>
			<point x="57" y="515" type="curve" smooth="yes"/>
			<point x="57" y="518"/>
			<point x="57" y="521"/>
			<point x="52" y="528" type="curve" smooth="yes"/>
			<point x="-34" y="659" type="line" smooth="yes"/>
			<point x="-39" y="667"/>
			<point x="-44" y="671"/>
			<point x="-53" y="671" type="curve" smooth="yes"/>
			<point x="-69" y="671"/>
			<point x="-99" y="649"/>
			<point x="-99" y="635" type="curve" smooth="yes"/>
			<point x="-99" y="628"/>
			<point x="-97" y="625"/>
			<point x="-90" y="616" type="curve" smooth="yes"/>
			<point x="9" y="498" type="line" smooth="yes"/>
			<point x="15" y="491"/>
			<point x="19" y="488"/>
		</contour>
	</outline>
	<anchor name="_top" x="0" y="400"/>
	<anchor name="top" x="0" y="654"/>
</glyph>
<glyph name="circumflexcomb" format="2">
  <unicode hex="0302"/>
  <anchor x="0" y="400" name="_top"/>
  <anchor x="0" y="654" name="top"/>
  <outline>
    <contour>
      <point x="-114" y="488" type="curve" smooth="yes"/>
      <point x="-107" y="488"/>
      <point x="-101" y="492"/>
      <point x="-94" y="498" type="curve" smooth="yes"/>
      <point x="0" y="591" type="line"/>
      <point x="94" y="498" type="line" smooth="yes"/>
      <point x="101" y="492"/>
      <point x="107" y="488"/>
      <point x="114" y="488" type="curve" smooth="yes"/>
      <point x="124" y="488"/>
      <point x="142" y="504"/>
      <point x="142" y="515" type="curve" smooth="yes"/>
      <point x="142" y="518"/>
      <point x="142" y="521"/>
      <point x="137" y="528" type="curve" smooth="yes"/>
      <point x="34" y="655" type="line" smooth="yes"/>
      <point x="28" y="662"/>
      <point x="20" y="671"/>
      <point x="0" y="671" type="curve" smooth="yes"/>
      <point x="-21" y="671"/>
      <point x="-29" y="662"/>
      <point x="-35" y="655" type="curve" smooth="yes"/>
      <point x="-137" y="528" type="line" smooth="yes"/>
      <point x="-142" y="521"/>
      <point x="-142" y="518"/>
      <point x="-142" y="515" type="curve" smooth="yes"/>
      <point x="-142" y="504"/>
      <point x="-124" y="488"/>
    </contour>
  </outline>
</glyph>
<glyph name="tildecomb" format="2">
  <unicode hex="0303"/>
  <anchor x="0" y="500" name="_top"/>
  <anchor x="0" y="755" name="top"/>
  <outline>
    <contour>
      <point x="-150" y="640" type="curve" smooth="yes"/>
      <point x="-127" y="640"/>
      <point x="-115" y="649"/>
      <point x="-114" y="666" type="curve" smooth="yes"/>
      <point x="-112" y="701"/>
      <point x="-104" y="714"/>
      <point x="-89" y="714" type="curve" smooth="yes"/>
      <point x="-50" y="714"/>
      <point x="5" y="641"/>
      <point x="90" y="641" type="curve" smooth="yes"/>
      <point x="154" y="641"/>
      <point x="180" y="694"/>
      <point x="181" y="775" type="curve" smooth="yes"/>
      <point x="181" y="793"/>
      <point x="171" y="803"/>
      <point x="145" y="803" type="curve" smooth="yes"/>
      <point x="123" y="803"/>
      <point x="113" y="795"/>
      <point x="111" y="781" type="curve" smooth="yes"/>
      <point x="110" y="746"/>
      <point x="101" y="730"/>
      <point x="85" y="730" type="curve" smooth="yes"/>
      <point x="43" y="730"/>
      <point x="-15" y="801"/>
      <point x="-94" y="801" type="curve" smooth="yes"/>
      <point x="-151" y="801"/>
      <point x="-182" y="763"/>
      <point x="-184" y="666" type="curve" smooth="yes"/>
      <point x="-184" y="648"/>
      <point x="-171" y="640"/>
    </contour>
  </outline>
</glyph>
<glyph name="brevecomb" format="2">
	<unicode hex="0306"/>
	<outline>
		<contour>
			<point x="0" y="494" type="curve" smooth="yes"/>
			<point x="80" y="494"/>
			<point x="137" y="556"/>
			<point x="141" y="647" type="curve" smooth="yes"/>
			<point x="142" y="660"/>
			<point x="133" y="670"/>
			<point x="113" y="670" type="curve" smooth="yes"/>
			<point x="93" y="670"/>
			<point x="88" y="662"/>
			<point x="85" y="647" type="curve" smooth="yes"/>
			<point x="75" y="599"/>
			<point x="50" y="565"/>
			<point x="0" y="565" type="curve" smooth="yes"/>
			<point x="-50" y="565"/>
			<point x="-75" y="599"/>
			<point x="-85" y="647" type="curve" smooth="yes"/>
			<point x="-88" y="661"/>
			<point x="-94" y="670"/>
			<point x="-114" y="670" type="curve" smooth="yes"/>
			<point x="-134" y="670"/>
			<point x="-142" y="660"/>
			<point x="-141" y="647" type="curve" smooth="yes"/>
			<point x="-137" y="551"/>
			<point x="-84" y="494"/>
		</contour>
	</outline>
	<anchor name="_top" x="0" y="400"/>
	<anchor name="top" x="0" y="654"/>
</glyph>
<glyph name="dieresiscomb" format="2">
	<unicode hex="0308"/>
	<outline>
		<contour>
			<point x="-95" y="535" type="curve" smooth="yes"/>
			<point x="-66" y="535"/>
			<point x="-50" y="551"/>
			<point x="-51" y="585" type="curve" smooth="yes"/>
			<point x="-51" y="619"/>
			<point x="-66" y="636"/>
			<point x="-95" y="636" type="curve" smooth="yes"/>
			<point x="-125" y="636"/>
			<point x="-140" y="619"/>
			<point x="-140" y="585" type="curve" smooth="yes"/>
			<point x="-140" y="551"/>
			<point x="-125" y="535"/>
		</contour>
		<contour>
			<point x="96" y="535" type="curve" smooth="yes"/>
			<point x="125" y="535"/>
			<point x="141" y="551"/>
			<point x="140" y="585" type="curve" smooth="yes"/>
			<point x="140" y="619"/>
			<point x="125" y="636"/>
			<point x="96" y="636" type="curve" smooth="yes"/>
			<point x="66" y="636"/>
			<point x="51" y="619"/>
			<point x="51" y="585" type="curve" smooth="yes"/>
			<point x="51" y="551"/>
			<point x="66" y="535"/>
		</contour>
	</outline>
	<anchor name="_top" x="0" y="400"/>
	<anchor name="top" x="0" y="609"/>
</glyph>
<glyph name="ringcomb" format="2">
	<unicode hex="030A"/>
	<outline>
		<contour>
			<point x="0" y="481" type="curve" smooth="yes"/>
			<point x="65" y="481"/>
			<point x="109" y="522"/>
			<point x="109" y="585" type="curve" smooth="yes"/>
			<point x="109" y="647"/>
			<point x="65" y="688"/>
			<point x="0" y="688" type="curve" smooth="yes"/>
			<point x="-65" y="688"/>
			<point x="-109" y="647"/>
			<point x="-109" y="585" type="curve" smooth="yes"/>
			<point x="-109" y="522"/>
			<point x="-65" y="481"/>
		</contour>
		<contour>
			<point x="0" y="529" type="curve" smooth="yes"/>
			<point x="-33" y="529"/>
			<point x="-52" y="551"/>
			<point x="-52" y="585" type="curve" smooth="yes"/>
			<point x="-52" y="618"/>
			<point x="-33" y="640"/>
			<point x="0" y="640" type="curve" smooth="yes"/>
			<point x="33" y="640"/>
			<point x="52" y="618"/>
			<point x="52" y="585" type="curve" smooth="yes"/>
			<point x="52" y="551"/>
			<point x="33" y="529"/>
		</contour>
	</outline>
	<anchor name="_top" x="0" y="400"/>
	<anchor name="top" x="0" y="654"/>
</glyph>
<glyph name="horncomb" format="2">
  <unicode hex="031B"/>
  <anchor x="0" y="411" name="_topright"/>
  <outline>
    <contour>
      <point x="167" y="544" type="curve" smooth="yes"/>
      <point x="160" y="580"/>
      <point x="92" y="574"/>
      <point x="97" y="538" type="curve" smooth="yes"/>
      <point x="108" y="464"/>
      <point x="109" y="419"/>
      <point x="0" y="411" type="curve"/>
      <point x="0" y="361" type="line"/>
      <point x="156" y="361"/>
      <point x="184" y="454"/>
    </contour>
  </outline>
</glyph>
<glyph name="strokeshortcomb" format="2">
	<unicode hex="0335"/>
	<outline>
		<contour>
			<point x="-112" y="245" type="curve" smooth="yes"/>
			<point x="104" y="245" type="line" smooth="yes"/>
			<point x="123" y="245"/>
			<point x="126" y="259"/>
			<point x="126" y="273" type="curve" smooth="yes"/>
			<point x="126" y="288"/>
			<point x="123" y="303"/>
			<point x="104" y="303" type="curve" smooth="yes"/>
			<point x="-112" y="303" type="line" smooth="yes"/>
			<point x="-131" y="303"/>
			<point x="-134" y="288"/>
			<point x="-134" y="273" type="curve" smooth="yes"/>
			<point x="-134" y="259"/>
			<point x="-131" y="245"/>
		</contour>
	</outline>
	<anchor name="_center" x="0" y="274"/>
</glyph>
<glyph name="strokelongcomb" format="2">
  <unicode hex="0336"/>
  <anchor x="0" y="343" name="_center"/>
  <outline>
    <contour>
      <point x="-385" y="304" type="curve" smooth="yes"/>
      <point x="385" y="304" type="line" smooth="yes"/>
      <point x="409" y="304"/>
      <point x="413" y="318"/>
      <point x="413" y="341" type="curve" smooth="yes"/>
      <point x="413" y="366"/>
      <point x="409" y="381"/>
      <point x="385" y="381" type="curve" smooth="yes"/>
      <point x="-385" y="381" type="line" smooth="yes"/>
      <point x="-409" y="381"/>
      <point x="-412" y="366"/>
      <point x="-412" y="341" type="curve" smooth="yes"/>
      <point x="-412" y="318"/>
      <point x="-409" y="304"/>
    </contour>
  </outline>
</glyph>
<glyph name="slashshortcomb" format="2">
  <unicode hex="0337"/>
  <anchor x="0" y="274" name="_center"/>
  <outline>
    <contour>
      <point x="-85" y="201" type="curve" smooth="yes"/>
      <point x="133" y="310" type="line" smooth="yes"/>
      <point x="146" y="317"/>
      <point x="147" y="330"/>
      <point x="136" y="349" type="curve" smooth="yes"/>
      <point x="127" y="362"/>
      <point x="118" y="365"/>
      <point x="104" y="358" type="curve" smooth="yes"/>
      <point x="-114" y="251" type="line" smooth="yes"/>
      <point x="-129" y="244"/>
      <point x="-128" y="227"/>
      <point x="-121" y="214" type="curve" smooth="yes"/>
      <point x="-112" y="197"/>
      <point x="-100" y="193"/>
    </contour>
  </outline>
</glyph>
<glyph name="Germandbls" format="2">
  <advance width="710"/>
  <unicode hex="1E9E"/>
  <outline>
    <contour>
      <point x="421" y="-15" type="curve" smooth="yes"/>
      <point x="538" y="-15"/>
      <point x="639" y="58"/>
      <point x="639" y="185" type="curve" smooth="yes"/>
      <point x="639" y="394"/>
      <point x="366" y="419"/>
      <point x="366" y="542" type="curve" smooth="yes"/>
      <point x="366" y="615"/>
      <point x="439" y="646"/>
      <point x="499" y="646" type="curve" smooth="yes"/>
      <point x="515" y="646"/>
      <point x="521" y="655"/>
      <point x="521" y="679" type="curve" smooth="yes"/>
      <point x="521" y="703"/>
      <point x="515" y="712"/>
      <point x="499" y="712" type="curve" smooth="yes"/>
      <point x="482" y="712" type="line" smooth="yes"/>
      <point x="177" y="712"/>
      <point x="96" y="578"/>
      <point x="96" y="392" type="curve" smooth="yes"/>
      <point x="96" y="11" type="line" smooth="yes"/>
      <point x="96" y="-4"/>
      <point x="108" y="-11"/>
      <point x="131" y="-11" type="curve" smooth="yes"/>
      <point x="154" y="-11"/>
      <point x="166" y="-4"/>
      <point x="166" y="11" type="curve" smooth="yes"/>
      <point x="166" y="392" type="line" smooth="yes"/>
      <point x="166" y="543"/>
      <point x="227" y="651"/>
      <point x="482" y="651" type="curve"/>
      <point x="481" y="672" type="line"/>
      <point x="383" y="672"/>
      <point x="294" y="615"/>
      <point x="294" y="527" type="curve" smooth="yes"/>
      <point x="294" y="376"/>
      <point x="565" y="343"/>
      <point x="565" y="185" type="curve" smooth="yes"/>
      <point x="565" y="99"/>
      <point x="501" y="53"/>
      <point x="421" y="53" type="curve" smooth="yes"/>
      <point x="369" y="53"/>
      <point x="329" y="63"/>
      <point x="288" y="87" type="curve" smooth="yes"/>
      <point x="269" y="98"/>
      <point x="258" y="93"/>
      <point x="246" y="74" type="curve" smooth="yes"/>
      <point x="235" y="56"/>
      <point x="237" y="45"/>
      <point x="254" y="33" type="curve" smooth="yes"/>
      <point x="295" y="5"/>
      <point x="358" y="-15"/>
    </contour>
  </outline>
</glyph>
<glyph name="endash" format="2">
	<unicode hex="2013"/>
	<advance width="500"/>
	<outline>
		<contour>
			<point x="70" y="241" type="curve" smooth="yes"/>
			<point x="430" y="241" type="line" smooth="yes"/>
			<point x="446" y="241"/>
			<point x="452" y="249"/>
			<point x="452" y="273" type="curve" smooth="yes"/>
			<point x="452" y="297"/>
			<point x="446" y="305"/>
			<point x="430" y="305" type="curve" smooth="yes"/>
			<point x="70" y="305" type="line" smooth="yes"/>
			<point x="54" y="305"/>
			<point x="48" y="297"/>
			<point x="48" y="273" type="curve" smooth="yes"/>
			<point x="48" y="249"/>
			<point x="54" y="241"/>
		</contour>
	</outline>
</glyph>
<glyph name="minute" format="2">
  <advance width="320"/>
  <unicode hex="2032"/>
  <outline>
    <contour>
      <point x="145" y="648" type="curve" smooth="yes"/>
      <point x="162" y="648"/>
      <point x="173" y="656"/>
      <point x="178" y="672" type="curve" smooth="yes"/>
      <point x="233" y="872" type="line" smooth="yes"/>
      <point x="242" y="904"/>
      <point x="227" y="920"/>
      <point x="188" y="920" type="curve" smooth="yes"/>
      <point x="153" y="920"/>
      <point x="145" y="901"/>
      <point x="142" y="880" type="curve" smooth="yes"/>
      <point x="117" y="679" type="line" smooth="yes"/>
      <point x="115" y="657"/>
      <point x="123" y="648"/>
    </contour>
  </outline>
</glyph>
<glyph name="euro" format="2">
  <advance width="775"/>
  <unicode hex="20AC"/>
  <outline>
    <contour>
      <point x="454" y="-19" type="curve" smooth="yes"/>
      <point x="560" y="-19"/>
      <point x="661" y="33"/>
      <point x="729" y="126" type="curve" smooth="yes"/>
      <point x="740" y="143"/>
      <point x="734" y="151"/>
      <point x="716" y="166" type="curve" smooth="yes"/>
      <point x="696" y="180"/>
      <point x="680" y="181"/>
      <point x="669" y="169" type="curve" smooth="yes"/>
      <point x="618" y="110"/>
      <point x="546" y="65"/>
      <point x="455" y="65" type="curve" smooth="yes"/>
      <point x="306" y="65"/>
      <point x="215" y="201"/>
      <point x="215" y="436" type="curve" smooth="yes"/>
      <point x="215" y="665"/>
      <point x="320" y="806"/>
      <point x="468" y="806" type="curve" smooth="yes"/>
      <point x="541" y="806"/>
      <point x="600" y="781"/>
      <point x="651" y="736" type="curve" smooth="yes"/>
      <point x="664" y="724"/>
      <point x="676" y="726"/>
      <point x="695" y="743" type="curve" smooth="yes"/>
      <point x="711" y="756"/>
      <point x="719" y="769"/>
      <point x="706" y="784" type="curve" smooth="yes"/>
      <point x="643" y="861"/>
      <point x="560" y="890"/>
      <point x="468" y="890" type="curve" smooth="yes"/>
      <point x="256" y="890"/>
      <point x="125" y="695"/>
      <point x="125" y="436" type="curve" smooth="yes"/>
      <point x="125" y="173"/>
      <point x="236" y="-19"/>
    </contour>
    <contour>
      <point x="60" y="483" type="curve" smooth="yes"/>
      <point x="571" y="483" type="line" smooth="yes"/>
      <point x="591" y="483"/>
      <point x="599" y="491"/>
      <point x="599" y="521" type="curve" smooth="yes"/>
      <point x="599" y="551"/>
      <point x="591" y="560"/>
      <point x="571" y="560" type="curve" smooth="yes"/>
      <point x="60" y="560" type="line" smooth="yes"/>
      <point x="40" y="560"/>
      <point x="33" y="551"/>
      <point x="33" y="521" type="curve" smooth="yes"/>
      <point x="33" y="491"/>
      <point x="40" y="483"/>
    </contour>
    <contour>
      <point x="60" y="333" type="curve" smooth="yes"/>
      <point x="571" y="333" type="line" smooth="yes"/>
      <point x="591" y="333"/>
      <point x="599" y="341"/>
      <point x="599" y="371" type="curve" smooth="yes"/>
      <point x="599" y="401"/>
      <point x="591" y="410"/>
      <point x="571" y="410" type="curve" smooth="yes"/>
      <point x="60" y="410" type="line" smooth="yes"/>
      <point x="40" y="410"/>
      <point x="33" y="401"/>
      <point x="33" y="371" type="curve" smooth="yes"/>
      <point x="33" y="341"/>
      <point x="40" y="333"/>
    </contour>
  </outline>
</glyph>
<glyph name="trademark" format="2">
  <advance width="768"/>
  <unicode hex="2122"/>
  <outline>
    <contour>
      <point x="158" y="344" type="curve" smooth="yes"/>
      <point x="179" y="344"/>
      <point x="190" y="351"/>
      <point x="190" y="363" type="curve" smooth="yes"/>
      <point x="190" y="643" type="line"/>
      <point x="277" y="643" type="line" smooth="yes"/>
      <point x="293" y="643"/>
      <point x="298" y="647"/>
      <point x="298" y="671" type="curve" smooth="yes"/>
      <point x="298" y="693"/>
      <point x="294" y="700"/>
      <point x="277" y="700" type="curve" smooth="yes"/>
      <point x="40" y="700" type="line" smooth="yes"/>
      <point x="23" y="700"/>
      <point x="18" y="695"/>
      <point x="18" y="671" type="curve" smooth="yes"/>
      <point x="18" y="648"/>
      <point x="23" y="643"/>
      <point x="40" y="643" type="curve" smooth="yes"/>
      <point x="126" y="643" type="line"/>
      <point x="126" y="363" type="line" smooth="yes"/>
      <point x="126" y="351"/>
      <point x="137" y="344"/>
    </contour>
    <contour>
      <point x="379" y="344" type="curve" smooth="yes"/>
      <point x="399" y="344"/>
      <point x="411" y="350"/>
      <point x="411" y="363" type="curve" smooth="yes"/>
      <point x="411" y="554" type="line"/>
      <point x="488" y="411" type="line" smooth="yes"/>
      <point x="494" y="401"/>
      <point x="501" y="400"/>
      <point x="523" y="400" type="curve" smooth="yes"/>
      <point x="542" y="400"/>
      <point x="549" y="404"/>
      <point x="554" y="412" type="curve" smooth="yes"/>
      <point x="632" y="554" type="line"/>
      <point x="632" y="363" type="line" smooth="yes"/>
      <point x="632" y="350"/>
      <point x="643" y="344"/>
      <point x="664" y="344" type="curve" smooth="yes"/>
      <point x="684" y="344"/>
      <point x="696" y="350"/>
      <point x="696" y="363" type="curve" smooth="yes"/>
      <point x="696" y="681" type="line" smooth="yes"/>
      <point x="696" y="693"/>
      <point x="690" y="700"/>
      <point x="669" y="700" type="curve" smooth="yes"/>
      <point x="652" y="700"/>
      <point x="642" y="691"/>
      <point x="635" y="679" type="curve" smooth="yes"/>
      <point x="521" y="472" type="line"/>
      <point x="408" y="679" type="line" smooth="yes"/>
      <point x="401" y="692"/>
      <point x="392" y="700"/>
      <point x="374" y="700" type="curve" smooth="yes"/>
      <point x="353" y="700"/>
      <point x="347" y="693"/>
      <point x="347" y="681" type="curve" smooth="yes"/>
      <point x="347" y="363" type="line" smooth="yes"/>
      <point x="347" y="350"/>
      <point x="358" y="344"/>
    </contour>
  </outline>
</glyph>
<glyph name="product" format="2">
	<unicode hex="220F"/>
	<advance width="610"/>
	<outline>
		<contour>
			<point x="153" y="-66" type="curve" smooth="yes"/>
			<point x="176" y="-66"/>
			<point x="187" y="-59"/>
			<point x="187" y="-45" type="curve" smooth="yes"/>
			<point x="187" y="636" type="line"/>
			<point x="423" y="636" type="line"/>
			<point x="423" y="-45" type="line" smooth="yes"/>
			<point x="423" y="-59"/>
			<point x="434" y="-66"/>
			<point x="457" y="-66" type="curve" smooth="yes"/>
			<point x="480" y="-66"/>
			<point x="491" y="-59"/>
			<point x="491" y="-45" type="curve" smooth="yes"/>
			<point x="491" y="636" type="line"/>
			<point x="580" y="636" type="line" smooth="yes"/>
			<point x="592" y="636"/>
			<point x="600" y="647"/>
			<point x="600" y="668" type="curve" smooth="yes"/>
			<point x="600" y="689"/>
			<point x="592" y="700"/>
			<point x="580" y="700" type="curve" smooth="yes"/>
			<point x="30" y="700" type="line" smooth="yes"/>
			<point x="18" y="700"/>
			<point x="10" y="689"/>
			<point x="10" y="668" type="curve" smooth="yes"/>
			<point x="10" y="647"/>
			<point x="18" y="636"/>
			<point x="30" y="636" type="curve" smooth="yes"/>
			<point x="119" y="636" type="line"/>
			<point x="119" y="-45" type="line" smooth="yes"/>
			<point x="119" y="-59"/>
			<point x="130" y="-66"/>
		</contour>
	</outline>
</glyph>
<glyph name="minus" format="2">
  <advance width="610"/>
  <unicode hex="2212"/>
  <outline>
    <contour>
      <point x="90" y="318" type="curve" smooth="yes"/>
      <point x="520" y="318" type="line" smooth="yes"/>
      <point x="532" y="318"/>
      <point x="540" y="329"/>
      <point x="540" y="350" type="curve" smooth="yes"/>
      <point x="540" y="371"/>
      <point x="532" y="382"/>
      <point x="520" y="382" type="curve" smooth="yes"/>
      <point x="90" y="382" type="line" smooth="yes"/>
      <point x="78" y="382"/>
      <point x="70" y="371"/>
      <point x="70" y="350" type="curve" smooth="yes"/>
      <point x="70" y="329"/>
      <point x="78" y="318"/>
    </contour>
  </outline>
</glyph>
<glyph name="integral" format="2">
  <advance width="405"/>
  <unicode hex="222B"/>
  <outline>
    <contour>
      <point x="46" y="-60" type="curve" smooth="yes"/>
      <point x="146" y="-60"/>
      <point x="179" y="-10"/>
      <point x="191" y="53" type="curve" smooth="yes"/>
      <point x="289" y="592" type="line" smooth="yes"/>
      <point x="297" y="636"/>
      <point x="313" y="655"/>
      <point x="366" y="655" type="curve" smooth="yes"/>
      <point x="389" y="655"/>
      <point x="397" y="663"/>
      <point x="397" y="685" type="curve" smooth="yes"/>
      <point x="397" y="708"/>
      <point x="389" y="715"/>
      <point x="366" y="715" type="curve" smooth="yes"/>
      <point x="266" y="715"/>
      <point x="233" y="665"/>
      <point x="221" y="602" type="curve" smooth="yes"/>
      <point x="123" y="63" type="line" smooth="yes"/>
      <point x="115" y="19"/>
      <point x="99" y="0"/>
      <point x="46" y="0" type="curve" smooth="yes"/>
      <point x="23" y="0"/>
      <point x="15" y="-7"/>
      <point x="15" y="-30" type="curve" smooth="yes"/>
      <point x="15" y="-52"/>
      <point x="23" y="-60"/>
    </contour>
  </outline>
</glyph>
<glyph name="A.cur" format="2">
	<advance width="783"/>
	<outline>
		<contour>
			<point x="286" y="-11" type="curve" smooth="yes"/>
			<point x="433" y="-11"/>
			<point x="569" y="175"/>
			<point x="596" y="423" type="curve"/>
			<point x="550" y="431" type="line"/>
			<point x="518" y="215"/>
			<point x="406" y="57"/>
			<point x="287" y="57" type="curve" smooth="yes"/>
			<point x="177" y="57"/>
			<point x="118" y="145"/>
			<point x="118" y="313" type="curve" smooth="yes"/>
			<point x="118" y="515"/>
			<point x="212" y="644"/>
			<point x="367" y="644" type="curve" smooth="yes"/>
			<point x="448" y="644"/>
			<point x="501" y="621"/>
			<point x="551" y="575" type="curve" smooth="yes"/>
			<point x="569" y="558"/>
			<point x="577" y="553"/>
			<point x="594" y="564" type="curve" smooth="yes"/>
			<point x="617" y="579"/>
			<point x="616" y="596"/>
			<point x="602" y="612" type="curve" smooth="yes"/>
			<point x="548" y="675"/>
			<point x="476" y="712"/>
			<point x="367" y="712" type="curve" smooth="yes"/>
			<point x="171" y="712"/>
			<point x="45" y="555"/>
			<point x="45" y="313" type="curve" smooth="yes"/>
			<point x="45" y="106"/>
			<point x="134" y="-11"/>
		</contour>
		<contour>
			<point x="642" y="-14" type="curve" smooth="yes"/>
			<point x="681" y="-14"/>
			<point x="736" y="27"/>
			<point x="766" y="101" type="curve"/>
			<point x="772" y="119"/>
			<point x="766" y="130"/>
			<point x="752" y="135" type="curve" smooth="yes"/>
			<point x="732" y="143"/>
			<point x="718" y="140"/>
			<point x="710" y="123" type="curve" smooth="yes"/>
			<point x="691" y="82"/>
			<point x="671" y="54"/>
			<point x="648" y="54" type="curve" smooth="yes"/>
			<point x="628" y="54"/>
			<point x="620" y="69"/>
			<point x="620" y="121" type="curve" smooth="yes"/>
			<point x="621" y="432" type="line" smooth="yes"/>
			<point x="621" y="447"/>
			<point x="609" y="454"/>
			<point x="586" y="454" type="curve" smooth="yes"/>
			<point x="562" y="454"/>
			<point x="550" y="447"/>
			<point x="550" y="432" type="curve" smooth="yes"/>
			<point x="550" y="112" type="line" smooth="yes"/>
			<point x="550" y="27"/>
			<point x="566" y="-14"/>
		</contour>
	</outline>
	<anchor name="bottom" x="283" y="0"/>
	<anchor name="ogonek" x="705" y="10"/>
	<anchor name="top" x="367" y="670"/>
</glyph>
<glyph name="A.cur.ini" format="2">
	<advance width="743"/>
	<outline>
		<contour>
			<point x="286" y="-11" type="curve" smooth="yes"/>
			<point x="433" y="-11"/>
			<point x="569" y="175"/>
			<point x="596" y="423" type="curve"/>
			<point x="550" y="431" type="line"/>
			<point x="518" y="215"/>
			<point x="406" y="57"/>
			<point x="287" y="57" type="curve" smooth="yes"/>
			<point x="177" y="57"/>
			<point x="118" y="145"/>
			<point x="118" y="313" type="curve" smooth="yes"/>
			<point x="118" y="515"/>
			<point x="212" y="644"/>
			<point x="367" y="644" type="curve" smooth="yes"/>
			<point x="448" y="644"/>
			<point x="501" y="621"/>
			<point x="551" y="575" type="curve" smooth="yes"/>
			<point x="569" y="558"/>
			<point x="577" y="553"/>
			<point x="594" y="564" type="curve" smooth="yes"/>
			<point x="617" y="579"/>
			<point x="616" y="596"/>
			<point x="602" y="612" type="curve" smooth="yes"/>
			<point x="548" y="675"/>
			<point x="476" y="712"/>
			<point x="367" y="712" type="curve" smooth="yes"/>
			<point x="171" y="712"/>
			<point x="45" y="555"/>
			<point x="45" y="313" type="curve" smooth="yes"/>
			<point x="45" y="106"/>
			<point x="134" y="-11"/>
		</contour>
		<contour>
			<point x="656" y="-14" type="curve" smooth="yes"/>
			<point x="696" y="-14"/>
			<point x="711" y="46"/>
			<point x="671" y="46" type="curve" smooth="yes"/>
			<point x="635" y="46"/>
			<point x="620" y="63"/>
			<point x="620" y="131" type="curve" smooth="yes"/>
			<point x="621" y="432" type="line" smooth="yes"/>
			<point x="621" y="447"/>
			<point x="609" y="454"/>
			<point x="586" y="454" type="curve" smooth="yes"/>
			<point x="562" y="454"/>
			<point x="550" y="447"/>
			<point x="550" y="432" type="curve" smooth="yes"/>
			<point x="550" y="132" type="line" smooth="yes"/>
			<point x="550" y="30"/>
			<point x="582" y="-14"/>
		</contour>
	</outline>
	<anchor name="bottom" x="283" y="0"/>
	<anchor name="cnct" x="743" y="0"/>
	<anchor name="ogonek" x="705" y="10"/>
	<anchor name="top" x="367" y="670"/>
</glyph>
<glyph name="A.cur_locl" format="2">
  <advance width="783"/>
  <anchor x="283" y="0" name="bottom"/>
  <anchor x="705" y="10" name="ogonek"/>
  <anchor x="367" y="670" name="top"/>
  <outline>
    <contour>
      <point x="286" y="-11" type="curve" smooth="yes"/>
      <point x="433" y="-11"/>
      <point x="569" y="175"/>
      <point x="596" y="423" type="curve"/>
      <point x="550" y="431" type="line"/>
      <point x="518" y="215"/>
      <point x="406" y="57"/>
      <point x="287" y="57" type="curve" smooth="yes"/>
      <point x="177" y="57"/>
      <point x="118" y="145"/>
      <point x="118" y="313" type="curve" smooth="yes"/>
      <point x="118" y="515"/>
      <point x="212" y="644"/>
      <point x="367" y="644" type="curve" smooth="yes"/>
      <point x="442" y="644"/>
      <point x="506" y="619"/>
      <point x="556" y="570" type="curve"/>
      <point x="556" y="647" type="line"/>
      <point x="514" y="685"/>
      <point x="434" y="712"/>
      <point x="367" y="712" type="curve" smooth="yes"/>
      <point x="171" y="712"/>
      <point x="45" y="555"/>
      <point x="45" y="313" type="curve" smooth="yes"/>
      <point x="45" y="106"/>
      <point x="134" y="-11"/>
    </contour>
    <contour>
      <point x="642" y="-14" type="curve" smooth="yes"/>
      <point x="681" y="-14"/>
      <point x="736" y="27"/>
      <point x="766" y="101" type="curve"/>
      <point x="772" y="119"/>
      <point x="766" y="130"/>
      <point x="752" y="135" type="curve" smooth="yes"/>
      <point x="732" y="143"/>
      <point x="718" y="140"/>
      <point x="710" y="123" type="curve" smooth="yes"/>
      <point x="691" y="82"/>
      <point x="671" y="54"/>
      <point x="648" y="54" type="curve" smooth="yes"/>
      <point x="628" y="54"/>
      <point x="620" y="69"/>
      <point x="620" y="121" type="curve" smooth="yes"/>
      <point x="620" y="690" type="line" smooth="yes"/>
      <point x="620" y="705"/>
      <point x="608" y="712"/>
      <point x="585" y="712" type="curve" smooth="yes"/>
      <point x="561" y="712"/>
      <point x="550" y="705"/>
      <point x="550" y="690" type="curve" smooth="yes"/>
      <point x="550" y="112" type="line" smooth="yes"/>
      <point x="550" y="27"/>
      <point x="566" y="-14"/>
    </contour>
  </outline>
</glyph>
<glyph name="A.cur_locl.ini" format="2">
	<advance width="743"/>
	<outline>
		<contour>
			<point x="286" y="-11" type="curve" smooth="yes"/>
			<point x="433" y="-11"/>
			<point x="569" y="175"/>
			<point x="596" y="423" type="curve"/>
			<point x="550" y="431" type="line"/>
			<point x="518" y="215"/>
			<point x="406" y="57"/>
			<point x="287" y="57" type="curve" smooth="yes"/>
			<point x="177" y="57"/>
			<point x="118" y="145"/>
			<point x="118" y="313" type="curve" smooth="yes"/>
			<point x="118" y="515"/>
			<point x="212" y="644"/>
			<point x="367" y="644" type="curve" smooth="yes"/>
			<point x="442" y="644"/>
			<point x="506" y="619"/>
			<point x="556" y="570" type="curve"/>
			<point x="556" y="647" type="line"/>
			<point x="514" y="685"/>
			<point x="434" y="712"/>
			<point x="367" y="712" type="curve" smooth="yes"/>
			<point x="171" y="712"/>
			<point x="45" y="555"/>
			<point x="45" y="313" type="curve" smooth="yes"/>
			<point x="45" y="106"/>
			<point x="134" y="-11"/>
		</contour>
		<contour>
			<point x="656" y="-14" type="curve" smooth="yes"/>
			<point x="696" y="-14"/>
			<point x="711" y="46"/>
			<point x="671" y="46" type="curve" smooth="yes"/>
			<point x="635" y="46"/>
			<point x="620" y="63"/>
			<point x="620" y="131" type="curve" smooth="yes"/>
			<point x="620" y="690" type="line" smooth="yes"/>
			<point x="620" y="705"/>
			<point x="608" y="712"/>
			<point x="585" y="712" type="curve" smooth="yes"/>
			<point x="561" y="712"/>
			<point x="550" y="705"/>
			<point x="550" y="690" type="curve" smooth="yes"/>
			<point x="550" y="132" type="line" smooth="yes"/>
			<point x="550" y="30"/>
			<point x="582" y="-14"/>
		</contour>
	</outline>
	<anchor name="bottom" x="283" y="0"/>
	<anchor name="cnct" x="743" y="0"/>
	<anchor name="ogonek" x="705" y="10"/>
	<anchor name="top" x="367" y="670"/>
</glyph>
<glyph name="A.dec" format="2">
	<advance width="750"/>
	<outline>
		<contour>
			<point x="136" y="-14" type="curve" smooth="yes"/>
			<point x="274" y="-14"/>
			<point x="358" y="192"/>
			<point x="460" y="683" type="curve"/>
			<point x="431" y="682" type="line"/>
			<point x="473" y="461"/>
			<point x="529" y="237"/>
			<point x="617" y="0" type="curve" smooth="yes"/>
			<point x="622" y="-15"/>
			<point x="636" y="-19"/>
			<point x="657" y="-13" type="curve" smooth="yes"/>
			<point x="679" y="-7"/>
			<point x="687" y="4"/>
			<point x="682" y="19" type="curve" smooth="yes"/>
			<point x="598" y="248"/>
			<point x="543" y="470"/>
			<point x="501" y="674" type="curve" smooth="yes"/>
			<point x="495" y="706"/>
			<point x="477" y="712"/>
			<point x="447" y="712" type="curve" smooth="yes"/>
			<point x="418" y="712"/>
			<point x="398" y="705"/>
			<point x="392" y="674" type="curve" smooth="yes"/>
			<point x="300" y="235"/>
			<point x="222" y="51"/>
			<point x="135" y="51" type="curve" smooth="yes"/>
			<point x="116" y="51"/>
			<point x="98" y="58"/>
			<point x="74" y="73" type="curve" smooth="yes"/>
			<point x="60" y="82"/>
			<point x="49" y="83"/>
			<point x="37" y="69" type="curve" smooth="yes"/>
			<point x="23" y="54"/>
			<point x="23" y="39"/>
			<point x="35" y="27" type="curve" smooth="yes"/>
			<point x="60" y="3"/>
			<point x="98" y="-14"/>
		</contour>
		<contour>
			<point x="616" y="5" type="curve"/>
			<point x="665" y="15" type="line"/>
			<point x="550" y="314"/>
			<point x="391" y="335"/>
			<point x="308" y="335" type="curve" smooth="yes"/>
			<point x="215" y="335"/>
			<point x="147" y="285"/>
			<point x="147" y="215" type="curve" smooth="yes"/>
			<point x="147" y="139"/>
			<point x="225" y="92"/>
			<point x="352" y="92" type="curve" smooth="yes"/>
			<point x="453" y="92"/>
			<point x="571" y="126"/>
			<point x="726" y="198" type="curve" smooth="yes"/>
			<point x="748" y="208"/>
			<point x="753" y="224"/>
			<point x="740" y="246" type="curve" smooth="yes"/>
			<point x="732" y="262"/>
			<point x="717" y="263"/>
			<point x="699" y="254" type="curve" smooth="yes"/>
			<point x="558" y="186"/>
			<point x="452" y="154"/>
			<point x="352" y="154" type="curve" smooth="yes"/>
			<point x="263" y="154"/>
			<point x="218" y="175"/>
			<point x="218" y="215" type="curve" smooth="yes"/>
			<point x="218" y="253"/>
			<point x="248" y="272"/>
			<point x="307" y="272" type="curve" smooth="yes"/>
			<point x="383" y="272"/>
			<point x="508" y="253"/>
		</contour>
	</outline>
	<anchor name="bottom" x="409" y="0"/>
	<anchor name="ogonek" x="670" y="-2"/>
	<anchor name="top" x="439" y="670"/>
</glyph>
<glyph name="A.dec2.ini" format="2">
	<advance width="733"/>
	<outline>
		<contour>
			<point x="646" y="-14" type="curve" smooth="yes"/>
			<point x="686" y="-14"/>
			<point x="701" y="46"/>
			<point x="661" y="46" type="curve" smooth="yes"/>
			<point x="630" y="46"/>
			<point x="612" y="70"/>
			<point x="599" y="128" type="curve" smooth="yes"/>
			<point x="561" y="298"/>
			<point x="534" y="486"/>
			<point x="514" y="694" type="curve"/>
			<point x="446" y="686" type="line"/>
			<point x="465" y="480"/>
			<point x="489" y="292"/>
			<point x="530" y="115" type="curve" smooth="yes"/>
			<point x="549" y="29"/>
			<point x="588" y="-14"/>
		</contour>
		<contour>
			<point x="191" y="-14" type="curve" smooth="yes"/>
			<point x="427" y="-14"/>
			<point x="308" y="598"/>
			<point x="518" y="651" type="curve" smooth="yes"/>
			<point x="534" y="655"/>
			<point x="539" y="669"/>
			<point x="534" y="691" type="curve" smooth="yes"/>
			<point x="529" y="713"/>
			<point x="518" y="718"/>
			<point x="497" y="712" type="curve" smooth="yes"/>
			<point x="238" y="646"/>
			<point x="340" y="54"/>
			<point x="190" y="54" type="curve" smooth="yes"/>
			<point x="146" y="54"/>
			<point x="97" y="111"/>
			<point x="97" y="190" type="curve" smooth="yes"/>
			<point x="97" y="265"/>
			<point x="170" y="283"/>
			<point x="444" y="283" type="curve" smooth="yes"/>
			<point x="609" y="283" type="line" smooth="yes"/>
			<point x="628" y="283"/>
			<point x="638" y="297"/>
			<point x="638" y="317" type="curve" smooth="yes"/>
			<point x="638" y="339"/>
			<point x="628" y="349"/>
			<point x="609" y="349" type="curve" smooth="yes"/>
			<point x="441" y="349" type="line" smooth="yes"/>
			<point x="113" y="349"/>
			<point x="24" y="310"/>
			<point x="24" y="190" type="curve" smooth="yes"/>
			<point x="24" y="72"/>
			<point x="108" y="-14"/>
		</contour>
	</outline>
	<anchor name="bottom" x="430" y="0"/>
	<anchor name="cnct" x="733" y="0"/>
	<anchor name="ogonek" x="684" y="-2"/>
	<anchor name="top" x="450" y="670"/>
</glyph>
<glyph name="A.dec_locl" format="2">
  <advance width="1063"/>
  <guideline x="759" y="106" angle="339.6769"/>
  <anchor x="511" y="0" name="bottom"/>
  <anchor x="950" y="0" name="ogonek"/>
  <anchor x="549" y="838" name="top"/>
  <outline>
    <contour>
      <point x="170" y="-17" type="curve" smooth="yes"/>
      <point x="343" y="-17"/>
      <point x="448" y="240"/>
      <point x="575" y="854" type="curve"/>
      <point x="539" y="853" type="line"/>
      <point x="581" y="631"/>
      <point x="634" y="409"/>
      <point x="703" y="199" type="curve" smooth="yes"/>
      <point x="755" y="38"/>
      <point x="800" y="-17"/>
      <point x="880" y="-17" type="curve" smooth="yes"/>
      <point x="974" y="-17"/>
      <point x="1029" y="58"/>
      <point x="1050" y="235" type="curve" smooth="yes"/>
      <point x="1053" y="254"/>
      <point x="1040" y="265"/>
      <point x="1018" y="270" type="curve" smooth="yes"/>
      <point x="993" y="275"/>
      <point x="975" y="268"/>
      <point x="973" y="249" type="curve" smooth="yes"/>
      <point x="951" y="110"/>
      <point x="924" y="63"/>
      <point x="881" y="63" type="curve" smooth="yes"/>
      <point x="848" y="63"/>
      <point x="819" y="110"/>
      <point x="784" y="224" type="curve" smooth="yes"/>
      <point x="720" y="425"/>
      <point x="668" y="641"/>
      <point x="626" y="843" type="curve" smooth="yes"/>
      <point x="619" y="883"/>
      <point x="596" y="890"/>
      <point x="559" y="890" type="curve" smooth="yes"/>
      <point x="523" y="890"/>
      <point x="498" y="881"/>
      <point x="490" y="843" type="curve" smooth="yes"/>
      <point x="375" y="294"/>
      <point x="278" y="64"/>
      <point x="169" y="64" type="curve" smooth="yes"/>
      <point x="145" y="64"/>
      <point x="123" y="73"/>
      <point x="93" y="91" type="curve" smooth="yes"/>
      <point x="75" y="103"/>
      <point x="61" y="104"/>
      <point x="46" y="86" type="curve" smooth="yes"/>
      <point x="29" y="68"/>
      <point x="29" y="49"/>
      <point x="44" y="34" type="curve" smooth="yes"/>
      <point x="75" y="4"/>
      <point x="123" y="-17"/>
    </contour>
    <contour>
      <point x="391" y="266" type="line"/>
      <point x="719" y="266" type="line"/>
      <point x="719" y="344" type="line"/>
      <point x="391" y="344" type="line"/>
    </contour>
  </outline>
</glyph>
<glyph name="A.dec_locl.ini" format="2">
  <advance width="975"/>
  <anchor x="511" y="0" name="bottom"/>
  <anchor x="975" y="0" name="cnct"/>
  <anchor x="888" y="0" name="ogonek"/>
  <anchor x="549" y="838" name="top"/>
  <outline>
    <contour>
      <point x="170" y="-17" type="curve" smooth="yes"/>
      <point x="271" y="-17"/>
      <point x="349" y="71"/>
      <point x="421" y="266" type="curve"/>
      <point x="682" y="266" type="line"/>
      <point x="691" y="236"/>
      <point x="700" y="206"/>
      <point x="710" y="176" type="curve" smooth="yes"/>
      <point x="753" y="48"/>
      <point x="805" y="-17"/>
      <point x="866" y="-17" type="curve" smooth="yes"/>
      <point x="916" y="-17"/>
      <point x="935" y="58"/>
      <point x="885" y="58" type="curve" smooth="yes"/>
      <point x="850" y="58"/>
      <point x="823" y="100"/>
      <point x="790" y="201" type="curve" smooth="yes"/>
      <point x="720" y="425"/>
      <point x="668" y="641"/>
      <point x="626" y="843" type="curve" smooth="yes"/>
      <point x="619" y="883"/>
      <point x="596" y="890"/>
      <point x="559" y="890" type="curve" smooth="yes"/>
      <point x="523" y="890"/>
      <point x="498" y="881"/>
      <point x="490" y="843" type="curve" smooth="yes"/>
      <point x="375" y="294"/>
      <point x="278" y="64"/>
      <point x="169" y="64" type="curve" smooth="yes"/>
      <point x="145" y="64"/>
      <point x="123" y="73"/>
      <point x="93" y="91" type="curve" smooth="yes"/>
      <point x="75" y="103"/>
      <point x="61" y="104"/>
      <point x="46" y="86" type="curve" smooth="yes"/>
      <point x="29" y="68"/>
      <point x="29" y="49"/>
      <point x="44" y="34" type="curve" smooth="yes"/>
      <point x="75" y="4"/>
      <point x="123" y="-17"/>
    </contour>
    <contour>
      <point x="448" y="344" type="line"/>
      <point x="484" y="456"/>
      <point x="520" y="595"/>
      <point x="556" y="765" type="curve"/>
      <point x="584" y="626"/>
      <point x="618" y="487"/>
      <point x="659" y="344" type="curve"/>
    </contour>
  </outline>
</glyph>
<glyph name="AE.cur" format="2">
  <advance width="1029"/>
  <anchor x="597" y="670" name="top"/>
  <outline>
    <contour>
      <point x="116" y="-14" type="curve" smooth="yes"/>
      <point x="227" y="-14"/>
      <point x="264" y="73"/>
      <point x="498" y="678" type="curve"/>
      <point x="471" y="673" type="line"/>
      <point x="481" y="488"/>
      <point x="499" y="331"/>
      <point x="539" y="126" type="curve" smooth="yes"/>
      <point x="543" y="107"/>
      <point x="557" y="99"/>
      <point x="578" y="104" type="curve" smooth="yes"/>
      <point x="602" y="110"/>
      <point x="610" y="121"/>
      <point x="606" y="140" type="curve" smooth="yes"/>
      <point x="567" y="345"/>
      <point x="546" y="499"/>
      <point x="538" y="667" type="curve" smooth="yes"/>
      <point x="536" y="700"/>
      <point x="520" y="712"/>
      <point x="489" y="712" type="curve" smooth="yes"/>
      <point x="460" y="712"/>
      <point x="440" y="705"/>
      <point x="428" y="674" type="curve" smooth="yes"/>
      <point x="215" y="130"/>
      <point x="174" y="51"/>
      <point x="116" y="51" type="curve" smooth="yes"/>
      <point x="101" y="51"/>
      <point x="89" y="57"/>
      <point x="74" y="67" type="curve" smooth="yes"/>
      <point x="59" y="77"/>
      <point x="49" y="77"/>
      <point x="37" y="63" type="curve" smooth="yes"/>
      <point x="23" y="48"/>
      <point x="23" y="33"/>
      <point x="35" y="21" type="curve" smooth="yes"/>
      <point x="56" y="-1"/>
      <point x="83" y="-14"/>
    </contour>
    <contour>
      <point x="268" y="210" type="line"/>
      <point x="561" y="210" type="line"/>
      <point x="551" y="274" type="line"/>
      <point x="293" y="274" type="line"/>
    </contour>
    <contour>
      <point x="748" y="-15" type="curve" smooth="yes"/>
      <point x="844" y="-15"/>
      <point x="939" y="36"/>
      <point x="987" y="118" type="curve" smooth="yes"/>
      <point x="1000" y="140"/>
      <point x="1000" y="155"/>
      <point x="980" y="166" type="curve" smooth="yes"/>
      <point x="963" y="176"/>
      <point x="951" y="176"/>
      <point x="937" y="155" type="curve" smooth="yes"/>
      <point x="894" y="90"/>
      <point x="821" y="55"/>
      <point x="749" y="55" type="curve" smooth="yes"/>
      <point x="654" y="55"/>
      <point x="604" y="105"/>
      <point x="604" y="190" type="curve" smooth="yes"/>
      <point x="604" y="286"/>
      <point x="688" y="335"/>
      <point x="786" y="335" type="curve" smooth="yes"/>
      <point x="872" y="335" type="line" smooth="yes"/>
      <point x="888" y="335"/>
      <point x="894" y="343"/>
      <point x="894" y="367" type="curve" smooth="yes"/>
      <point x="894" y="391"/>
      <point x="888" y="399"/>
      <point x="872" y="399" type="curve" smooth="yes"/>
      <point x="783" y="399" type="line" smooth="yes"/>
      <point x="700" y="399"/>
      <point x="651" y="454"/>
      <point x="651" y="527" type="curve" smooth="yes"/>
      <point x="651" y="602"/>
      <point x="704" y="642"/>
      <point x="783" y="642" type="curve" smooth="yes"/>
      <point x="840" y="642"/>
      <point x="889" y="619"/>
      <point x="918" y="591" type="curve" smooth="yes"/>
      <point x="934" y="576"/>
      <point x="946" y="573"/>
      <point x="961" y="585" type="curve" smooth="yes"/>
      <point x="980" y="600"/>
      <point x="981" y="614"/>
      <point x="961" y="636" type="curve" smooth="yes"/>
      <point x="919" y="684"/>
      <point x="854" y="712"/>
      <point x="785" y="712" type="curve" smooth="yes"/>
      <point x="672" y="712"/>
      <point x="579" y="640"/>
      <point x="579" y="526" type="curve" smooth="yes"/>
      <point x="579" y="454"/>
      <point x="618" y="394"/>
      <point x="697" y="370" type="curve"/>
      <point x="603" y="350"/>
      <point x="531" y="289"/>
      <point x="531" y="187" type="curve" smooth="yes"/>
      <point x="531" y="62"/>
      <point x="610" y="-15"/>
    </contour>
  </outline>
</glyph>
<glyph name="AE.cur.locl" format="2">
  <advance width="960"/>
  <anchor x="530" y="670" name="top"/>
  <outline>
    <contour>
      <point x="97" y="-14" type="curve" smooth="yes"/>
      <point x="206" y="-14"/>
      <point x="246" y="56"/>
      <point x="495" y="661" type="curve"/>
      <point x="537" y="661" type="line"/>
      <point x="537" y="700" type="line"/>
      <point x="478" y="700" type="line" smooth="yes"/>
      <point x="449" y="700"/>
      <point x="436" y="693"/>
      <point x="423" y="662" type="curve" smooth="yes"/>
      <point x="195" y="118"/>
      <point x="153" y="51"/>
      <point x="96" y="51" type="curve" smooth="yes"/>
      <point x="83" y="51"/>
      <point x="71" y="57"/>
      <point x="56" y="69" type="curve" smooth="yes"/>
      <point x="43" y="80"/>
      <point x="31" y="79"/>
      <point x="19" y="65" type="curve" smooth="yes"/>
      <point x="5" y="50"/>
      <point x="4" y="36"/>
      <point x="17" y="23" type="curve" smooth="yes"/>
      <point x="40" y="-1"/>
      <point x="68" y="-14"/>
    </contour>
    <contour>
      <point x="522" y="318" type="line"/>
      <point x="522" y="382" type="line"/>
      <point x="344" y="382" type="line"/>
      <point x="319" y="318" type="line"/>
    </contour>
    <contour>
      <point x="751" y="0" type="line" smooth="yes"/>
      <point x="853" y="0"/>
      <point x="912" y="66"/>
      <point x="935" y="166" type="curve" smooth="yes"/>
      <point x="940" y="188"/>
      <point x="935" y="199"/>
      <point x="917" y="203" type="curve" smooth="yes"/>
      <point x="898" y="209"/>
      <point x="884" y="206"/>
      <point x="877" y="185" type="curve" smooth="yes"/>
      <point x="850" y="108"/>
      <point x="821" y="64"/>
      <point x="757" y="64" type="curve" smooth="yes"/>
      <point x="554" y="64" type="line"/>
      <point x="554" y="318" type="line"/>
      <point x="722" y="318" type="line" smooth="yes"/>
      <point x="738" y="318"/>
      <point x="744" y="326"/>
      <point x="744" y="350" type="curve" smooth="yes"/>
      <point x="744" y="374"/>
      <point x="738" y="382"/>
      <point x="722" y="382" type="curve" smooth="yes"/>
      <point x="554" y="382" type="line"/>
      <point x="554" y="636" type="line"/>
      <point x="804" y="636" type="line" smooth="yes"/>
      <point x="820" y="636"/>
      <point x="826" y="644"/>
      <point x="826" y="668" type="curve" smooth="yes"/>
      <point x="826" y="692"/>
      <point x="820" y="700"/>
      <point x="804" y="700" type="curve" smooth="yes"/>
      <point x="519" y="700" type="line" smooth="yes"/>
      <point x="496" y="700"/>
      <point x="484" y="693"/>
      <point x="484" y="678" type="curve" smooth="yes"/>
      <point x="484" y="32" type="line" smooth="yes"/>
      <point x="484" y="10"/>
      <point x="496" y="0"/>
      <point x="519" y="0" type="curve" smooth="yes"/>
    </contour>
  </outline>
</glyph>
<glyph name="AE.cur.locl.ini" format="2">
  <advance width="1100"/>
  <anchor x="663" y="838" name="top"/>
  <outline>
    <contour>
      <point x="121" y="-17" type="curve" smooth="yes"/>
      <point x="258" y="-17"/>
      <point x="308" y="70"/>
      <point x="619" y="826" type="curve"/>
      <point x="671" y="826" type="line"/>
      <point x="671" y="875" type="line"/>
      <point x="598" y="875" type="line" smooth="yes"/>
      <point x="561" y="875"/>
      <point x="545" y="866"/>
      <point x="529" y="828" type="curve" smooth="yes"/>
      <point x="244" y="148"/>
      <point x="191" y="64"/>
      <point x="120" y="64" type="curve" smooth="yes"/>
      <point x="104" y="64"/>
      <point x="89" y="71"/>
      <point x="70" y="86" type="curve" smooth="yes"/>
      <point x="54" y="100"/>
      <point x="39" y="99"/>
      <point x="24" y="81" type="curve" smooth="yes"/>
      <point x="6" y="63"/>
      <point x="5" y="45"/>
      <point x="21" y="29" type="curve" smooth="yes"/>
      <point x="50" y="-1"/>
      <point x="85" y="-17"/>
    </contour>
    <contour>
      <point x="653" y="398" type="line"/>
      <point x="653" y="478" type="line"/>
      <point x="430" y="478" type="line"/>
      <point x="399" y="398" type="line"/>
    </contour>
    <contour>
      <point x="939" y="0" type="line"/>
      <point x="979" y="0"/>
      <point x="986" y="80"/>
      <point x="946" y="80" type="curve" smooth="yes"/>
      <point x="693" y="80" type="line"/>
      <point x="693" y="398" type="line"/>
      <point x="903" y="398" type="line" smooth="yes"/>
      <point x="923" y="398"/>
      <point x="930" y="408"/>
      <point x="930" y="438" type="curve" smooth="yes"/>
      <point x="930" y="468"/>
      <point x="923" y="478"/>
      <point x="903" y="478" type="curve" smooth="yes"/>
      <point x="693" y="478" type="line"/>
      <point x="693" y="795" type="line"/>
      <point x="1005" y="795" type="line" smooth="yes"/>
      <point x="1025" y="795"/>
      <point x="1033" y="805"/>
      <point x="1033" y="835" type="curve" smooth="yes"/>
      <point x="1033" y="865"/>
      <point x="1025" y="875"/>
      <point x="1005" y="875" type="curve" smooth="yes"/>
      <point x="649" y="875" type="line" smooth="yes"/>
      <point x="620" y="875"/>
      <point x="605" y="866"/>
      <point x="605" y="848" type="curve" smooth="yes"/>
      <point x="605" y="40" type="line" smooth="yes"/>
      <point x="605" y="13"/>
      <point x="620" y="0"/>
      <point x="649" y="0" type="curve" smooth="yes"/>
    </contour>
  </outline>
</glyph>
<glyph name="B.cur" format="2">
  <advance width="894"/>
  <guideline x="294"/>
  <guideline y="91"/>
  <anchor x="491" y="0" name="bottom"/>
  <anchor x="299" y="258" name="center"/>
  <anchor x="491" y="838" name="top"/>
  <outline>
    <contour>
      <point x="558" y="-12" type="curve" smooth="yes"/>
      <point x="710" y="-12"/>
      <point x="844" y="90"/>
      <point x="844" y="260" type="curve" smooth="yes"/>
      <point x="844" y="395"/>
      <point x="731" y="466"/>
      <point x="614" y="479" type="curve"/>
      <point x="614" y="480" type="line"/>
      <point x="714" y="506"/>
      <point x="793" y="586"/>
      <point x="793" y="680" type="curve" smooth="yes"/>
      <point x="793" y="821"/>
      <point x="653" y="890"/>
      <point x="450" y="890" type="curve" smooth="yes"/>
      <point x="314" y="890"/>
      <point x="140" y="839"/>
      <point x="50" y="689" type="curve" smooth="yes"/>
      <point x="35" y="664"/>
      <point x="41" y="648"/>
      <point x="63" y="636" type="curve" smooth="yes"/>
      <point x="88" y="624"/>
      <point x="101" y="634"/>
      <point x="115" y="653" type="curve" smooth="yes"/>
      <point x="206" y="771"/>
      <point x="329" y="808"/>
      <point x="451" y="808" type="curve" smooth="yes"/>
      <point x="623" y="808"/>
      <point x="703" y="756"/>
      <point x="703" y="678" type="curve" smooth="yes"/>
      <point x="703" y="596"/>
      <point x="631" y="526"/>
      <point x="525" y="508" type="curve"/>
      <point x="510" y="514"/>
      <point x="490" y="521"/>
      <point x="465" y="521" type="curve" smooth="yes"/>
      <point x="420" y="521"/>
      <point x="403" y="491"/>
      <point x="403" y="464" type="curve" smooth="yes"/>
      <point x="403" y="440"/>
      <point x="423" y="414"/>
      <point x="464" y="414" type="curve" smooth="yes"/>
      <point x="486" y="414"/>
      <point x="505" y="423"/>
      <point x="526" y="433" type="curve"/>
      <point x="645" y="433"/>
      <point x="753" y="384"/>
      <point x="753" y="259" type="curve" smooth="yes"/>
      <point x="753" y="138"/>
      <point x="674" y="70"/>
      <point x="558" y="70" type="curve" smooth="yes"/>
      <point x="519" y="70"/>
      <point x="466" y="75"/>
      <point x="430" y="104" type="curve" smooth="yes"/>
      <point x="409" y="121"/>
      <point x="396" y="119"/>
      <point x="380" y="103" type="curve" smooth="yes"/>
      <point x="361" y="84"/>
      <point x="365" y="70"/>
      <point x="384" y="46" type="curve" smooth="yes"/>
      <point x="413" y="11"/>
      <point x="484" y="-12"/>
    </contour>
    <contour>
      <point x="198" y="-17" type="curve" smooth="yes"/>
      <point x="294" y="-17"/>
      <point x="339" y="49"/>
      <point x="339" y="160" type="curve" smooth="yes"/>
      <point x="339" y="693" type="line" smooth="yes"/>
      <point x="339" y="711"/>
      <point x="324" y="720"/>
      <point x="295" y="720" type="curve" smooth="yes"/>
      <point x="266" y="720"/>
      <point x="251" y="711"/>
      <point x="251" y="693" type="curve" smooth="yes"/>
      <point x="251" y="165" type="line" smooth="yes"/>
      <point x="251" y="91"/>
      <point x="236" y="68"/>
      <point x="196" y="68" type="curve" smooth="yes"/>
      <point x="159" y="68"/>
      <point x="128" y="86"/>
      <point x="93" y="149" type="curve" smooth="yes"/>
      <point x="81" y="170"/>
      <point x="65" y="179"/>
      <point x="43" y="169" type="curve" smooth="yes"/>
      <point x="11" y="155"/>
      <point x="16" y="135"/>
      <point x="28" y="110" type="curve" smooth="yes"/>
      <point x="51" y="56"/>
      <point x="114" y="-17"/>
    </contour>
  </outline>
</glyph>
<glyph name="B.dec" format="2">
  <advance width="919"/>
  <guideline x="330" y="31" angle="245.0952"/>
  <guideline x="44" y="467" angle="130.6013"/>
  <anchor x="518" y="0" name="bottom"/>
  <anchor x="261" y="258" name="center"/>
  <anchor x="518" y="838" name="top"/>
  <outline>
    <contour>
      <point x="570" y="-12" type="curve" smooth="yes"/>
      <point x="739" y="-12"/>
      <point x="869" y="88"/>
      <point x="869" y="251" type="curve" smooth="yes"/>
      <point x="869" y="375"/>
      <point x="796" y="455"/>
      <point x="654" y="481" type="curve"/>
      <point x="635" y="483" type="line"/>
      <point x="734" y="509"/>
      <point x="805" y="600"/>
      <point x="805" y="705" type="curve" smooth="yes"/>
      <point x="805" y="814"/>
      <point x="728" y="890"/>
      <point x="603" y="890" type="curve" smooth="yes"/>
      <point x="475" y="890"/>
      <point x="368" y="808"/>
      <point x="301" y="679" type="curve"/>
      <point x="301" y="863" type="line" smooth="yes"/>
      <point x="301" y="881"/>
      <point x="286" y="890"/>
      <point x="258" y="890" type="curve" smooth="yes"/>
      <point x="230" y="890"/>
      <point x="219" y="883"/>
      <point x="215" y="870" type="curve" smooth="yes"/>
      <point x="184" y="770"/>
      <point x="124" y="691"/>
      <point x="30" y="613" type="curve" smooth="yes"/>
      <point x="14" y="599"/>
      <point x="13" y="581"/>
      <point x="30" y="561" type="curve" smooth="yes"/>
      <point x="49" y="540"/>
      <point x="68" y="538"/>
      <point x="83" y="550" type="curve" smooth="yes"/>
      <point x="140" y="598"/>
      <point x="181" y="645"/>
      <point x="214" y="696" type="curve"/>
      <point x="214" y="14" type="line" smooth="yes"/>
      <point x="214" y="-5"/>
      <point x="229" y="-14"/>
      <point x="258" y="-14" type="curve" smooth="yes"/>
      <point x="286" y="-14"/>
      <point x="301" y="-5"/>
      <point x="301" y="14" type="curve" smooth="yes"/>
      <point x="301" y="375" type="line" smooth="yes"/>
      <point x="301" y="609"/>
      <point x="428" y="808"/>
      <point x="598" y="808" type="curve" smooth="yes"/>
      <point x="673" y="808"/>
      <point x="715" y="764"/>
      <point x="715" y="698" type="curve" smooth="yes"/>
      <point x="715" y="605"/>
      <point x="656" y="535"/>
      <point x="558" y="511" type="curve"/>
      <point x="543" y="520"/>
      <point x="515" y="524"/>
      <point x="496" y="524" type="curve" smooth="yes"/>
      <point x="453" y="524"/>
      <point x="435" y="500"/>
      <point x="435" y="474" type="curve" smooth="yes"/>
      <point x="435" y="440"/>
      <point x="461" y="423"/>
      <point x="499" y="423" type="curve" smooth="yes"/>
      <point x="514" y="423"/>
      <point x="535" y="429"/>
      <point x="555" y="441" type="curve"/>
      <point x="698" y="419"/>
      <point x="778" y="366"/>
      <point x="778" y="249" type="curve" smooth="yes"/>
      <point x="778" y="136"/>
      <point x="689" y="70"/>
      <point x="573" y="70" type="curve" smooth="yes"/>
      <point x="514" y="70"/>
      <point x="465" y="86"/>
      <point x="440" y="98" type="curve" smooth="yes"/>
      <point x="418" y="109"/>
      <point x="403" y="98"/>
      <point x="394" y="75" type="curve" smooth="yes"/>
      <point x="381" y="43"/>
      <point x="386" y="26"/>
      <point x="406" y="18" type="curve" smooth="yes"/>
      <point x="451" y="-2"/>
      <point x="506" y="-12"/>
    </contour>
  </outline>
</glyph>
